<svg xmlns="http://www.w3.org/2000/svg" xmlns:xlink="http://www.w3.org/1999/xlink" width="73.148" height="79.039" viewBox="0 0 73.148 79.039">
  <defs>
    <clipPath id="clip-path">
      <rect id="Rectangle_1630" data-name="Rectangle 1630" width="73.149" height="79.038" transform="translate(-3 -4)" fill="#fff" stroke="#fff" stroke-width="1"/>
    </clipPath>
    <clipPath id="clip-path-2">
      <rect id="Rectangle_1631" data-name="Rectangle 1631" width="67.149" height="71.038" fill="#fff" stroke="#fff" stroke-width="1"/>
    </clipPath>
  </defs>
  <g id="Group_2751" data-name="Group 2751" transform="translate(3 4)">
    <g id="Group_2748" data-name="Group 2748">
      <g id="Group_2747" data-name="Group 2747" clip-path="url(#clip-path)">
        <path id="Path_5598" data-name="Path 5598" d="M60.277,225.118a4.969,4.969,0,0,0-2.893.923L49.8,231.355a.976.976,0,0,0-.228,1.359.978.978,0,0,0,.8.411.968.968,0,0,0,.564-.18l7.59-5.314a3.031,3.031,0,0,1,1.764-.562,3.058,3.058,0,0,1,1.774,5.55L41.7,247a3.021,3.021,0,0,1-1.764.563c-.1,0-.205-.005-.3-.015l-.038-.005-.018,0L20.654,242.72a1.056,1.056,0,0,0-.117-.026,5.068,5.068,0,0,0-.766-.059,4.971,4.971,0,0,0-2.892.926l-1.382.982-7.951-11.2,8.8-6.282a6.1,6.1,0,0,1,3.548-1.137,6.23,6.23,0,0,1,.943.072l.051.011,21.59,6.266.023.007a3.052,3.052,0,0,1,2.115,3.691,2.951,2.951,0,0,1-1.411,1.813,3.077,3.077,0,0,1-1.513.4,3.148,3.148,0,0,1-.805-.106h0l-.022-.005-.017,0L29.7,235.365a.976.976,0,0,0-.442,1.9l11.136,2.705.022.005a5.1,5.1,0,0,0,1.28.164,5.023,5.023,0,0,0,2.47-.653,4.89,4.89,0,0,0,2.334-3.006,5.015,5.015,0,0,0-3.468-6.075l-21.59-6.266-.011,0a.991.991,0,0,0-.17-.046,8.238,8.238,0,0,0-1.372-.116,8.039,8.039,0,0,0-4.677,1.5l-8.8,6.28-1.007-1.418a.979.979,0,0,0-.8-.411.969.969,0,0,0-.564.18L.437,232.662l-.017.012-.025.018a.982.982,0,0,0,.587,1.77.97.97,0,0,0,.61-.213l.016-.012,2.774-1.973,11.113,15.65-2.567,1.828a.982.982,0,0,0,.482,1.839.975.975,0,0,0,.574-.186l3.436-2.453a.978.978,0,0,0,.232-1.362l-1.025-1.444,1.383-.983a3.028,3.028,0,0,1,1.763-.564,3.1,3.1,0,0,1,.411.028l.045.009,18.964,4.827.016,0,.033.006.028.005.023,0,.03,0a5,5,0,0,0,3.508-.888L63.187,234.21a5.016,5.016,0,0,0,1.183-6.985,5.024,5.024,0,0,0-4.092-2.108" transform="translate(0 -180.542)" fill="#fff" stroke="#fff" stroke-width="1"/>
        <path id="Path_5599" data-name="Path 5599" d="M84.674,39.094a.988.988,0,0,0,1.672,0l9.3-14.748a.988.988,0,0,0-.836-1.516H90.138a13.875,13.875,0,1,1,4.025,10.788.988.988,0,1,0-1.4,1.4,15.848,15.848,0,1,0-4.608-12.185H85.51a.988.988,0,0,0,0,1.977h7.511L85.51,36.714,78,24.808h3.132a.988.988,0,0,0,.988-.988,21.843,21.843,0,1,1,43.685,0,.988.988,0,1,0,1.977,0,23.819,23.819,0,0,0-47.618-.988H76.207a.988.988,0,0,0-.836,1.516Z" transform="translate(-60.633)" fill="#fff" stroke="#fff" stroke-width="1"/>
        <path id="Path_5600" data-name="Path 5600" d="M337.064,138.392a.988.988,0,0,0-.988.988v.693a.988.988,0,0,0,1.977,0v-.693a.988.988,0,0,0-.988-.988" transform="translate(-270.904 -111.555)" fill="#fff" stroke="#fff" stroke-width="1"/>
        <path id="Path_5601" data-name="Path 5601" d="M337.064,165.468a.988.988,0,0,0-.988.988v.693a.988.988,0,0,0,1.977,0v-.693a.988.988,0,0,0-.988-.988" transform="translate(-270.904 -133.38)" fill="#fff" stroke="#fff" stroke-width="1"/>
      </g>
    </g>
    <text id="_" data-name="`" transform="translate(37.301 29.937)" fill="#fff" stroke="#fff" stroke-width="1" font-size="19" font-family="RupeeForadian, Rupee Foradian"><tspan x="0" y="0">`</tspan></text>
    <g id="Group_2750" data-name="Group 2750">
      <g id="Group_2749" data-name="Group 2749" clip-path="url(#clip-path-2)">
        <path id="Path_5602" data-name="Path 5602" d="M194.242,84.853v.935c0,.055.031.083.094.083h2.031a5.59,5.59,0,0,1,2.326.592A2.74,2.74,0,0,1,199.9,88h-5.562a.086.086,0,0,0-.094.083v.935c0,.056.031.083.094.083h5.61v.125a3.076,3.076,0,0,1-.047.468q-.768,2.422-4.594,2.422h-.72v.042q6.92,7.941,6.956,7.941h2.279v-.083l-6-6.839c.063,0,.094-.014.094-.041a7.455,7.455,0,0,0,2.752-.977q2.185-1.486,2.185-3.056h2.657c.063,0,.094-.028.094-.083v-.935c0-.048-.032-.076-.094-.083h-2.763l-.047-.3a2.948,2.948,0,0,0-1.394-1.746v-.083h4.2c.063,0,.094-.028.094-.083v-.935c0-.048-.032-.076-.094-.083H194.336A.086.086,0,0,0,194.242,84.853Z" transform="translate(-156.575 -68.331)" fill="#fff"/>
      </g>
    </g>
  </g>
</svg>
