<svg id="Group_2767" data-name="Group 2767" xmlns="http://www.w3.org/2000/svg" xmlns:xlink="http://www.w3.org/1999/xlink" width="32.226" height="28.013" viewBox="0 0 32.226 28.013">
  <defs>
    <clipPath id="clip-path">
      <rect id="Rectangle_1632" data-name="Rectangle 1632" width="32.226" height="28.013" fill="#6a2fc2"/>
    </clipPath>
  </defs>
  <g id="Group_2752" data-name="Group 2752" clip-path="url(#clip-path)">
    <path id="Path_5603" data-name="Path 5603" d="M19.11,67.142a.612.612,0,1,0,0,1.223h2.074a.612.612,0,1,0,0-1.223h-.45v-9.65h.45a.612.612,0,0,0,0-1.223H19.11a.612.612,0,1,0,0,1.223h.4v9.65Z" transform="translate(-14.61 -44.442)" fill="#6a2fc2"/>
    <path id="Path_5604" data-name="Path 5604" d="M44.088,67.142a.612.612,0,1,0,0,1.223h2.074a.612.612,0,1,0,0-1.223h-.4v-9.65h.4a.612.612,0,0,0,0-1.223H44.088a.612.612,0,0,0,0,1.223h.45v9.65Z" transform="translate(-34.338 -44.442)" fill="#6a2fc2"/>
    <path id="Path_5605" data-name="Path 5605" d="M69.3,67.142a.612.612,0,1,0,0,1.223h2.074a.612.612,0,1,0,0-1.223h-.4v-9.65h.4a.612.612,0,0,0,0-1.223H69.3a.612.612,0,0,0,0,1.223h.45v9.65Z" transform="translate(-54.255 -44.442)" fill="#6a2fc2"/>
    <path id="Path_5606" data-name="Path 5606" d="M94.523,67.142a.612.612,0,1,0,0,1.223H96.6a.612.612,0,1,0,0-1.223h-.4v-9.65h.4a.612.612,0,0,0,0-1.223H94.523a.612.612,0,0,0,0,1.223h.45v9.65Z" transform="translate(-74.172 -44.442)" fill="#6a2fc2"/>
    <path id="Path_5607" data-name="Path 5607" d="M119.741,67.142a.612.612,0,1,0,0,1.223h2.074a.612.612,0,1,0,0-1.223h-.4v-9.65h.4a.612.612,0,0,0,0-1.223h-2.074a.612.612,0,0,0,0,1.223h.45v9.65Z" transform="translate(-94.089 -44.442)" fill="#6a2fc2"/>
    <path id="Path_5608" data-name="Path 5608" d="M10.782,118.234a.612.612,0,0,0,.612.612H37.863a.612.612,0,1,0,0-1.223H11.394a.612.612,0,0,0-.612.612" transform="translate(-8.516 -92.899)" fill="#6a2fc2"/>
    <path id="Path_5609" data-name="Path 5609" d="M37.862,46.646H11.393a.612.612,0,1,0,0,1.223H37.862a.612.612,0,1,0,0-1.223" transform="translate(-8.515 -36.842)" fill="#6a2fc2"/>
    <path id="Path_5610" data-name="Path 5610" d="M31.8,127.458H.931a.612.612,0,1,0,0,1.223H31.8a.612.612,0,1,0,0-1.223" transform="translate(-0.252 -100.668)" fill="#6a2fc2"/>
    <path id="Path_5611" data-name="Path 5611" d="M.612,9.014h31a.612.612,0,0,0,.248-1.171L16.387.065a.612.612,0,0,0-.549,0L.337,7.856A.612.612,0,0,0,.612,9.014M16.112,1.3,29.034,7.791H3.19Z" transform="translate(0 0)" fill="#6a2fc2"/>
  </g>
</svg>
