<svg xmlns="http://www.w3.org/2000/svg" xmlns:xlink="http://www.w3.org/1999/xlink" width="106.751" height="140.471" viewBox="0 0 106.751 140.471">
  <defs>
    <clipPath id="clip-path">
      <rect id="Rectangle_2346" data-name="Rectangle 2346" width="104.347" height="138.671" rx="52.173" transform="translate(0 0)" fill="#fff" stroke="#707070" stroke-width="1"/>
    </clipPath>
    <clipPath id="clip-path-2">
      <rect id="Rectangle_2355" data-name="Rectangle 2355" width="112.391" height="306.861" fill="none"/>
    </clipPath>
    <clipPath id="clip-path-4">
      <rect id="Rectangle_2347" data-name="Rectangle 2347" width="112.391" height="12.185" fill="none"/>
    </clipPath>
    <clipPath id="clip-path-5">
      <rect id="Rectangle_2352" data-name="Rectangle 2352" width="58.021" height="45.494" fill="none"/>
    </clipPath>
    <clipPath id="clip-path-6">
      <rect id="Rectangle_2353" data-name="Rectangle 2353" width="28.038" height="15.05" fill="none"/>
    </clipPath>
  </defs>
  <g id="Group_3302" data-name="Group 3302" transform="translate(-1033.249 -1968.029)">
    <ellipse id="Ellipse_80" data-name="Ellipse 80" cx="52.517" cy="52.517" rx="52.517" ry="52.517" transform="translate(1034.451 2002.555)" fill="#c3e128"/>
    <g id="Mask_Group_36" data-name="Mask Group 36" transform="matrix(1, -0.017, 0.017, 1, 1033.249, 1969.85)" clip-path="url(#clip-path)">
      <g id="Group_3301" data-name="Group 3301" transform="translate(-6.706 3.726) rotate(1)">
        <g id="Group_3300" data-name="Group 3300" clip-path="url(#clip-path-2)">
          <g id="Group_3299" data-name="Group 3299">
            <g id="Group_3298" data-name="Group 3298" clip-path="url(#clip-path-2)">
              <g id="Group_3291" data-name="Group 3291" transform="translate(0 294.676)" opacity="0.1">
                <g id="Group_3290" data-name="Group 3290">
                  <g id="Group_3289" data-name="Group 3289" clip-path="url(#clip-path-4)">
                    <path id="Path_6053" data-name="Path 6053" d="M112.391,828.339c0,3.365-25.159,6.092-56.2,6.092S0,831.7,0,828.339s25.159-6.092,56.2-6.092,56.2,2.728,56.2,6.092" transform="translate(0 -822.247)"/>
                  </g>
                </g>
              </g>
              <path id="Path_6054" data-name="Path 6054" d="M204.764,807.495h20.428s1.2-5.434-3.063-12.6l-13.764.173a22.005,22.005,0,0,0-3.6,12.429" transform="translate(-131.366 -510.02)" fill="#493222"/>
              <rect id="Rectangle_2348" data-name="Rectangle 2348" width="20.428" height="3.225" transform="translate(73.493 297.475)" fill="#3a271b"/>
              <path id="Path_6055" data-name="Path 6055" d="M227.215,809.656c0,1.4-3.45,2.531-7.705,2.531s-7.705-1.134-7.705-2.531,3.45-2.531,7.705-2.531,7.705,1.133,7.705,2.531" transform="translate(-135.898 -517.868)" fill="#664c3b"/>
              <path id="Path_6056" data-name="Path 6056" d="M79.839,788.307s1.583,8.119.388,13.853H41.762s-1.314-8.348,15.41-8.328L67.9,786.58Z" transform="translate(-26.78 -504.686)" fill="#493222"/>
              <path id="Path_6057" data-name="Path 6057" d="M80.416,833.281H67.464l-.157-2.228A35.817,35.817,0,0,1,54.8,833.214c-3.547,0-12.726.136-12.726.136v-3.294H80.416Z" transform="translate(-26.992 -532.581)" fill="#3a271b"/>
              <path id="Path_6058" data-name="Path 6058" d="M57.015,806.946s-.565,5.927-13.839,5.645c0,0,1.828-5.4,13.839-5.645" transform="translate(-27.703 -517.753)" fill="#664c3b"/>
              <path id="Path_6059" data-name="Path 6059" d="M93.522,405.056l-.717,139.71s10.452,5.251,20.308,1.153L116.879,434.7l2.91-.137,14.23,111.365s7.526,3.378,18.636-.718L141.377,405.056Z" transform="translate(-59.546 -259.892)" fill="#3f464f"/>
              <path id="Path_6060" data-name="Path 6060" d="M93.08,622.674,92.8,674.026s10.452,5.234,20.308,1.135l2.327-68.7c-5.517,21.943-17.5,18.622-22.359,16.212" transform="translate(-59.545 -389.118)" fill="#353b42"/>
              <path id="Path_6061" data-name="Path 6061" d="M207.533,629.013c-7.382,20.018-17.147,7.173-21.337.013l7.744,60.6s7.526,3.411,18.636-.685Z" transform="translate(-119.467 -403.588)" fill="#353b42"/>
              <path id="Path_6062" data-name="Path 6062" d="M94.069,407.487s17.349,5.107,48.618,0l.277,6.167s-25.6,4.754-48.9.075Z" transform="translate(-60.357 -261.452)" fill="#493222"/>
              <rect id="Rectangle_2349" data-name="Rectangle 2349" width="8.959" height="6.809" transform="translate(52.707 148.031)" fill="#d3a13c"/>
              <rect id="Rectangle_2350" data-name="Rectangle 2350" width="7.168" height="2.15" transform="matrix(0.045, -0.999, 0.999, 0.045, 44.151, 154.585)" fill="#535a66"/>
              <rect id="Rectangle_2351" data-name="Rectangle 2351" width="2.15" height="7.167" transform="translate(69.155 147.192) rotate(-3.899)" fill="#535a66"/>
              <path id="Path_6063" data-name="Path 6063" d="M145.731,185.267a108.443,108.443,0,0,0-18.2-5.714c-10.881-1.889-14.114-1.56-22.511.186-4.637.73-13.241,2.6-17.864,4.763,0,0-2.761,12.247-.019,75.919,0,0,18.03,6.335,51.247,0,0,0,.375-28.845,4.689-46.283,0,0,1.292-17.911,2.657-28.871" transform="translate(-55.13 -114.385)" fill="#e8ebef"/>
              <path id="Path_6064" data-name="Path 6064" d="M141,193.4c-5.734-7.645-4.875-13.485-4.875-13.486.378-.065.739-.125,1.078-.178,8.4-1.746,11.63-2.075,22.511-.186q.921.2,1.817.414c-1.284,9.228-9.48,14.556-9.48,14.556l-5.378-8.206" transform="translate(-87.308 -114.385)" fill="#b8bbbf"/>
              <path id="Path_6065" data-name="Path 6065" d="M150.97,167.925l-.244,8.866,14.688.4.317-11.534a28.9,28.9,0,0,1-14.761,2.264" transform="translate(-96.709 -106.292)" fill="#faa284"/>
              <path id="Path_6066" data-name="Path 6066" d="M166.168,149.03l.245-8.885-14.689-.4-.317,11.553a28.9,28.9,0,0,0,14.761-2.264" transform="translate(-97.146 -89.661)" fill="#ef8d72"/>
              <path id="Path_6068" data-name="Path 6068" d="M141.6,171.979s.653,6.051,5.354,8.133c0,0,8.729-2.411,9.345-8.133l4.946,3.874s-3.213,9.538-9.994,12.066l-4.239-6.463-5.761,5.331s-5.556-6.743-5.1-10.911Z" transform="translate(-87.342 -110.345)" fill="#e8ebef"/>
              <path id="Path_6069" data-name="Path 6069" d="M162.813,19.945c-.783-1.881-1.425-3.272-1.9-4.236-1.005-2.5-5.905-7.632-17.866-13.026-17.291-7.8-20.428,3.883-20.428,3.883a14.569,14.569,0,0,1,1.223-4.121c-6.064,4.061-2.329,27-2.329,27,17.052,11.707,36.347,7.526,36.347,7.526.954-4.788,2.089-11.4,2.793-15.611a15.55,15.55,0,0,1,2.158,2.171,33.081,33.081,0,0,0-1.4-4.571Z" transform="translate(-77.237 0)" fill="#72382a"/>
              <path id="Path_6070" data-name="Path 6070" d="M149.326,12.708c-6.428-4.716-15.148-7.8-21.119-9.512a9.385,9.385,0,0,0-4.69,5.42A14.563,14.563,0,0,1,124.74,4.5c-1.563,1.047-2.474,3.349-2.967,6.188,16.182-2.165,27.553,2.024,27.553,2.024" transform="translate(-78.132 -2.051)" fill="#89493d"/>
              <path id="Path_6071" data-name="Path 6071" d="M136.032,57.2l-12.819-2.21a21.418,21.418,0,0,0-2.409.51c.31,5.079.985,9.226.985,9.226,17.052,11.707,36.347,7.526,36.347,7.526.849-4.26,1.84-9.96,2.544-14.132-2.77-1.8-10.01-2.862-10.01-2.862Z" transform="translate(-77.51 -35.281)" fill="#89493d"/>
              <path id="Path_6072" data-name="Path 6072" d="M138.28,19.726S134.338,4.017,147.13,3.2c0,0-9.746,1.3-8.85,16.53" transform="translate(-88.355 -2.051)" fill="#a0625a"/>
              <path id="Path_6073" data-name="Path 6073" d="M149.6,22.393s1.358-11.468,8.794-14.156A30.948,30.948,0,0,0,149.6,22.393" transform="translate(-95.987 -5.285)" fill="#a0625a"/>
              <path id="Path_6074" data-name="Path 6074" d="M163.3,30.755s3.617-9.228,16.25-6.451c0,0-10.191-.9-16.25,6.451" transform="translate(-104.774 -15.259)" fill="#a0625a"/>
              <path id="Path_6075" data-name="Path 6075" d="M180.589,37.542s5.8-8.037,17.344-2.2c0,0-9.647-3.4-17.344,2.2" transform="translate(-115.87 -21.312)" fill="#a0625a"/>
              <path id="Path_6076" data-name="Path 6076" d="M158.181,67.8l-2.309,1.947a27.257,27.257,0,0,1-1.2-3.569,73.573,73.573,0,0,1-2.243-12.265,105.979,105.979,0,0,0-27.457-.269c.226,2.349-1.424,9.736-1.424,9.736-.01,6.3-.142,17,4.188,23.387,1.827,2.7,4.135,4.958,8.009,5.565,16.874,2.642,21.211-13.866,21.211-13.866s5.289,1.409,6.367-6.387c.894-6.457-5.141-4.279-5.141-4.279" transform="translate(-79.269 -33.942)" fill="#faa284"/>
              <path id="Path_6077" data-name="Path 6077" d="M159.847,115.094c-1.434,4.181-6.779,14.484-18.309,13.857-6.24-.339-9.406-4.456-11.486-7.33a16.959,16.959,0,0,0,1.859,3.72c1.827,2.7,4.135,4.958,8.009,5.565,16.874,2.642,21.211-13.866,21.211-13.866s4.048,1.13,5.84-4.027c-3.149,5.232-7.123,2.082-7.123,2.082" transform="translate(-83.443 -72.511)" fill="#ef8d72"/>
              <path id="Path_6078" data-name="Path 6078" d="M142.451,95.173c-.014,1.452-.895,2.56-1.969,2.473s-1.931-1.332-1.917-2.784.9-2.56,1.969-2.474,1.932,1.332,1.917,2.785" transform="translate(-88.906 -59.275)" fill="#502f26"/>
              <path id="Path_6079" data-name="Path 6079" d="M183.607,93.976c-.014,1.452-.9,2.56-1.969,2.474s-1.932-1.333-1.917-2.784.9-2.56,1.969-2.474,1.932,1.333,1.917,2.785" transform="translate(-115.312 -58.507)" fill="#502f26"/>
              <path id="Path_6080" data-name="Path 6080" d="M154.761,109.011c-3.263,1.319-5.022-.217-5.152-1.76a2.213,2.213,0,0,1,1.45-2.276c1.988-.776,3.39-3.834,3.4-3.865a6.558,6.558,0,0,1-3.222,4.812c-.545.317-.885.652-.844,1.149.073.865,1.324,2.157,4.365,1.94" transform="translate(-95.987 -64.874)" fill="#db7c65"/>
              <path id="Path_6081" data-name="Path 6081" d="M130.652,76.3l-.143-.982a25.666,25.666,0,0,1,7.532-.6l.035,1.541a33.011,33.011,0,0,0-7.425.042" transform="translate(-83.737 -47.896)" fill="#72382a"/>
              <path id="Path_6082" data-name="Path 6082" d="M184.159,76c-2.641-1.024-7.536-1.215-7.582-1.225l.322-1.4c.192.04,4.632.194,7.591,1.775Z" transform="translate(-113.295 -47.073)" fill="#72382a"/>
              <path id="Path_6083" data-name="Path 6083" d="M158.613,129.487a32.75,32.75,0,0,1-11.85,0s1.011,5.252,5.925,5.241a5.931,5.931,0,0,0,5.925-5.241" transform="translate(-94.166 -83.082)" fill="#b22828"/>
              <path id="Path_6084" data-name="Path 6084" d="M153.332,132.1c-3.777,0-4.886-1.566-5.361-2.42a32.585,32.585,0,0,0,11.117-.033c-.337.948-2.194,2.453-5.756,2.453" transform="translate(-94.941 -83.182)" fill="#fff"/>
              <g id="Group_3294" data-name="Group 3294" transform="translate(30.771 87.74)" opacity="0.1">
                <g id="Group_3293" data-name="Group 3293">
                  <g id="Group_3292" data-name="Group 3292" clip-path="url(#clip-path-5)">
                    <path id="Path_6085" data-name="Path 6085" d="M143.882,246.131l-7.028-.311c-3.044,4.879-5.737,16.089-5.737,16.089l-8.123,4.183-15.171-2.637c-7.881-4.319-14.335-1.546-14.335-1.546l-4.5-14.695-3-2.39c-.207,9.75-.237,22.039.558,44.057,11.478,1.06,24.683-5.781,24.683-5.781,8.353,5.082,20.227,5.953,27.607,7.217.439-9.43,1.3-21.764,4.2-33.481,0,0,.337-4.673.849-10.705" transform="translate(-85.861 -244.824)"/>
                  </g>
                </g>
              </g>
              <path id="Path_6086" data-name="Path 6086" d="M65.225,195.647s-7.875,1.466-11.25,21.685c-3.183,19.07-3.106,28.124,1.164,32.646,1.674,1.773,20.22,8.15,42.021-5.9l-3.013-4.244L69.316,236.5,66.757,210.4Z" transform="translate(-33.199 -125.531)" fill="#e8ebef"/>
              <g id="Group_3297" data-name="Group 3297" transform="translate(36.117 110.966)" opacity="0.1">
                <g id="Group_3296" data-name="Group 3296">
                  <g id="Group_3295" data-name="Group 3295" clip-path="url(#clip-path-6)">
                    <path id="Path_6087" data-name="Path 6087" d="M125.61,312.972l-24.83-3.338s10,9.246,10.909,15.05c4.75-1.161,10.458-3.53,17.128-6.748Z" transform="translate(-100.78 -309.634)"/>
                  </g>
                </g>
              </g>
              <path id="Path_6088" data-name="Path 6088" d="M116.136,301.251c-13.17-6.379-15.357,1.391-15.357,1.391,4.024,2.827,7.817,5.234,11.374,7.29a68.827,68.827,0,0,0,3.983-8.681" transform="translate(-64.662 -191.676)" fill="#faa284"/>
              <path id="Path_6089" data-name="Path 6089" d="M174.047,197.784c-9.288,2.4-12.774,42.019-12.774,42.019l-26.481-4.726a11.308,11.308,0,0,0-4.705,10.317c22.007,11.77,38.432,9.806,38.432,9.806s9.889-1.062,11.372-25.479c1.846-30.407-5.843-31.936-5.843-31.936" transform="translate(-83.446 -126.902)" fill="#e8ebef"/>
              <path id="Path_6090" data-name="Path 6090" d="M192.6,295.824s8.353-5.479,10-5.841,7.726-2.486,7.726-2.486a1.383,1.383,0,0,1-.269,1.881c-.986.986-4.689,1.882-4.689,1.882s4.331.538,6.033,1.523a1.251,1.251,0,0,1-1.224,1.852s2.21,1.433-.478,1.978a13.846,13.846,0,0,0-3.673-.425l3.4,2.539s.179.776-1.314.717-3.644-3.076-6.712-2.079Z" transform="translate(-123.574 -184.464)" fill="#faa284"/>
            </g>
          </g>
        </g>
      </g>
    </g>
  </g>
</svg>
