<svg id="Component_70_25" data-name="Component 70 – 25" xmlns="http://www.w3.org/2000/svg" width="16" height="16" viewBox="0 0 16 16">
  <path id="Polygon_10" data-name="Polygon 10" d="M9.356.267a.5.5,0,0,1,.69.157l.7,1.113a.5.5,0,0,0,.475.232L12.5,1.636a.5.5,0,0,1,.548.437l.161,1.335a.5.5,0,0,0,.322.409l1.226.455a.5.5,0,0,1,.3.625l-.424,1.287a.5.5,0,0,0,.113.5l.924.969a.5.5,0,0,1,0,.69l-.924.969a.5.5,0,0,0-.113.5l.424,1.287a.5.5,0,0,1-.3.625l-1.226.455a.5.5,0,0,0-.322.409l-.161,1.335a.5.5,0,0,1-.548.437l-1.278-.133a.5.5,0,0,0-.475.232l-.7,1.113a.5.5,0,0,1-.69.157l-1.09-.686a.5.5,0,0,0-.533,0l-1.09.686a.5.5,0,0,1-.69-.157l-.7-1.113a.5.5,0,0,0-.475-.232L3.5,14.364a.5.5,0,0,1-.548-.437l-.161-1.335a.5.5,0,0,0-.322-.409l-1.226-.455a.5.5,0,0,1-.3-.625l.424-1.287a.5.5,0,0,0-.113-.5L.329,8.345a.5.5,0,0,1,0-.69l.924-.969a.5.5,0,0,0,.113-.5L.943,4.9a.5.5,0,0,1,.3-.625L2.47,3.817a.5.5,0,0,0,.322-.409l.161-1.335A.5.5,0,0,1,3.5,1.636l1.278.133a.5.5,0,0,0,.475-.232l.7-1.113a.5.5,0,0,1,.69-.157l1.09.686a.5.5,0,0,0,.533,0Z" fill="#12ba9b"/>
  <path id="Path_5595" data-name="Path 5595" d="M-11661.333,362.644l1.278-1.1,1.687,1.892,4.729-3.937,1,1.15-6.008,5.036Z" transform="translate(11665.22 -354.57)" fill="#fff"/>
</svg>
