<svg xmlns="http://www.w3.org/2000/svg" xmlns:xlink="http://www.w3.org/1999/xlink" width="106.751" height="140.471" viewBox="0 0 106.751 140.471">
  <defs>
    <clipPath id="clip-path">
      <rect id="Rectangle_2346" data-name="Rectangle 2346" width="104.347" height="138.671" rx="52.173" transform="translate(0 0)" fill="#fff" stroke="#707070" stroke-width="1"/>
    </clipPath>
    <clipPath id="clip-path-2">
      <rect id="Rectangle_2345" data-name="Rectangle 2345" width="87.917" height="191.198" fill="none"/>
    </clipPath>
    <clipPath id="clip-path-3">
      <rect id="Rectangle_2337" data-name="Rectangle 2337" width="87.917" height="191.197" fill="none"/>
    </clipPath>
    <clipPath id="clip-path-4">
      <rect id="Rectangle_2336" data-name="Rectangle 2336" width="27.485" height="12.596" fill="none"/>
    </clipPath>
    <clipPath id="clip-path-5">
      <path id="Path_6014" data-name="Path 6014" d="M5.844,5.343A16.9,16.9,0,0,0,0,18.265,19.072,19.072,0,0,0,2.421,27.88L5.111,42.955q2.314,3.758,9.522,9.685a25.525,25.525,0,0,0,10.3,0l9.394-8.335q2.258-10.628,2.328-15.727a17.389,17.389,0,0,0,3.294-10.314A16.9,16.9,0,0,0,34.108,5.343,20.225,20.225,0,0,0,19.976,0,20.225,20.225,0,0,0,5.844,5.343" fill="none"/>
    </clipPath>
    <radialGradient id="radial-gradient" cx="0.485" cy="0.631" r="0.346" gradientUnits="objectBoundingBox">
      <stop offset="0" stop-color="#ffb880"/>
      <stop offset="0.769" stop-color="#fcb276"/>
      <stop offset="1" stop-color="#fa9747"/>
    </radialGradient>
    <clipPath id="clip-path-7">
      <path id="Path_6016" data-name="Path 6016" d="M.171,10.151a4.248,4.248,0,0,0,2.014-.71L.264,0A57.46,57.46,0,0,0,.171,10.151" fill="none"/>
    </clipPath>
    <linearGradient id="linear-gradient" x1="-12.584" y1="15.653" x2="-12.548" y2="15.653" gradientUnits="objectBoundingBox">
      <stop offset="0" stop-color="#f7c196"/>
      <stop offset="0.024" stop-color="#f7c196"/>
      <stop offset="0.114" stop-color="#f3ccae"/>
      <stop offset="0.29" stop-color="#f7c196"/>
      <stop offset="1" stop-color="#fdb57c"/>
    </linearGradient>
    <clipPath id="clip-path-9">
      <path id="Path_6042" data-name="Path 6042" d="M33.782,2.4,31.827,16.286l-5.495,5.46V14.318a14.851,14.851,0,0,0-7.963-1.839V14.12q6.748-.812,6.484,2.643l-.384,4.843a7.078,7.078,0,0,1-6.228,1.746L18.987,19a4.912,4.912,0,0,1-2.619.035l.5,4.319a7.078,7.078,0,0,1-6.228-1.746V15.063q1.781-1.083,6.1-.826V12.561A9.251,9.251,0,0,0,9.429,14.6l-.652,7.148-5.495-5.46L1.327,2.4V0L0,1.781.524,3.725l1.42,13.4L12.06,27.95a18.8,18.8,0,0,0,10.989,0L33.165,17.124l1.42-13.4.524-1.944L33.782,0Z" fill="none"/>
    </clipPath>
    <radialGradient id="radial-gradient-2" cx="0.49" cy="0.813" r="0.591" gradientUnits="objectBoundingBox">
      <stop offset="0" stop-color="#630"/>
      <stop offset="1" stop-color="#381c00"/>
    </radialGradient>
    <clipPath id="clip-path-11">
      <rect id="Rectangle_2343" data-name="Rectangle 2343" width="28.684" height="8.254" fill="none"/>
    </clipPath>
  </defs>
  <g id="Group_3286" data-name="Group 3286" transform="translate(-1033.249 -1968.029)">
    <ellipse id="Ellipse_80" data-name="Ellipse 80" cx="52.517" cy="52.517" rx="52.517" ry="52.517" transform="translate(1034.451 2002.555)" fill="#12ba9b"/>
    <g id="Mask_Group_36" data-name="Mask Group 36" transform="matrix(1, -0.017, 0.017, 1, 1033.249, 1969.85)" clip-path="url(#clip-path)">
      <g id="Group_3285" data-name="Group 3285" transform="translate(6.709 3.502)">
        <g id="Group_3284" data-name="Group 3284" clip-path="url(#clip-path-2)">
          <g id="Group_3268" data-name="Group 3268" transform="translate(0 0)">
            <g id="Group_3267" data-name="Group 3267" clip-path="url(#clip-path-3)">
              <path id="Path_5989" data-name="Path 5989" d="M.166,27.55.632,32.6H65.376A154.042,154.042,0,0,0,62.818,0,134.383,134.383,0,0,1,2.465.178Q-.641,18.959.166,27.55" transform="translate(12.255 158.6)" fill="#1a191e"/>
              <path id="Path_5990" data-name="Path 5990" d="M9.325,6.577,1.478,0Q1.518,6.776,0,7.369A36.408,36.408,0,0,0,10.116,20.442Q22,16.321,27.822,6.275q-2-.838-2.584-5.937a49.193,49.193,0,0,0-8.184,6.24,16.52,16.52,0,0,1-7.73,0" transform="translate(29.986 55.852)" fill="#fea55c"/>
              <path id="Path_5991" data-name="Path 5991" d="M1,14.633,8.847,21.21a16.52,16.52,0,0,0,7.73,0,49.19,49.19,0,0,1,8.184-6.24A78.118,78.118,0,0,1,25.086,0,203.54,203.54,0,0,1,0,.128q.985,9.17,1,14.5" transform="translate(30.463 41.219)" fill="#e27921"/>
              <path id="Path_5992" data-name="Path 5992" d="M37.88,0q-10.268,9.92-20.8,9.779a377.253,377.253,0,0,0-3.062,50.184Q23.293,32.518,37.88,0m-20.8,9.779Q8.624,9.671,0,3.085,8.335,32.2,13.76,60.743q.131-.389.256-.78A377.253,377.253,0,0,1,17.077,9.779" transform="translate(23.06 63.069)" fill="#ccc"/>
              <path id="Path_5993" data-name="Path 5993" d="M3.259.009q-.023-.023-.023.012L1.187,16.935l-.64,8.1-.5,11.408L0,44.431l.186,5.774.023.012.012-.023,1.024-25.11L3.271.032c.016-.015.012-.023-.012-.023" transform="translate(36.877 72.827)" fill="#069"/>
              <path id="Path_5994" data-name="Path 5994" d="M62.138,4.121V2.654q-24.6,8.181-56.715,1.909l.209-1.292q29.4,5.256,56.191-2.1V0a128.225,128.225,0,0,1-56.8,2.084Q2.8,1.693.557,1.222A6.56,6.56,0,0,0,.091,4.936q35.316,8.9,62.047-.815" transform="translate(13.609 157.827)" fill="#4f2800"/>
              <path id="Path_5995" data-name="Path 5995" d="M56.715,1.478,56.4,0Q29.605,7.351.209,2.1L0,3.387Q32.111,9.659,56.715,1.478" transform="translate(19.032 159.003)" fill="#630"/>
              <path id="Path_5996" data-name="Path 5996" d="M2.107,2.107a1.189,1.189,0,0,0,.361-.873A1.189,1.189,0,0,0,2.107.361,1.189,1.189,0,0,0,1.234,0,1.189,1.189,0,0,0,.361.361,1.189,1.189,0,0,0,0,1.234a1.189,1.189,0,0,0,.361.873,1.19,1.19,0,0,0,.873.361,1.19,1.19,0,0,0,.873-.361" transform="translate(44.141 163.427)" fill="#341a00"/>
              <path id="Path_5997" data-name="Path 5997" d="M2.759,2.183a.918.918,0,0,0-.605-1.164A.924.924,0,0,0,.99,1.612a20.114,20.114,0,0,0-.978,6.95A.905.905,0,0,0,.3,9.214a.891.891,0,0,0,.664.256.886.886,0,0,0,.652-.3A.869.869,0,0,0,1.875,8.5a18.321,18.321,0,0,1,.885-6.321M15.82,4.22a.882.882,0,0,0-.058-.71.884.884,0,0,0-.535-.466.909.909,0,0,0-.71.047.925.925,0,0,0-.466.547,14.938,14.938,0,0,0-.745,6.6.921.921,0,0,0,.361.617.927.927,0,0,0,1.49-.85A13.237,13.237,0,0,1,15.82,4.22M41.652,3.091a.93.93,0,0,0-1.7-.268.888.888,0,0,0-.116.7,25.691,25.691,0,0,1,.617,6.8.89.89,0,0,0,.244.664.913.913,0,0,0,.652.3.868.868,0,0,0,.664-.256.887.887,0,0,0,.3-.652,27.376,27.376,0,0,0-.663-7.287m11.99,5.448a.922.922,0,0,0,1.036-.8A11.1,11.1,0,0,0,53.3.46.927.927,0,0,0,52.024.134.927.927,0,0,0,51.7,1.414,9.374,9.374,0,0,1,52.827,7.5a.921.921,0,0,0,.2.687.875.875,0,0,0,.617.349" transform="translate(18.368 156.855)" fill="#1a191e"/>
              <path id="Path_5998" data-name="Path 5998" d="M11,3.981V1.536A1.358,1.358,0,0,0,9.465,0H3.028A1.358,1.358,0,0,0,1.491,1.536V2.06L.734,2.026A.712.712,0,0,0,.222,2.2.7.7,0,0,0,0,2.689a.672.672,0,0,0,.175.5.685.685,0,0,0,.489.233l.827.035v.524A1.358,1.358,0,0,0,3.028,5.518H9.465A1.358,1.358,0,0,0,11,3.981M5.03,3.609a.663.663,0,0,0,.5-.186.67.67,0,0,0,.233-.489.7.7,0,0,0-.675-.722l-2.2-.093V1.536a.124.124,0,0,1,.14-.14H9.465a.123.123,0,0,1,.14.14V3.981a.123.123,0,0,1-.14.14H3.028a.123.123,0,0,1-.14-.14V3.516Z" transform="translate(39.856 161.715)" fill="#999"/>
              <path id="Path_5999" data-name="Path 5999" d="M36.984,10.046q-4.022,1.87-18.7-8.1L0,11.234A234.307,234.307,0,0,1,10.337,55.877Q12.208,70.431,8.254,89.45q-1.2,5.782,2.317,6.589t16.519,2.445q10.755,1.353,29.545-.466A52.172,52.172,0,0,0,71.569,93.71a1.514,1.514,0,0,0,.454-.9,12.691,12.691,0,0,0-1.059-5.064q-1.793-6.776-3.585-17.59-1.024-9.359,2.6-23.6Q73.781,31.617,82.6,11.979L56.587,0q-15.581,8.177-19.6,10.046" transform="translate(5.109 64.303)" fill="#ccc"/>
              <path id="Path_6000" data-name="Path 6000" d="M.547,0,.524.012,0,26.9.64,62.256,1.7,82.116c0,.023.008.027.023.012q.035,0,.012-.023L.675,48.729.559.023C.567.008.563,0,.547,0" transform="translate(40.067 79.134)" fill="#a1a0a0"/>
              <path id="Path_6001" data-name="Path 6001" d="M.873,48.834q1.068,2.619,2.386,5.18L15.517,43.933q-.039-3.56-.175-7.38Zm3.213,6.752A72.881,72.881,0,0,0,9.1,63.432l6.426-16.949q0-.3,0-.605L4.086,55.586M.826,39.905Q.382,43.295,0,46.564q.1.263.186.524L15.273,34.679q-.131-3.279-.338-6.752L.826,39.905M13.212,6.111,5.1,12.991q-.48,2.637-.931,5.2l9.464-7.625q-.2-2.2-.419-4.458m-.175-1.735Q12.822,2.216,12.584,0H11.478L6.787,3.981q-.625,3.243-1.211,6.4l7.462-6.007M7.578,0Q7.442.681,7.3,1.362L9,0H7.578m6.67,17.764q-.213-2.707-.466-5.518L3.725,20.779Q3.19,23.97,2.7,27.065l11.548-9.3m.582,8.312q-.2-3.235-.454-6.635L2.293,29.7q-.6,3.878-1.118,7.613Z" transform="translate(29.835 81.055)" fill="#06c"/>
              <path id="Path_6002" data-name="Path 6002" d="M3.073,62.07q.4.789.827,1.572l11.443-9.709q0-.961-.012-1.944ZM0,55.144q.333.877.687,1.746l14.47-12.281q-.032-.927-.07-1.874L0,55.144m5.39-36.7q-.242,1.316-.477,2.608l8.114-6.88q-.085-.862-.175-1.734L5.39,18.439M5.157,5.006a6.8,6.8,0,0,0,.815,1.525l7.543-6.4Q12.438.04,11.373,0L5.157,5.006m9.592,30.977q-.047-.913-.1-1.851L.99,45.365q-.173,1.308-.349,2.6L14.749,35.982M14.191,27.5q-.063-.833-.128-1.676l-11.548,9.3q-.207,1.323-.407,2.631L14.191,27.5M13.6,20.3q-.068-.827-.151-1.676L3.981,26.25q-.219,1.3-.442,2.584L13.6,20.3M14.784,5.087a6.588,6.588,0,0,0,.885-2.561L8.812,8.056l-1.7,1.362Q6.86,10.732,6.6,12.037l4.691-3.981Z" transform="translate(30.021 72.999)" fill="#4c8ccb"/>
              <path id="Path_6003" data-name="Path 6003" d="M6.573,8.075H7.679a13.225,13.225,0,0,0,2.386-2.968ZM6.655.02a36.4,36.4,0,0,0-6.4.349A8.041,8.041,0,0,0,.438,5.025L6.655.02m4.1.349Q9.768.236,8.8.148L1.253,6.55a8.116,8.116,0,0,0,1.42,1.525h1.42l6.857-5.53a5.19,5.19,0,0,0-.2-2.177" transform="translate(34.74 72.98)" fill="#015db8"/>
              <path id="Path_6004" data-name="Path 6004" d="M4.237,22.851a1.422,1.422,0,0,0,.093-.116A41.763,41.763,0,0,1,17.322,12.712L7.963,1.036,0,5.914Zm27.578,1.083.4.454,6.95-20.15Q37.566,1.921,33.235,0L17.322,12.712q.312.161.617.326h.012l.012.012A50.264,50.264,0,0,1,31.815,23.934" transform="translate(22.908 60.252)" fill="#eae8e8"/>
              <g id="Group_3266" data-name="Group 3266" transform="translate(27.239 72.964)" opacity="0.298">
                <g id="Group_3265" data-name="Group 3265">
                  <g id="Group_3264" data-name="Group 3264" clip-path="url(#clip-path-4)">
                    <path id="Path_6005" data-name="Path 6005" d="M13.608.326Q13.3.161,12.991,0A41.76,41.76,0,0,0,0,10.023l.687,2.34A42.725,42.725,0,0,1,13.608.326M27.485,12.6V11.222A50.268,50.268,0,0,0,13.632.337Q20.567,7,27.485,12.6" transform="translate(0 0)"/>
                  </g>
                </g>
              </g>
              <path id="Path_6006" data-name="Path 6006" d="M15.8,5.378A17.433,17.433,0,0,0,21.862,1.77L21.757,0a22.386,22.386,0,0,1-8.3,4.47Q5.942,6.6,0,.594,7.306,8.434,15.8,5.378M36.611,2.34A45.3,45.3,0,0,0,43.526,4.33Q53.438,6.467,59.7,2.363q.741-.48,1.409-.908A27.361,27.361,0,0,1,41.745,3.062a32.731,32.731,0,0,1-5.18-1.828Z" transform="translate(11.221 176.814)" fill="#3e3d3d"/>
              <path id="Path_6007" data-name="Path 6007" d="M23.387,30.418l-7.8-27.461L0,11.234q.171.5.338,1a234.623,234.623,0,0,1,10,43.642,83.663,83.663,0,0,1,.652,9.266q.047,1.4.046,2.829A130.152,130.152,0,0,1,9.359,88.041a222.609,222.609,0,0,1-5.192,22.782q.121.159.244.314.03.038.058.07l1.641,1.9q5.942,6.006,13.457,3.876a22.391,22.391,0,0,0,8.3-4.47,334.772,334.772,0,0,0-4.482-82.092m58.8-17.5q.207-.47.419-.943L62,0,40.185,43.339q-3.655,39.514,2.491,70.4a32.715,32.715,0,0,0,5.18,1.828,27.362,27.362,0,0,0,19.359-1.606,54.3,54.3,0,0,1,5.017-2.98q.406-.283.8-.594.1-.065,1.269-1.059t.431-5.262Q74,99.817,71.8,91.44t-4.214-32.5a97.625,97.625,0,0,1,2.386-12.374A214.588,214.588,0,0,1,82.186,12.922" transform="translate(5.109 64.303)" fill="#1a191e"/>
              <path id="Path_6008" data-name="Path 6008" d="M9,14.47,0,1.595,8.184,13.9,2.3,18.137Q4.665,22.2,6.763,26.6L3.341,18.544Zm44.178,3.143L48.217,12.5,57.728,0,46.867,12.014l5.378,6.03L37.682,37.973Z" transform="translate(14.317 68.028)" fill="#3e3d3d"/>
              <path id="Path_6009" data-name="Path 6009" d="M0,8.812,9,21.687,3.341,25.762l3.422,8.056L11.315,44.5q.067.177.128.349l3.911,11.885,1.024,3.842q1.354,5.19,2.363,10.535.531-43.651-1.874-54.142Q13.4,1.8,12.945,1.816Zm48.159-7.45Q44.923.214,43.922,0,35.835,29.452,32.35,39.3t-2.712,33.06q1.775-19.516,8.044-27.17l14.563-19.93-5.378-6.03L57.728,7.217l.535-.582L58.205,6.6A65.479,65.479,0,0,0,48.159,1.362" transform="translate(14.317 60.811)" fill="#29282e"/>
              <path id="Path_6010" data-name="Path 6010" d="M1.02.012Q.229.163.054,2.142A15.836,15.836,0,0,0,.38,6.752,16.471,16.471,0,0,0,1.8,11.141q.908,1.758,1.688,1.606t.978-2.119a16.063,16.063,0,0,0-.314-4.61A16.182,16.182,0,0,0,2.72,1.63Q1.8-.139,1.02.012m.57,5.343A1.386,1.386,0,0,0,1.917,4.2a1.386,1.386,0,0,1-.326,1.152,1.285,1.285,0,0,0-.256.407.5.5,0,0,0,.081.245,1.876,1.876,0,0,0,.14.244q.256.279.71.9a3.541,3.541,0,0,0,.361.361,3.657,3.657,0,0,1,.314.372,1,1,0,0,1,.256.931.521.521,0,0,1-.186.268.348.348,0,0,1-.3.023,1.523,1.523,0,0,1-.792-.768,1.523,1.523,0,0,0,.792.768.348.348,0,0,0,.3-.023A.521.521,0,0,0,3.2,8.812a1,1,0,0,0-.256-.931,3.657,3.657,0,0,0-.314-.372,3.541,3.541,0,0,1-.361-.361q-.454-.617-.71-.9a1.876,1.876,0,0,1-.14-.244.5.5,0,0,1-.081-.245,1.285,1.285,0,0,1,.256-.407" transform="translate(21.835 27.405)" fill="#fca056"/>
              <path id="Path_6011" data-name="Path 6011" d="M.745.033V.114L.733.137v.1L.687.44V.463L.629.638.535.813.5.847.466.917.442.929.419.975.128,1.3l-.093.163L0,1.546v.14l.023.093.058.128.012.047.023.035.1.2L.233,2.2l.012.023.64.838.035.035v.012l.012.012.012.023L1,3.2l.012.023.023.012.559.582.012.023.023.023.046.07.012.012.012.023L1.734,4l.128.279.012.151-.012.151.012-.023-.023.07-.023.035-.012.023V4.7L1.8,4.712v.012l-.023.023v.012H1.769l-.012.012H1.746l-.012.012H1.723v.012H1.7l-.046.012-.012-.012H1.595L1.56,4.782H1.548L1.537,4.77H1.513l-.035-.012-.012-.012H1.455l-.1-.058-.035-.012-.046-.047L1.211,4.6.873,4.258.78,4.142H.745v.035l.116.256.256.361.081.082.035.023.058.058.035.023H1.35l.012.012.07.047h.023l.023.012.035.012H1.5l.023.012.035.012h.023l.023.012.058.012h.093L1.781,5.1h.035l.023-.012.035-.012H1.9l.023-.012.012-.012h.023V5.038h.012V5.027h.012L2.014,5l.047-.047.012-.023L2.107,4.9l.012-.023.058-.082L2.2,4.747l.012-.035L2.223,4.7V4.689l.047-.233V4.27L2.2,3.979,2.06,3.7l-.023-.023L2.014,3.63l-.035-.046-.012-.012-.012-.023-.023-.023L1.921,3.5,1.35,2.9l-.012-.023-.012-.012H1.315V2.85H1.3V2.838H1.292V2.826L.466,1.8.384,1.651.373,1.616V1.6L.361,1.592l.012-.023.209-.338.023-.023.081-.151L.7,1.022.733.975.757.917V.894L.768.859.792.813.85.521V.347L.838.3V.242L.815.126.8.1V.079L.78.021C.78,0,.772-.006.757.009Z" transform="translate(22.983 31.575)" fill="#bf7334"/>
              <path id="Path_6012" data-name="Path 6012" d="M4.473,2.142Q4.287.163,3.507.012T1.8,1.63A16.476,16.476,0,0,0,.376,6.019a16.4,16.4,0,0,0-.326,4.61q.2,1.967.978,2.119t1.7-1.606a16.473,16.473,0,0,0,1.42-4.389,16.4,16.4,0,0,0,.326-4.61m-2.13,3.4a1.174,1.174,0,0,1,.093-.547A1.223,1.223,0,0,1,3.03,4.54a1.1,1.1,0,0,0,.57-.466,1.1,1.1,0,0,1-.57.466,1.223,1.223,0,0,0-.594.454,1.174,1.174,0,0,0-.093.547q.047,1.187.047,1.444a8.564,8.564,0,0,1-.082,1.409,1.352,1.352,0,0,1-.186.559.694.694,0,0,1-.244.14.289.289,0,0,1-.268-.058l-.175-.221L.9,7.555l.535,1.257.175.221a.289.289,0,0,0,.268.058.694.694,0,0,0,.244-.14,1.352,1.352,0,0,0,.186-.559,8.564,8.564,0,0,0,.082-1.409q0-.256-.047-1.444" transform="translate(57.566 27.405)" fill="#fcb276"/>
              <path id="Path_6013" data-name="Path 6013" d="M2.71.021l-.093.1L2.442.254,2.314.312,2.279.324,2.2.37,2.012.428,1.7.591,1.662.626,1.616.65,1.592.673,1.569.685,1.534.731,1.511.743,1.488.766l-.07.1V.859l-.07.151L1.29,1.3V1.36l-.012.035L1.255,3.921l-.035.361V4.34l-.058.279-.035.093-.035.047v.012l-.012.023-.14.07H.929l-.012.012H.882V4.864H.859L.847,4.852.7,4.677.708,4.7.684,4.666.7,4.677.044,3.5c0-.023-.008-.027-.023-.012C0,3.49-.006,3.5.009,3.513L.172,4.1l.035.081.21.652.012.012.012.023L.6,5.1l.058.058L.743,5.2l.116.035H1l.047-.012h.023l.163-.07a.577.577,0,0,0,.151-.1l.023-.012V5.027a.539.539,0,0,0,.093-.14l.058-.14.093-.338V4.375l.012-.035.093-1.152-.081-1.63-.012-.07V1.208l.047-.175V1.022L1.744.964V.952L1.755.929,1.79.894,1.814.882,1.825.859,1.837.848,1.872.824,1.907.789,2.524.359l.07-.07L2.687.172,2.71.126,2.745.033C2.76.017,2.757.009,2.733.009,2.718-.006,2.71,0,2.71.021" transform="translate(58.432 31.447)" fill="#bf7334"/>
            </g>
          </g>
          <g id="Group_3270" data-name="Group 3270" transform="translate(21.959 3.239)">
            <g id="Group_3269" data-name="Group 3269" clip-path="url(#clip-path-5)">
              <rect id="Rectangle_2338" data-name="Rectangle 2338" width="39.952" height="53.341" transform="translate(0 0)" fill="url(#radial-gradient)"/>
            </g>
          </g>
          <g id="Group_3272" data-name="Group 3272" transform="translate(0 0)">
            <g id="Group_3271" data-name="Group 3271" clip-path="url(#clip-path-3)">
              <path id="Path_6015" data-name="Path 6015" d="M16.46.272A18.241,18.241,0,0,0,11.792.063Q14.477.18,16.46.272M24.889,25.8,26.6,22.484H17.1a3.567,3.567,0,0,0,.081,3.737q4.354-1.964,7.706-.419M11.14,23.694l-3.4-2.119L2.4,21.424,0,23.007,1.118,26.5q1.371-.381,2.584-.594,4.84-.859,7.1.943l-.547,7.613,1.735.407Z" transform="translate(28.163 4.91)" fill="#fca056"/>
            </g>
          </g>
          <g id="Group_3274" data-name="Group 3274" transform="translate(41.822 29.629)">
            <g id="Group_3273" data-name="Group 3273" clip-path="url(#clip-path-7)">
              <rect id="Rectangle_2340" data-name="Rectangle 2340" width="3.277" height="10.328" transform="translate(-1.098 0.102) rotate(-5.756)" fill="url(#linear-gradient)"/>
            </g>
          </g>
          <g id="Group_3276" data-name="Group 3276" transform="translate(0 0)">
            <g id="Group_3275" data-name="Group 3275" clip-path="url(#clip-path-3)">
              <path id="Path_6017" data-name="Path 6017" d="M9.837,0H8.707A12.587,12.587,0,0,1,0,1.56L.07,4.319l5.96,7.229,2.538-2.77Z" transform="translate(46.265 32.784)" fill="#fcb276"/>
              <path id="Path_6018" data-name="Path 6018" d="M38.706,15.369l.012-.023.023.011.082.14.1.233.035.058.489,1.187.454,1.5q.174.7.256,1.176l.268.7q1.275,3.23,1.525,1.432t.5-2.968a32.659,32.659,0,0,0-1.071-5.529q-.442-2.969-4.109-5.949,1.036-.14,3.19,1.234Q32.525-.149,24.469,0q-5.821.116-8.556,1.478A4.848,4.848,0,0,0,14.26,2.715q-.157-.1-.314-.186Q10.5.67,6.787,4.054q2.806-1.222,2.468.093Q1.56,8.326,0,17.906a1.517,1.517,0,0,0,.314.559,2.161,2.161,0,0,0,1.222.617,7.945,7.945,0,0,0,1.443.047,10.95,10.95,0,0,0,1.4-.151,3.289,3.289,0,0,0,1.269-.489A3.735,3.735,0,0,0,7.054,16.6a36.912,36.912,0,0,0,1.152-4.1,9.9,9.9,0,0,1,1.607-3.8,5.5,5.5,0,0,1,2.7-1.9.459.459,0,0,0,.093-.035A15.659,15.659,0,0,1,13.69,4.112q.113-.185.2-.349a19.887,19.887,0,0,0-.757,3.609q-1.177,9.675,10.442,6.763Q36.08,11.05,38.834,21.108L39.882,24.6a36.066,36.066,0,0,0-1.176-9.231M29.126,4.391l-.058-.023-2.049-.442h-.035l-.035-.012-2.142-.279h-.058l-.186-.023q-.7-.047-.966-.058H23.48l-.046-.012h-.058a1.5,1.5,0,0,1-.221-.012L20.9,3.507l-.023-.012.012-.023.722-.326.3-.1,1.525-.361.128-.012q.314-.046,1.013-.093l1.525.047.7.093h.035l.012.012h.035l.268.047.035.011h.035l.279.058.07.023.07.011.815.221.314.117.07.011.128.047,1.362.628,1.222.792.652.582V5.3c0,.023-.008.027-.023.012h-.012l-.733-.244-.07-.012L31.28,5.02l-1.688-.512-.117-.023-.058-.023-.291-.07M25.319,12.1,27.193,12l1.036.163.221.081a.78.78,0,0,1,.186.07l.012.023c0,.023-.008.027-.023.012h-.559l-.081.012H27.9l-.082.012h-.046l-.047.012-.629.093h-.058l-1.187.291-.07.012-3.027.92-1.281.244-.838.07L19.929,14l-.035-.012h-.023l-.128-.012-.058-.012h-.023l-.035-.012-.093-.012-.047-.012h-.023l-.012-.012h-.046l-.314-.093-.058-.012-.046-.023-.209-.07-.093-.046-.1-.035-.85-.466-.081-.07-.023-.012-.012-.012H17.6l-.035-.035-.047-.023v-.012H17.5v-.012l-.023-.011-.081-.07a.23.23,0,0,0-.081-.058l-.07-.07-.047-.035-.326-.326-.535-.7-.128-.233-.011-.012-.023-.035-.012-.023v-.012l-.058-.1-.2-.489-.233-1.036-.012-.221-.012-.035.035-.861.256-.978.1-.221.023-.012c.023,0,.027.008.012.023v.046l-.012.058v.14l-.011.046L16.123,9l.058.291.012.035V9.35l.035.093v.035l.175.5a4.076,4.076,0,0,0,.233.524l.268.454.012.023.035.023.012.023.012.012.372.454a4.426,4.426,0,0,0,.489.431l.07.046.058.058.14.093.023.012h.012l.035.035.035.023h.012l.023.023.768.373a5.176,5.176,0,0,0,.664.2H19.7l.047.012.093.012.023.012h.058l.07.012h.047l.046.012h.163l.093.012H20.6l.093-.012h.093l1.013-.093Z" transform="translate(20.352 0)" fill="#5b3208"/>
              <path id="Path_6019" data-name="Path 6019" d="M11.548,4.552l-1.874.093L6.158,5.3,5.145,5.39H5.052L4.959,5.4H4.691L4.6,5.39H4.435l-.047-.012H4.342l-.07-.012H4.214l-.023-.012L4.1,5.343l-.047-.012H4.028a5.171,5.171,0,0,1-.663-.2L2.6,4.761l-.023-.023H2.561l-.035-.023L2.491,4.68H2.48l-.023-.012-.14-.093-.058-.058-.07-.047A4.429,4.429,0,0,1,1.7,4.04l-.373-.454-.012-.012L1.3,3.551l-.035-.023L1.257,3.5.989,3.05a4.064,4.064,0,0,1-.233-.524l-.175-.5V1.991L.547,1.9V1.874L.535,1.839.477,1.548.407.314.419.268V.128L.431.07V.023C.446.008.442,0,.419,0L.4.012l-.1.221-.256.978L0,2.072l.012.035.012.221L.256,3.364l.2.489.058.1V3.97l.012.023.023.035.012.012.128.233.536.7.326.326.047.035.07.07a.227.227,0,0,1,.081.058l.081.07.023.012v.012h.023v.012l.047.023.035.035h.012l.012.012L2,5.646l.082.07.85.466.1.035.093.047.21.07.046.023.058.012.314.093h.047l.012.012h.023l.047.012.093.012.035.012h.023l.058.012.128.012h.023l.035.012.71.023.838-.07,1.281-.244,3.027-.92.07-.012L11.4,5.029h.058l.629-.093.047-.012h.047l.082-.012h.081l.081-.012h.559c.016.015.023.012.023-.012l-.012-.023a.794.794,0,0,0-.186-.07l-.221-.081Z" transform="translate(35.998 7.453)" fill="#9c571e"/>
              <path id="Path_6020" data-name="Path 6020" d="M8.2,1.793l.058.023.291.07.058.023.116.023,1.688.512.081.035.07.012.733.244H11.3c.015.015.023.012.023-.012V2.7l-.652-.582L9.453,1.327,8.09.7,7.963.652,7.893.64,7.578.524,6.763.3,6.694.291,6.624.268,6.344.21H6.309L6.275.2,6.007.151H5.972L5.96.14H5.925l-.7-.093L3.7,0Q3,.047,2.689.093L2.561.1,1.036.466l-.3.1L.012.9,0,.92.023.931,2.282.955A1.522,1.522,0,0,0,2.5.966h.058l.047.012h.116q.268.012.966.058l.186.023h.058l2.142.279.035.012h.035Z" transform="translate(41.225 2.575)" fill="#7b400c"/>
              <path id="Path_6021" data-name="Path 6021" d="M38.986,11.583l-.012.023a36.077,36.077,0,0,1,1.176,9.231L39.1,17.345Q36.348,7.287,23.841,10.372,12.223,13.284,13.4,3.609A19.9,19.9,0,0,1,14.156,0q-.085.164-.2.349a15.676,15.676,0,0,0-1.083,2.666.449.449,0,0,1-.093.035,5.5,5.5,0,0,0-2.7,1.9,9.9,9.9,0,0,0-1.606,3.8,36.908,36.908,0,0,1-1.152,4.1,3.735,3.735,0,0,1-1.409,1.886,3.29,3.29,0,0,1-1.269.489,10.949,10.949,0,0,1-1.4.151A7.933,7.933,0,0,1,1.8,15.32,2.162,2.162,0,0,1,.582,14.7a1.518,1.518,0,0,1-.314-.559,26.27,26.27,0,0,0-.1,6.752q1.4,5.556,2.805,7.124a7.32,7.32,0,0,0,2.34,1.944q.069-.794.14-1.606.251-2.65.57-5.506a6.7,6.7,0,0,1,3.236-5.39Q12.083,15.82,12.689,9.6q.1.277.221.535,2.63,5.331,8.94,4.179A13.826,13.826,0,0,1,34.027,17.4q5.18,4.419,3.6,13.271h.955a16.719,16.719,0,0,1,.57-2.084q1.059-3.027,2.712-2.433a30.712,30.712,0,0,0,.861-11.105q-.253,1.181-.5,2.968T40.7,16.589l-.268-.7q-.081-.477-.256-1.176l-.454-1.5-.489-1.187-.035-.058-.1-.233-.081-.14Z" transform="translate(20.084 3.762)" fill="#381c00"/>
              <path id="Path_6022" data-name="Path 6022" d="M5.949,1.426,6.507.157A18.9,18.9,0,0,0,0,.448L.629,1.636a26.136,26.136,0,0,0,5.32-.209" transform="translate(46.265 30.671)" fill="#fff"/>
              <path id="Path_6023" data-name="Path 6023" d="M0,.685l.326.629a18.9,18.9,0,0,1,6.507-.291L7.148.336A12.911,12.911,0,0,0,0,.685" transform="translate(45.939 29.806)" fill="#ccc"/>
              <path id="Path_6024" data-name="Path 6024" d="M2.3,2.3a1.3,1.3,0,0,0,.4-.953A1.313,1.313,0,0,0,2.3.388,1.283,1.283,0,0,0,1.362,0,1.367,1.367,0,0,0,.388.388,1.331,1.331,0,0,0,0,1.352,1.319,1.319,0,0,0,.388,2.3a1.348,1.348,0,0,0,.974.4A1.266,1.266,0,0,0,2.3,2.3" transform="translate(48.279 29.556)" fill="#3a0909"/>
              <path id="Path_6025" data-name="Path 6025" d="M.828.817A.478.478,0,0,0,.964.482.468.468,0,0,0,.828.136.5.5,0,0,0,.471,0,.479.479,0,0,0,.136.136.468.468,0,0,0,0,.482.478.478,0,0,0,.136.817.478.478,0,0,0,.471.953.5.5,0,0,0,.828.817" transform="translate(49.17 30.656)"/>
              <path id="Path_6026" data-name="Path 6026" d="M.587.566a.262.262,0,0,0,.1-.231.394.394,0,0,0-.1-.251A.39.39,0,0,0,.356,0,.374.374,0,0,0,.115.084.375.375,0,0,0,0,.335.253.253,0,0,0,.115.566.35.35,0,0,0,.356.66.365.365,0,0,0,.587.566" transform="translate(50.175 30.708)" fill="#fff"/>
              <path id="Path_6027" data-name="Path 6027" d="M.652.636,0,2.312a12.979,12.979,0,0,1,6.88-.244L5.751.089a11.2,11.2,0,0,0-5.1.547" transform="translate(46.207 28.073)" fill="#fca056"/>
              <path id="Path_6028" data-name="Path 6028" d="M7.148.343A12.978,12.978,0,0,0,.268.587,1.465,1.465,0,0,1,0,.692" transform="translate(45.939 29.798)" fill="none" stroke="#300" stroke-linecap="round" stroke-linejoin="round" stroke-width="2"/>
              <path id="Path_6029" data-name="Path 6029" d="M10.6,2.163Q9.895.335,8.568.126A30.529,30.529,0,0,0,.629.486L0,2.337Q6.81,1.2,10.6,2.163" transform="translate(44.612 25.953)" fill="#3a0909"/>
              <path id="Path_6030" data-name="Path 6030" d="M.617,1.508,0,.122A20.385,20.385,0,0,1,6.589.472L5.937,1.717a26.133,26.133,0,0,1-5.32-.209" transform="translate(29.758 30.589)" fill="#fff"/>
              <path id="Path_6031" data-name="Path 6031" d="M7.148.685l-.3.57A20.383,20.383,0,0,0,.256.906L0,.336A12.91,12.91,0,0,1,7.148.685" transform="translate(29.502 29.806)" fill="#ccc"/>
              <path id="Path_6032" data-name="Path 6032" d="M2.3,2.3a1.3,1.3,0,0,0,.4-.953A1.313,1.313,0,0,0,2.3.388,1.284,1.284,0,0,0,1.362,0,1.367,1.367,0,0,0,.388.388,1.331,1.331,0,0,0,0,1.352,1.318,1.318,0,0,0,.388,2.3a1.348,1.348,0,0,0,.974.4A1.267,1.267,0,0,0,2.3,2.3" transform="translate(31.609 29.556)" fill="#3a0909"/>
              <path id="Path_6033" data-name="Path 6033" d="M.828.817A.479.479,0,0,0,.964.482.468.468,0,0,0,.828.136.5.5,0,0,0,.471,0,.478.478,0,0,0,.136.136.468.468,0,0,0,0,.482.478.478,0,0,0,.136.817.478.478,0,0,0,.471.953.5.5,0,0,0,.828.817" transform="translate(32.5 30.656)"/>
              <path id="Path_6034" data-name="Path 6034" d="M.587.566a.262.262,0,0,0,.1-.231.393.393,0,0,0-.1-.251A.39.39,0,0,0,.356,0,.374.374,0,0,0,.115.084.375.375,0,0,0,0,.335.253.253,0,0,0,.115.566.35.35,0,0,0,.356.66.365.365,0,0,0,.587.566" transform="translate(33.505 30.708)" fill="#fff"/>
              <path id="Path_6035" data-name="Path 6035" d="M6.228.636,6.88,2.312A12.979,12.979,0,0,0,0,2.068L1.129.089a11.2,11.2,0,0,1,5.1.547" transform="translate(29.502 28.073)" fill="#fca056"/>
              <path id="Path_6036" data-name="Path 6036" d="M0,.343A12.978,12.978,0,0,1,6.88.587a1.466,1.466,0,0,0,.268.1" transform="translate(29.502 29.798)" fill="none" stroke="#300" stroke-linecap="round" stroke-linejoin="round" stroke-width="2"/>
              <path id="Path_6037" data-name="Path 6037" d="M0,2.163Q.71.335,2.037.126A30.529,30.529,0,0,1,9.976.486l.629,1.851Q3.795,1.2,0,2.163" transform="translate(27.372 25.953)" fill="#3a0909"/>
              <path id="Path_6038" data-name="Path 6038" d="M3.594.562A17.247,17.247,0,0,1,0,0Q.55,1.516,3.63,1.674,6.674,1.515,7.224,0a17.49,17.49,0,0,1-3.63.562" transform="translate(38.07 44.896)" fill="#fff"/>
              <path id="Path_6039" data-name="Path 6039" d="M2.3.617Q1.156.347,0,0,1.427,3.859,6.836,3.9h.043Q11.859,3.383,13.03,0q-1.17.347-2.3.617-.642,1.6-4.2,1.762Q2.94,2.213,2.3.617" transform="translate(35.203 44.098)" fill="#e98c42"/>
              <path id="Path_6040" data-name="Path 6040" d="M13.632.6a3.753,3.753,0,0,0,.854-.429A12.826,12.826,0,0,1,9.517.051,4.6,4.6,0,0,0,7.306.258,5.227,5.227,0,0,0,4.968.051,12.825,12.825,0,0,1,0,.175,3.751,3.751,0,0,0,.854.6q1.134.373,2.253.664A19.985,19.985,0,0,0,7.222,1.9a20.271,20.271,0,0,0,4.157-.636Q12.484.977,13.632.6" transform="translate(34.457 43.538)" fill="#e5771f"/>
              <path id="Path_6041" data-name="Path 6041" d="M6.123.4,6.659.035A.01.01,0,0,0,6.67.023.015.015,0,0,0,6.67,0H6.647L6.2.14A.465.465,0,0,1,6.03.2L4.552.582l-.07.023L3.329.722,2.48.7,2.107.652H2.072L2.037.64,1.222.489,1.164.466,1.048.442.023.116C.008.1,0,.1,0,.128L.012.151l.128.1.8.454.186.07.058.035.617.2.082.012.1.035h.047l.314.058.081.023h.081l.081.012.035.012h.047q.221.023.664.023l.757-.07.035-.012.361-.07L4.645.989,5.227.815,5.413.733,5.483.71Z" transform="translate(38.373 39.873)" fill="#bf7334"/>
            </g>
          </g>
          <g id="Group_3278" data-name="Group 3278" transform="translate(24.229 29.164)">
            <g id="Group_3277" data-name="Group 3277" clip-path="url(#clip-path-9)">
              <rect id="Rectangle_2342" data-name="Rectangle 2342" width="35.109" height="29.044" transform="translate(0 0)" fill="url(#radial-gradient-2)"/>
            </g>
          </g>
          <g id="Group_3283" data-name="Group 3283" transform="translate(0 0)">
            <g id="Group_3282" data-name="Group 3282" clip-path="url(#clip-path-3)">
              <path id="Path_6043" data-name="Path 6043" d="M36.019,3.371a.323.323,0,0,0-.128-.233L33.26,1a.906.906,0,0,0-.326-.338A6.011,6.011,0,0,0,30.862.135,22.915,22.915,0,0,0,27.02.03q-.314-.023-.64-.023a7.833,7.833,0,0,0-4.668,1.385A4.636,4.636,0,0,0,19.954,3.5a7.107,7.107,0,0,0-3.946-.116,4.779,4.779,0,0,0-1.7-1.991A7.853,7.853,0,0,0,9.628.007Q9.314.007,9,.03a22.917,22.917,0,0,0-3.842.1A6.01,6.01,0,0,0,3.086.658.821.821,0,0,0,2.772,1L.129,3.138A.323.323,0,0,0,0,3.371a.351.351,0,0,0,.081.256.324.324,0,0,0,.233.128.351.351,0,0,0,.256-.081L2.69,1.951q.046.745.163,2.363A4.809,4.809,0,0,0,3,5.338,4.257,4.257,0,0,0,4.96,8.283,7.881,7.881,0,0,0,9.628,9.657a7.9,7.9,0,0,0,4.68-1.374,4.117,4.117,0,0,0,1.979-3.446,4.347,4.347,0,0,0-.07-.78,6.615,6.615,0,0,1,3.562.116,3.564,3.564,0,0,0-.058.652,4.122,4.122,0,0,0,1.991,3.457A7.88,7.88,0,0,0,26.38,9.657a7.9,7.9,0,0,0,4.68-1.374,4.249,4.249,0,0,0,1.967-2.945,5.927,5.927,0,0,0,.14-1.024q.116-1.618.175-2.363l2.107,1.723a.351.351,0,0,0,.256.081.323.323,0,0,0,.233-.128.351.351,0,0,0,.081-.256M9.628.7A7.184,7.184,0,0,1,13.9,1.962a3.954,3.954,0,0,1,1.513,1.863.38.38,0,0,0,.012.093.262.262,0,0,0,.047.093,2.915,2.915,0,0,1,.116.827A3.512,3.512,0,0,1,13.9,7.713,7.231,7.231,0,0,1,9.628,8.958,7.211,7.211,0,0,1,5.368,7.713a3.515,3.515,0,0,1-1.7-2.887,3.5,3.5,0,0,1,1.7-2.864A7.164,7.164,0,0,1,9.628.7M26.38.7a7.184,7.184,0,0,1,4.272,1.257,3.507,3.507,0,0,1,1.7,2.875,3.507,3.507,0,0,1-1.7,2.875A7.231,7.231,0,0,1,26.38,8.958a7.211,7.211,0,0,1-4.261-1.246,3.515,3.515,0,0,1-1.7-2.887,3.5,3.5,0,0,1,1.7-2.864A7.164,7.164,0,0,1,26.38.7" transform="translate(23.18 28.051)" fill="#2e1700"/>
              <g id="Group_3281" data-name="Group 3281" transform="translate(26.848 28.756)" opacity="0.098">
                <g id="Group_3280" data-name="Group 3280">
                  <g id="Group_3279" data-name="Group 3279" clip-path="url(#clip-path-11)">
                    <path id="Path_6044" data-name="Path 6044" d="M26.984,1.257A7.184,7.184,0,0,0,22.712,0a7.164,7.164,0,0,0-4.261,1.257,3.5,3.5,0,0,0-1.7,2.864,3.516,3.516,0,0,0,1.7,2.887,7.212,7.212,0,0,0,4.261,1.246,7.232,7.232,0,0,0,4.272-1.246,3.507,3.507,0,0,0,1.7-2.875,3.507,3.507,0,0,0-1.7-2.875m-16.751,0A7.184,7.184,0,0,0,5.96,0,7.164,7.164,0,0,0,1.7,1.257,3.5,3.5,0,0,0,0,4.121,3.515,3.515,0,0,0,1.7,7.008,7.211,7.211,0,0,0,5.96,8.253a7.232,7.232,0,0,0,4.272-1.246A3.512,3.512,0,0,0,11.92,4.132a2.906,2.906,0,0,0-.117-.826.265.265,0,0,1-.046-.093.385.385,0,0,1-.012-.093,3.953,3.953,0,0,0-1.513-1.863" transform="translate(0 0)" fill="#0cf"/>
                  </g>
                </g>
              </g>
              <path id="Path_6045" data-name="Path 6045" d="M5.05,12.086A33.871,33.871,0,0,1,3.311.248L0,0V10.348Z" transform="translate(23.842 118.071)" fill="#eae8e8"/>
              <path id="Path_6046" data-name="Path 6046" d="M.193,40.4q-.083.662-.166,1.49A33.871,33.871,0,0,0,1.766,53.727a271.391,271.391,0,0,0,45.366,7.864Q60.709,39.074,60.791,0,43.82,11.259,40.509,22.269L37.2,43.875a241.245,241.245,0,0,0-37-3.477" transform="translate(27.126 76.431)" fill="#1a191e"/>
              <path id="Path_6047" data-name="Path 6047" d="M44.538,33.693a1.358,1.358,0,0,1,.083-.414H15.563l.911-6.954A114.869,114.869,0,0,0,5.3,0Q2.07,17.716,0,38.909.414,50.664,6.623,52.816a143.715,143.715,0,0,0,36.508-5.878,68.128,68.128,0,0,1,1.407-13.246" transform="translate(0 75.851)" fill="#1a191e"/>
              <path id="Path_6048" data-name="Path 6048" d="M5.3,1.325V.58L1.407,0A68.143,68.143,0,0,0,0,13.246L5.3,12.5V1.325Z" transform="translate(43.131 109.544)" fill="#eae8e8"/>
              <path id="Path_6049" data-name="Path 6049" d="M7.368,0H0V7.947H10.348a15.033,15.033,0,0,0,4.3-6.043Z" transform="translate(48.429 110.869)" fill="#fea55c"/>
              <path id="Path_6050" data-name="Path 6050" d="M14.984.083,14.653,0a15.03,15.03,0,0,1-4.3,6.043H0V7.616H16.143A18.541,18.541,0,0,0,14.984.083" transform="translate(48.429 112.773)" fill="#e7893b"/>
              <path id="Path_6051" data-name="Path 6051" d="M7.114,2.982,7.141,3l-.068-.041Zm8.126,3.639L8.618,1.149,1.081,0q-.2.666.739,1.176L7.264,2.6l.068.041L14.46,8.3q.055.028,0,.082-.027.068-.1.014L7.114,2.982.151.875H.137q-.567,1,1.2,3.092A3.663,3.663,0,0,0,3.489,6.115L8.536,9.767h9.11L15.239,6.621M1.314,2.695a.065.065,0,1,1,.041-.123L6.361,4.09,12.12,8.536c.037.037.041.068.014.1a.054.054,0,0,1-.082.027L6.088,4.5l-.1-.027L1.314,2.695M6.088,4.5l.055.014-.068-.027Z" transform="translate(4.541 99.615)" fill="#fea55c"/>
              <path id="Path_6052" data-name="Path 6052" d="M1.718.432.091.008Q.008-.02.009.049-.018.127.036.131H.05L7.012,2.237,6.971,2.21l.068.041-.027-.014,7.25,5.417q.068.055.1-.014.055-.055,0-.082L7.231,1.9l-.068-.041ZM1.171,1.868a.066.066,0,0,0,.041.082L5.891,3.729l.1.027-.014-.014.068.027-.055-.014,5.964,4.159a.054.054,0,0,0,.082-.027q.041-.041-.014-.1L6.26,3.345,1.253,1.827a.067.067,0,0,0-.082.041" transform="translate(4.643 100.359)" fill="#cb7229"/>
            </g>
          </g>
        </g>
      </g>
    </g>
  </g>
</svg>
