<svg xmlns="http://www.w3.org/2000/svg" width="16.498" height="17.157" viewBox="0 0 16.498 17.157">
  <path id="Path_5626" data-name="Path 5626" d="M-11537.64-1032.058h4.091s1.233.494,1.269,1.516a1.479,1.479,0,0,1-.986,1.375,1.256,1.256,0,0,1,.352,1.375c-.282.881-.917.811-.917.811a1.42,1.42,0,0,1,.283,1.481c-.317.917-.882.882-.882.882a1.548,1.548,0,0,1,.317,1.3,1.755,1.755,0,0,1-1.022.952h-4.795s-.636-.035-2.081-.282a7.24,7.24,0,0,1-2.187-.67s-.035.6-.493.67-2.257,0-2.257,0a1.8,1.8,0,0,1-1.8-1.975c-.071-2.045,0-6.911,0-6.911a1.789,1.789,0,0,1,1.409-1.763,6.785,6.785,0,0,1,2.469,0l.881.74s3-.67,4.374-5.078,3.1.282,3.1.282a9.8,9.8,0,0,1,0,3.032A5.4,5.4,0,0,1-11537.64-1032.058Z" transform="translate(11548.777 1039.517)" fill="#12ba9b"/>
</svg>
