<svg xmlns="http://www.w3.org/2000/svg" xmlns:xlink="http://www.w3.org/1999/xlink" width="116" height="116" viewBox="0 0 116 116">
  <defs>
    <clipPath id="clip-path">
      <circle id="Ellipse_173" data-name="Ellipse 173" cx="58" cy="58" r="58" fill="#fff" stroke="#707070" stroke-width="1"/>
    </clipPath>
  </defs>
  <g id="Group_3471" data-name="Group 3471" transform="translate(-280 -459)">
    <g id="Group_3470" data-name="Group 3470">
      <g id="Group_3469" data-name="Group 3469">
        <g id="Mask_Group_36" data-name="Mask Group 36" transform="translate(280 459)" clip-path="url(#clip-path)">
          <g id="Group_3462" data-name="Group 3462" transform="translate(-26.852 -25.241)">
            <g id="Group_3466" data-name="Group 3466">
              <path id="Path_5815" data-name="Path 5815" d="M492.368,42.426a42.215,42.215,0,0,0-21.21,5.688L449.936,11.358a84.939,84.939,0,0,1,84.864,0L513.578,48.114a42.215,42.215,0,0,0-21.21-5.688" transform="translate(-407.516)" fill="#c3e128"/>
              <path id="Path_5816" data-name="Path 5816" d="M1124.973,157.227l21.221-36.757a84.816,84.816,0,0,1,42.42,73.494h-42.426a42.4,42.4,0,0,0-21.215-36.737" transform="translate(-1018.911 -109.112)" fill="#11b89b"/>
              <path id="Path_5817" data-name="Path 5817" d="M42.42,120.471l21.221,36.756a42.4,42.4,0,0,0-21.215,36.737H0a84.816,84.816,0,0,1,42.42-73.494" transform="translate(0 -109.113)" fill="#ff7b24"/>
            </g>
          </g>
        </g>
        <g id="Group_3464" data-name="Group 3464" transform="translate(330.987 469.741)">
          <g id="Group_3465" data-name="Group 3465" transform="matrix(0.438, 0.899, -0.899, 0.438, 42.284, 18.344)">
            <path id="Path_5818" data-name="Path 5818" d="M7.266,0,.118,40.633a7.4,7.4,0,0,0,7.148,8.774h0a7.4,7.4,0,0,0,7.148-8.774Z" transform="translate(-0.001 0)" fill="#323232"/>
            <path id="Path_5819" data-name="Path 5819" d="M57.266,533.633A3.633,3.633,0,1,1,53.633,530a3.633,3.633,0,0,1,3.633,3.633" transform="translate(-46.367 -491.491)" fill="#fff"/>
          </g>
        </g>
      </g>
      <g id="Group_3468" data-name="Group 3468" transform="translate(2)">
        <g id="Rectangle_2356" data-name="Rectangle 2356" transform="translate(298 536)" fill="#fff" stroke="#e2e2e2" stroke-width="1">
          <rect width="76" height="22" rx="5" stroke="none"/>
          <rect x="0.5" y="0.5" width="75" height="21" rx="4.5" fill="none"/>
        </g>
        <text id="High" transform="translate(336 551)" fill="#3f3f3f" font-size="12" font-family="Poppins-SemiBold, Poppins" font-weight="600" letter-spacing="0.02em"><tspan x="-14" y="0">High</tspan></text>
      </g>
    </g>
  </g>
</svg>
