<svg id="Group_3054" data-name="Group 3054" xmlns="http://www.w3.org/2000/svg" xmlns:xlink="http://www.w3.org/1999/xlink" width="42.952" height="49.029" viewBox="0 0 42.952 49.029">
  <defs>
    <clipPath id="clip-path">
      <rect id="Rectangle_2265" data-name="Rectangle 2265" width="42.952" height="49.029" fill="#6a2fc2" stroke="#6a2fc2" stroke-width="0.5"/>
    </clipPath>
  </defs>
  <g id="Group_3053" data-name="Group 3053" transform="translate(0 0)" clip-path="url(#clip-path)">
    <path id="Path_5724" data-name="Path 5724" d="M7.974,76.777a.5.5,0,0,1-.248-.942l3.19-1.8a.473.473,0,0,0,.179-.645L4.585,61.849a.473.473,0,0,0-.644-.18l-3.19,1.8a.5.5,0,0,1-.494-.878l3.19-1.8a1.482,1.482,0,0,1,2.016.562L11.973,72.9a1.481,1.481,0,0,1-.563,2.017l-3.189,1.8a.5.5,0,0,1-.247.065" transform="translate(0 -27.747)" fill="#6a2fc2" stroke="#6a2fc2" stroke-width="0.5"/>
    <path id="Path_5725" data-name="Path 5725" d="M32.493,62.087a2.892,2.892,0,0,1-.333-.019L27,61.481a.5.5,0,1,1,.114-1l5.164.587a1.933,1.933,0,0,0,2.131-1.7l.08-.709a1.933,1.933,0,0,0-1.7-2.131L20.331,54.973a4.406,4.406,0,0,0-2.695.531L9.965,59.83a.5.5,0,1,1-.495-.877l7.67-4.326a5.42,5.42,0,0,1,3.315-.653l12.453,1.558a2.941,2.941,0,0,1,2.577,3.245l-.08.709a2.938,2.938,0,0,1-2.912,2.6" transform="translate(-4.219 -24.694)" fill="#6a2fc2" stroke="#6a2fc2" stroke-width="0.5"/>
    <path id="Path_5726" data-name="Path 5726" d="M19.974,76.639a.5.5,0,0,1-.248-.942l1.148-.648a5.427,5.427,0,0,1,3.315-.653l9.563,1.2a4.411,4.411,0,0,0,2.695-.531l10.684-6.026a.5.5,0,1,1,.495.878L36.942,75.938a5.427,5.427,0,0,1-3.315.653l-9.563-1.2a4.41,4.41,0,0,0-2.694.531l-1.149.648a.5.5,0,0,1-.247.065" transform="translate(-8.915 -31.579)" fill="#6a2fc2" stroke="#6a2fc2" stroke-width="0.5"/>
    <path id="Path_5727" data-name="Path 5727" d="M67.256,65.278a.5.5,0,0,1-.248-.942l4.524-2.558a1.933,1.933,0,0,0,.728-2.624l-.351-.621a2.015,2.015,0,0,0-1.185-.929,1.887,1.887,0,0,0-1.471.156.5.5,0,1,1-.5-.877,2.886,2.886,0,0,1,2.25-.246,2.993,2.993,0,0,1,1.779,1.4l.351.621a2.94,2.94,0,0,1-1.109,4L67.5,65.212a.5.5,0,0,1-.247.066" transform="translate(-30.563 -25.876)" fill="#6a2fc2" stroke="#6a2fc2" stroke-width="0.5"/>
    <path id="Path_5728" data-name="Path 5728" d="M69.4,62.737a.5.5,0,0,1-.248-.942,1.89,1.89,0,0,0,.893-1.18,2.02,2.02,0,0,0-.185-1.494l-.351-.621a1.928,1.928,0,0,0-2.624-.73l-4.525,2.555a.5.5,0,1,1-.495-.877l4.525-2.556a2.94,2.94,0,0,1,4,1.112l.351.621a2.992,2.992,0,0,1,.282,2.246,2.888,2.888,0,0,1-1.372,1.8.5.5,0,0,1-.247.065" transform="translate(-28.21 -25.876)" fill="#6a2fc2" stroke="#6a2fc2" stroke-width="0.5"/>
    <path id="Path_5729" data-name="Path 5729" d="M39.4,41.346H28.3a.649.649,0,0,1-.625-.822l0-.01,1.563-5.244a1.631,1.631,0,0,1,1.566-1.186H36.89a1.632,1.632,0,0,1,1.566,1.186l1.566,5.253a.648.648,0,0,1-.625.822m-10.52-1.079h9.942l-1.4-4.7a.549.549,0,0,0-.527-.4H30.806a.549.549,0,0,0-.528.4l0,.01Z" transform="translate(-12.66 -15.606)" fill="#6a2fc2" stroke="#6a2fc2" stroke-width="0.5"/>
    <path id="Path_5730" data-name="Path 5730" d="M65.582,41.346h-11.1a.649.649,0,0,1-.625-.822l0-.01,1.563-5.244a1.631,1.631,0,0,1,1.566-1.186h6.084a1.632,1.632,0,0,1,1.566,1.186l1.566,5.253a.648.648,0,0,1-.625.822m-10.52-1.079H65l-1.4-4.7a.549.549,0,0,0-.527-.4H56.991a.549.549,0,0,0-.527.4l0,.01Z" transform="translate(-24.65 -15.606)" fill="#6a2fc2" stroke="#6a2fc2" stroke-width="0.5"/>
    <path id="Path_5731" data-name="Path 5731" d="M52.49,24.606h-11.1a.649.649,0,0,1-.625-.821l0-.01,1.563-5.243A1.631,1.631,0,0,1,43.9,17.345h6.084a1.632,1.632,0,0,1,1.566,1.186l1.566,5.253a.649.649,0,0,1-.625.822M41.97,23.526h9.941l-1.4-4.7a.548.548,0,0,0-.527-.4H43.9a.549.549,0,0,0-.527.4l0,.01Z" transform="translate(-18.655 -7.942)" fill="#6a2fc2" stroke="#6a2fc2" stroke-width="0.5"/>
    <path id="Path_5732" data-name="Path 5732" d="M51.715,5.257a.539.539,0,0,1-.539-.539V.54a.539.539,0,1,1,1.079,0V4.718a.539.539,0,0,1-.539.539" transform="translate(-23.432 0)" fill="#6a2fc2" stroke="#6a2fc2" stroke-width="0.5"/>
    <path id="Path_5733" data-name="Path 5733" d="M42.455,7.74a.54.54,0,0,1-.468-.27L39.9,3.852a.54.54,0,0,1,.935-.539L42.921,6.93a.54.54,0,0,1-.467.809" transform="translate(-18.235 -1.393)" fill="#6a2fc2" stroke="#6a2fc2" stroke-width="0.5"/>
    <path id="Path_5734" data-name="Path 5734" d="M35.675,14.521a.535.535,0,0,1-.269-.073L31.788,12.36a.539.539,0,1,1,.539-.934l3.618,2.089a.54.54,0,0,1-.271,1.007" transform="translate(-14.431 -5.198)" fill="#6a2fc2" stroke="#6a2fc2" stroke-width="0.5"/>
    <path id="Path_5735" data-name="Path 5735" d="M59.218,7.74a.54.54,0,0,1-.467-.809L60.84,3.312a.54.54,0,0,1,.935.539L59.686,7.47a.54.54,0,0,1-.467.27" transform="translate(-26.867 -1.393)" fill="#6a2fc2" stroke="#6a2fc2" stroke-width="0.5"/>
    <path id="Path_5736" data-name="Path 5736" d="M64.706,14.521a.54.54,0,0,1-.271-1.007l3.618-2.089a.539.539,0,1,1,.539.934l-3.618,2.089a.535.535,0,0,1-.269.073" transform="translate(-29.379 -5.198)" fill="#6a2fc2" stroke="#6a2fc2" stroke-width="0.5"/>
  </g>
</svg>
