<svg id="Group_627" data-name="Group 627" xmlns="http://www.w3.org/2000/svg" xmlns:xlink="http://www.w3.org/1999/xlink" width="54.406" height="40.983" viewBox="0 0 54.406 40.983">
  <defs>
    <clipPath id="clip-path">
      <rect id="Rectangle_36" data-name="Rectangle 36" width="54.406" height="40.983" fill="#6a2fc2" stroke="#6a2fc2" stroke-width="0.5"/>
    </clipPath>
  </defs>
  <g id="Group_29" data-name="Group 29" clip-path="url(#clip-path)">
    <path id="Path_51" data-name="Path 51" d="M54.391,10.228a.355.355,0,0,0-.007-.048.4.4,0,0,0-.006-.043.391.391,0,0,0-.02-.049c-.005-.011-.009-.024-.015-.035a.353.353,0,0,0-.032-.043c-.008-.01-.015-.021-.024-.03a.348.348,0,0,0-.038-.03.343.343,0,0,0-.035-.027L37.224.048a.355.355,0,0,0-.356,0l-7.656,4.42-.789-.458a.355.355,0,0,0-.356,0L16.785,10.522l-5.13,2.962L.178,20.111h0a.355.355,0,0,0-.164.215c0,.008,0,.017,0,.025A.334.334,0,0,0,0,20.418H0l.015,3.126a.356.356,0,0,0,.177.305l5.021,2.919-.95.549h0a.354.354,0,0,0-.164.214c0,.008,0,.017,0,.025a.334.334,0,0,0-.009.066h0L4.1,30.755a.355.355,0,0,0,.177.305l16.991,9.874h0a.361.361,0,0,0,.074.03l.011,0a.353.353,0,0,0,.269-.035l11.361-6.559a.353.353,0,0,0,.117-.04l5.13-2.962a.348.348,0,0,0,.093-.082l11.189-6.46a.353.353,0,0,0,.178-.309L49.677,21.4a52.638,52.638,0,0,0-.012-.091.324.324,0,0,0-.02-.049.343.343,0,0,0-.015-.035.352.352,0,0,0-.032-.043c-.008-.01-.015-.021-.024-.03a.347.347,0,0,0-.038-.03.426.426,0,0,0-.035-.027l-4.055-2.356,8.784-5.071a.354.354,0,0,0,.178-.309ZM37.045.765l16.282,9.463-10.573,6.1-1.708-.992,6.059-3.5a.355.355,0,0,0,0-.615c-.06-.035-.115-.07-.166-.107a1.407,1.407,0,0,1-.342-.333.721.721,0,0,1-.143-.415.729.729,0,0,1,.146-.42,1.592,1.592,0,0,1,.517-.444.355.355,0,0,0,0-.615L38.976,4.163a.356.356,0,0,0-.356,0,3.775,3.775,0,0,1-1.838.435,3.745,3.745,0,0,1-1.834-.436.358.358,0,0,0-.356,0l-6.411,3.7L26.472,6.87ZM8.378,19.453a1.939,1.939,0,0,0-.268-.3l.7-.4,0,.84a.355.355,0,0,0,.177.305l3.156,1.834a1.09,1.09,0,0,0-.068.369,1.14,1.14,0,0,0,.214.653,1.753,1.753,0,0,0,.564.5,3.324,3.324,0,0,0,1.641.4,3.839,3.839,0,0,0,.805-.086L18.5,25.416a5.184,5.184,0,0,0-.885-.076,4.59,4.59,0,0,0-2.008.433L8.1,21.411a1.933,1.933,0,0,0,.276-.309,1.383,1.383,0,0,0,0-1.65M12.79,22.1l1.415.822a2.463,2.463,0,0,1-.99-.289,1.051,1.051,0,0,1-.338-.291.431.431,0,0,1-.086-.242M9.524,19.38l-.011-2.3,16.278,9.46.011,2.3Zm36.491-8.185a1.912,1.912,0,0,0,.268.3l-5.944,3.432-1.164-.676a2.931,2.931,0,0,0,.151-.923,3.137,3.137,0,0,0-.6-1.8,5.315,5.315,0,0,0-1.721-1.51,10.935,10.935,0,0,0-5.386-1.3,12.881,12.881,0,0,0-1.761.121l-.971-.564,5.89-3.4a4.569,4.569,0,0,0,2,.434,4.591,4.591,0,0,0,2.005-.433l7.507,4.362a1.949,1.949,0,0,0-.275.308,1.383,1.383,0,0,0,0,1.649m-7.4,2.135a2.194,2.194,0,0,1-.075.554L30.911,9.45c.236-.014.472-.023.708-.023a10.251,10.251,0,0,1,5.031,1.2,4.613,4.613,0,0,1,1.495,1.3,2.423,2.423,0,0,1,.472,1.4m-9.01-3.816,8.949,5.2,1.6.932,1.886,1.1-4.421,2.552-2.237-1.3h0l-1.5-.869L24.723,11.8l-1.5-.869-1.887-1.1,4.421-2.552L28,8.58ZM17.178,15.492a1.935,1.935,0,0,0-.268-.3l6.138-3.544,1.039.6a2.959,2.959,0,0,0-.22,1.108,3.137,3.137,0,0,0,.6,1.8,5.323,5.323,0,0,0,1.72,1.51,10.942,10.942,0,0,0,5.388,1.3,12.809,12.809,0,0,0,2.068-.168l.857.5-6.083,3.512c-.1-.05-.2-.1-.31-.138a4.786,4.786,0,0,0-1.693-.3,4.6,4.6,0,0,0-2.008.434L16.9,17.45a1.985,1.985,0,0,0,.276-.309,1.382,1.382,0,0,0,0-1.65m7.4-2.134a2.211,2.211,0,0,1,.133-.746l7.921,4.6c-.35.03-.7.045-1.057.045a10.247,10.247,0,0,1-5.031-1.2,4.618,4.618,0,0,1-1.495-1.3,2.429,2.429,0,0,1-.471-1.4m-2.237-2.123-6.252,3.61a.333.333,0,0,0-.074.057.353.353,0,0,0-.1.25c0,.012,0,.024,0,.036a.353.353,0,0,0,.172.271,1.568,1.568,0,0,1,.509.44.838.838,0,0,1,.109.213.655.655,0,0,1,.034.2.723.723,0,0,1-.146.42,1.593,1.593,0,0,1-.518.445.353.353,0,0,0-.172.268c0,.013-.005.025-.005.039a.356.356,0,0,0,.177.308l8.142,4.732a.357.357,0,0,0,.356,0,3.771,3.771,0,0,1,1.84-.436,3.927,3.927,0,0,1,1.645.336c.066.031.129.064.189.1a.358.358,0,0,0,.356,0l6.605-3.814,1.708.992L26.146,25.921,9.864,16.459l10.769-6.218ZM24.486,28.9l-6.772,3.91L17.7,30.5l4.785-2.763Zm.708.412.789.458h0a.364.364,0,0,0,.074.03l.011,0a.356.356,0,0,0,.269-.036l1.109-.64a12.672,12.672,0,0,0,1.481-.154l.857.5L23.7,32.982a4.854,4.854,0,0,0-4.011,0l-.429-.25Zm1.319-.463L26.5,26.536l10.77-6.218.011,2.309Zm8.047-3.826L37.7,23.206a.353.353,0,0,0,.116-.04L41.053,21.3a1.273,1.273,0,0,0-.023.244,1.43,1.43,0,0,0,.271.821,1.918,1.918,0,0,0,.268.3L35.625,26.1l-1.164-.676a3.03,3.03,0,0,0,.1-.4m3.43-2.773-.011-2.336L42.4,17.356l.011,2.336ZM28.245,4.727l.258.15L25.585,6.561l-5.13,2.962h0L17.93,10.981l-.258-.15ZM16.963,11.24l.258.151L12.8,13.943l-.258-.15ZM11.832,14.2l.258.15-3.113,1.8h0a.363.363,0,0,0-.057.041.357.357,0,0,0-.107.174c0,.009,0,.018,0,.027a.318.318,0,0,0-.009.064h0l.007,1.468-1.519.877a.355.355,0,0,0,0,.615,1.665,1.665,0,0,1,.453.37c.019.023.04.047.055.07s.02.034.03.05a.7.7,0,0,1,.113.365.724.724,0,0,1-.146.42,1.6,1.6,0,0,1-.518.445.355.355,0,0,0,0,.615l8.143,4.732a.355.355,0,0,0,.356,0,4.091,4.091,0,0,1,3.674,0,.356.356,0,0,0,.356,0l.269-.155,1.708.992-4.433,2.559L1.064,20.42ZM.724,23.341l-.011-2.3L16.991,30.5,17,32.8ZM4.81,30.549l-.011-2.3,16.279,9.46.011,2.3ZM21.432,37.09,5.149,27.628l.772-.446,11.261,6.544h0a.381.381,0,0,0,.079.032l.006,0a.353.353,0,0,0,.269-.035l1.014-.585.95.552a.356.356,0,0,0,.356,0,4.089,4.089,0,0,1,3.673,0,.356.356,0,0,0,.356,0l6.605-3.813,1.707.992Zm.367,2.924-.011-2.309,10.77-6.218.011,2.309Zm11.111-9.55-2.237-1.3-1.495-.869-.145-.084,4.421-2.552.387.225,1.6.932,1.886,1.1-.836.483Zm.367,2.951-.011-2.336,4.422-2.553.011,2.336Zm15.7-9.095L38.407,30.426,38.4,28.116l10.574-6.1ZM48.613,21.4,38.041,27.5l-1.708-.992,6.058-3.5a.355.355,0,0,0,0-.615,1.568,1.568,0,0,1-.509-.44.713.713,0,0,1-.143-.415.724.724,0,0,1,.145-.42,1.6,1.6,0,0,1,.517-.444.354.354,0,0,0,.171-.258l.373-.216a.346.346,0,0,0,.093-.082l1.7-.979Zm-5.492-2.141-.011-2.309,10.574-6.1.011,2.308Z" transform="translate(0 0)" fill="#6a2fc2" stroke="#6a2fc2" stroke-width="0.5"/>
    <path id="Path_52" data-name="Path 52" d="M73.244,13.33a3.576,3.576,0,0,0-3.285,0,1.879,1.879,0,0,0-.458.36,1.482,1.482,0,0,0-.114.142,1.1,1.1,0,0,0,0,1.31,1.739,1.739,0,0,0,.564.5,3.105,3.105,0,0,0,1.206.375,4.014,4.014,0,0,0,.435.024,3.345,3.345,0,0,0,1.644-.4,1.761,1.761,0,0,0,.572-.5,1.1,1.1,0,0,0,0-1.31,1.741,1.741,0,0,0-.564-.5m-.02,1.4a1.07,1.07,0,0,1-.346.3h0a2.877,2.877,0,0,1-2.572,0h0a1.048,1.048,0,0,1-.338-.291.425.425,0,0,1-.087-.246.43.43,0,0,1,.088-.249,1.057,1.057,0,0,1,.346-.3,2.648,2.648,0,0,1,1.288-.3,2.758,2.758,0,0,1,1.154.235c.046.022.089.044.131.069a1.048,1.048,0,0,1,.339.291.395.395,0,0,1,0,.495" transform="translate(-31.709 -5.927)" fill="#6a2fc2" stroke="#6a2fc2" stroke-width="0.5"/>
    <path id="Path_53" data-name="Path 53" d="M39.332,33.316a3.58,3.58,0,0,0,3.285,0h0a1.769,1.769,0,0,0,.571-.5,1.137,1.137,0,0,0,.218-.657,1.076,1.076,0,0,0-.014-.172,1.171,1.171,0,0,0-.2-.48,1.747,1.747,0,0,0-.564-.5,3.576,3.576,0,0,0-3.285,0,1.893,1.893,0,0,0-.458.36,1.465,1.465,0,0,0-.114.142,1.1,1.1,0,0,0,0,1.31,1.746,1.746,0,0,0,.564.5m.021-1.4a1.069,1.069,0,0,1,.346-.3c.044-.026.093-.05.142-.073a2.779,2.779,0,0,1,1.109-.23h.037a2.632,2.632,0,0,1,1.284.3,1.055,1.055,0,0,1,.339.291.395.395,0,0,1,0,.495,1.069,1.069,0,0,1-.346.3,2.883,2.883,0,0,1-2.573,0,1.042,1.042,0,0,1-.338-.291.425.425,0,0,1-.087-.246.432.432,0,0,1,.088-.25" transform="translate(-17.674 -14.03)" fill="#6a2fc2" stroke="#6a2fc2" stroke-width="0.5"/>
  </g>
</svg>
