<svg xmlns="http://www.w3.org/2000/svg" xmlns:xlink="http://www.w3.org/1999/xlink" width="40.915" height="44.091" viewBox="0 0 40.915 44.091">
  <defs>
    <clipPath id="clip-path">
      <rect id="Rectangle_216" data-name="Rectangle 216" width="40.915" height="44.091" fill="none" stroke="#6a2fc2" stroke-width="2"/>
    </clipPath>
  </defs>
  <g id="Group_600" data-name="Group 600" clip-path="url(#clip-path)">
    <path id="Path_5504" data-name="Path 5504" d="M2.064,85.881,7.8,80.142a5.807,5.807,0,0,1,4.106-1.7h4.365a4.682,4.682,0,0,1,3.308,1.371A3.992,3.992,0,0,0,22.4,80.982h4.7a2.359,2.359,0,1,1,0,4.718H17.124" transform="translate(-1.338 -50.863)" fill="none" stroke="#6a2fc2" stroke-linecap="round" stroke-linejoin="round" stroke-width="2"/>
    <path id="Path_5505" data-name="Path 5505" d="M45.345,75.982l8.285-6.933A2.412,2.412,0,0,1,56.884,72.6L44.773,84.713a3.628,3.628,0,0,1-2.566,1.063H29.734a2.177,2.177,0,0,0-1.539.638l-1.358,1.358" transform="translate(-17.401 -44.407)" fill="none" stroke="#6a2fc2" stroke-linecap="round" stroke-linejoin="round" stroke-width="2"/>
    <path id="Path_5506" data-name="Path 5506" d="M54.961,28.486l1.856,3.761,4.151.6a1.111,1.111,0,0,1,.615,1.894l-3,2.928.709,4.134a1.111,1.111,0,0,1-1.611,1.171l-3.713-1.952-3.713,1.952a1.111,1.111,0,0,1-1.611-1.171l.709-4.134-3-2.928a1.111,1.111,0,0,1,.615-1.894l4.151-.6,1.856-3.761a1.111,1.111,0,0,1,1.993,0Z" transform="translate(-29.833 -18.069)" fill="none" stroke="#6a2fc2" stroke-linecap="round" stroke-linejoin="round" stroke-width="2"/>
    <path id="Path_5507" data-name="Path 5507" d="M91.344,12.385h2.54a1.089,1.089,0,0,1,1.089,1.089V27.626a1.089,1.089,0,0,1-1.089,1.089h-2.54" transform="translate(-59.228 -8.03)" fill="none" stroke="#6a2fc2" stroke-linecap="round" stroke-linejoin="round" stroke-width="2"/>
    <path id="Path_5508" data-name="Path 5508" d="M31.206,52.138h-6.9a1.089,1.089,0,0,1-1.089-1.089V48.51" transform="translate(-15.057 -31.454)" fill="none" stroke="#6a2fc2" stroke-linecap="round" stroke-linejoin="round" stroke-width="2"/>
    <path id="Path_5509" data-name="Path 5509" d="M21.611,18.394H13.99a1.089,1.089,0,0,1-1.09-1.087V3.153a1.089,1.089,0,0,1,1.089-1.089h25.4a1.089,1.089,0,0,1,1.088,1.089V13.313" transform="translate(-8.365 -1.338)" fill="none" stroke="#6a2fc2" stroke-linecap="round" stroke-linejoin="round" stroke-width="2"/>
    <path id="Path_5510" data-name="Path 5510" d="M18.347,2.064a5.443,5.443,0,0,1-5.44,5.44" transform="translate(-8.367 -1.338)" fill="none" stroke="#6a2fc2" stroke-linecap="round" stroke-linejoin="round" stroke-width="2"/>
    <path id="Path_5511" data-name="Path 5511" d="M81.307,7.509a5.443,5.443,0,0,1-5.44-5.44" transform="translate(-49.191 -1.34)" fill="none" stroke="#6a2fc2" stroke-linecap="round" stroke-linejoin="round" stroke-width="2"/>
    <path id="Path_5512" data-name="Path 5512" d="M12.9,33.028a5.443,5.443,0,0,1,5.44,5.44" transform="translate(-8.365 -21.416)" fill="none" stroke="#6a2fc2" stroke-linecap="round" stroke-linejoin="round" stroke-width="2"/>
    <path id="Path_5513" data-name="Path 5513" d="M39.059,19.92a5.081,5.081,0,1,1,8.317-5.6" transform="translate(-24.429 -7.362)" fill="none" stroke="#6a2fc2" stroke-linecap="round" stroke-linejoin="round" stroke-width="2"/>
  </g>
</svg>
