<svg id="Group_3059" data-name="Group 3059" xmlns="http://www.w3.org/2000/svg" xmlns:xlink="http://www.w3.org/1999/xlink" width="46" height="46" viewBox="0 0 46 46">
  <defs>
    <clipPath id="clip-path">
      <rect id="Rectangle_2276" data-name="Rectangle 2276" width="46" height="46" fill="none" stroke="#6a2fc2" stroke-width="1.5"/>
    </clipPath>
  </defs>
  <g id="Group_3058" data-name="Group 3058" clip-path="url(#clip-path)">
    <path id="Path_5744" data-name="Path 5744" d="M156,136h15.094l2.156,15.094H159.594" transform="translate(-127.969 -111.563)" fill="none" stroke="#6a2fc2" stroke-linecap="round" stroke-linejoin="round" stroke-width="1.5"/>
    <path id="Path_5745" data-name="Path 5745" d="M18.375,151.094H4L6.156,136H21.969" transform="translate(-3.281 -111.563)" fill="none" stroke="#6a2fc2" stroke-linecap="round" stroke-linejoin="round" stroke-width="1.5"/>
    <path id="Path_5746" data-name="Path 5746" d="M39.213,152h-7.7c-.094.6-1.146,1.438-2.8,1.438L28,158.469c1.708,0,2.845.833,2.752,2.156h7.6" transform="translate(-22.969 -124.688)" fill="none" stroke="#6a2fc2" stroke-linecap="round" stroke-linejoin="round" stroke-width="1.5"/>
    <path id="Path_5747" data-name="Path 5747" d="M169.6,152h6.978c.094.6,1.146,1.438,2.8,1.438l.719,5.031c-1.708,0-2.845.833-2.752,2.156h-6.88" transform="translate(-139.125 -124.688)" fill="none" stroke="#6a2fc2" stroke-linecap="round" stroke-linejoin="round" stroke-width="1.5"/>
    <path id="Path_5748" data-name="Path 5748" d="M4,220v5.75H48.563V220" transform="translate(-3.281 -180.469)" fill="none" stroke="#6a2fc2" stroke-linecap="round" stroke-linejoin="round" stroke-width="1.5"/>
    <path id="Path_5749" data-name="Path 5749" d="M85.438,136,84,150.375v6.469" transform="translate(-68.906 -111.563)" fill="none" stroke="#6a2fc2" stroke-linecap="round" stroke-linejoin="round" stroke-width="1.5"/>
    <path id="Path_5750" data-name="Path 5750" d="M168,136l1.438,14.375v6.469" transform="translate(-137.813 -111.563)" fill="none" stroke="#6a2fc2" stroke-linecap="round" stroke-linejoin="round" stroke-width="1.5"/>
    <path id="Path_5751" data-name="Path 5751" d="M125.466,46.211c13.872-.1,12.674-14.351,12.674-14.351S132.5,31.4,128.8,34.016" transform="translate(-102.921 -26.11)" fill="none" stroke="#6a2fc2" stroke-linecap="round" stroke-linejoin="round" stroke-width="1.5"/>
    <path id="Path_5752" data-name="Path 5752" d="M54.254,21.523C59.868,6.156,44.235,9.174,41.181,4c-.157.915-6.825,18.711,9.344,19.406" transform="translate(-32.556 -3.281)" fill="none" stroke="#6a2fc2" stroke-linecap="round" stroke-linejoin="round" stroke-width="1.5"/>
    <path id="Path_5753" data-name="Path 5753" d="M88,64a18.935,18.935,0,0,1,7.994,15.261l-.088,4.145" transform="translate(-72.188 -52.5)" fill="none" stroke="#6a2fc2" stroke-linecap="round" stroke-linejoin="round" stroke-width="1.5"/>
  </g>
</svg>
