<svg id="Group_3305" data-name="Group 3305" xmlns="http://www.w3.org/2000/svg" width="32.74" height="20.152" viewBox="0 0 32.74 20.152">
  <path id="Path_6011" data-name="Path 6011" d="M31.585,16.778h-2.47V.876A.877.877,0,0,0,28.241,0H4.5a.876.876,0,0,0-.874.876v15.9H1.155A1.156,1.156,0,0,0,0,17.932V19a1.155,1.155,0,0,0,1.155,1.153h30.43A1.156,1.156,0,0,0,32.74,19V17.932a1.155,1.155,0,0,0-1.155-1.155Zm-10.24,1.743a.439.439,0,0,1-.438.438H11.834a.439.439,0,0,1-.438-.438v-.4a.455.455,0,0,1,.015-.106h9.92a.443.443,0,0,1,.015.106v.4Zm5.522-2.39H5.872V2.087a.047.047,0,0,1,.046-.036h20.9a.046.046,0,0,1,.046.036V16.133Zm1.113,2.875a.44.44,0,1,1,.44-.44A.44.44,0,0,1,27.98,19.006Zm2.03,0a.44.44,0,1,1,.44-.44A.44.44,0,0,1,30.011,19.006Z" fill="#303038"/>
  <path id="Path_6012" data-name="Path 6012" d="M82.875,40.248h0l-.041-.022-1.312-.7h0l-.576-.305L79.2,38.29h0l-1.014-.539h0l-1.6-.851.441,1.581h0l.1.368.581,2.09h0l.239.854.763,2.742.783-1.145h0l.642-.937,1.893,2.357,1.108-.889-1.568-1.951h0l-.327-.406,2.341-.942Z" transform="translate(-63.876 -30.779)" fill="#303038"/>
</svg>
