<svg id="Group_3487" data-name="Group 3487" xmlns="http://www.w3.org/2000/svg" xmlns:xlink="http://www.w3.org/1999/xlink" width="411" height="1070" viewBox="0 0 411 1070">
  <defs>
    <clipPath id="clip-path">
      <rect id="Rectangle_2323" data-name="Rectangle 2323" width="411" height="1070" fill="#fff" stroke="#707070" stroke-width="1"/>
    </clipPath>
  </defs>
  <g id="Mask_Group_34" data-name="Mask Group 34" clip-path="url(#clip-path)">
    <g id="Group_505" data-name="Group 505" transform="translate(372.837) rotate(90)">
      <path id="Path_5353" data-name="Path 5353" d="M421.185,146.806a279.015,279.015,0,0,0,176.523,176.56L744.67,372.335,597.708,421.2A279.473,279.473,0,0,0,421.185,597.915L372.335,744.67,323.35,597.915A279.537,279.537,0,0,0,146.742,421.2L0,372.335l146.742-48.968A279.079,279.079,0,0,0,323.35,146.806L372.335,0l48.85,146.806" transform="translate(288.829 0.334)" fill="none" stroke="#e4e4e4" stroke-width="1"/>
      <path id="Path_5354" data-name="Path 5354" d="M421.185,146.806a279.015,279.015,0,0,0,176.523,176.56l146.962,48.968L597.708,421.2A279.473,279.473,0,0,0,421.185,597.915L372.335,744.67,323.35,597.915A279.537,279.537,0,0,0,146.742,421.2L0,372.335l146.742-48.968A279.078,279.078,0,0,0,323.35,146.806L372.335,0l48.85,146.806" transform="translate(274.621 0.334)" fill="none" stroke="#e4e4e4" stroke-width="1"/>
      <path id="Path_5355" data-name="Path 5355" d="M421.185,146.806a279.015,279.015,0,0,0,176.523,176.56L744.67,372.335,597.708,421.2A279.473,279.473,0,0,0,421.185,597.915L372.335,744.67,323.35,597.915A279.537,279.537,0,0,0,146.742,421.2L0,372.335l146.742-48.968A279.079,279.079,0,0,0,323.35,146.806L372.335,0l48.85,146.806" transform="translate(260.116 0.334)" fill="none" stroke="#e4e4e4" stroke-width="1"/>
      <path id="Path_5356" data-name="Path 5356" d="M421.185,146.806a279.015,279.015,0,0,0,176.523,176.56l146.962,48.968L597.708,421.2A279.473,279.473,0,0,0,421.185,597.915L372.335,744.67,323.35,597.915A279.537,279.537,0,0,0,146.742,421.2L0,372.335l146.742-48.968A279.079,279.079,0,0,0,323.35,146.806L372.335,0l48.85,146.806" transform="translate(244.261 0.334)" fill="none" stroke="#e4e4e4" stroke-width="1"/>
      <path id="Path_5357" data-name="Path 5357" d="M421.185,146.806a279.015,279.015,0,0,0,176.523,176.56L744.67,372.335,597.708,421.2A279.473,279.473,0,0,0,421.185,597.914L372.335,744.67,323.35,597.914A279.538,279.538,0,0,0,146.742,421.2L0,372.335l146.742-48.968A279.079,279.079,0,0,0,323.35,146.806L372.335,0l48.85,146.806" transform="translate(227.177 1.004)" fill="none" stroke="#e4e4e4" stroke-width="1"/>
      <path id="Path_5358" data-name="Path 5358" d="M421.185,146.806a279.015,279.015,0,0,0,176.523,176.56l146.962,48.968L597.708,421.2A279.473,279.473,0,0,0,421.185,597.915L372.335,744.67,323.35,597.915A279.537,279.537,0,0,0,146.742,421.2L0,372.335l146.742-48.968A279.079,279.079,0,0,0,323.35,146.806L372.335,0l48.85,146.806" transform="translate(215.411 0)" fill="none" stroke="#e4e4e4" stroke-width="1"/>
      <path id="Path_5359" data-name="Path 5359" d="M421.185,146.806a279.014,279.014,0,0,0,176.523,176.56L744.67,372.335,597.708,421.2A279.473,279.473,0,0,0,421.185,597.915L372.335,744.67,323.35,597.915A279.537,279.537,0,0,0,146.742,421.2L0,372.335l146.742-48.968A279.079,279.079,0,0,0,323.35,146.806L372.335,0l48.85,146.806" transform="translate(201.202 0)" fill="none" stroke="#e4e4e4" stroke-width="1"/>
      <path id="Path_5360" data-name="Path 5360" d="M421.184,146.806a279.015,279.015,0,0,0,176.523,176.56L744.67,372.335,597.708,421.2A279.473,279.473,0,0,0,421.184,597.915L372.334,744.67,323.349,597.915A279.537,279.537,0,0,0,146.741,421.2L0,372.335l146.741-48.968a279.079,279.079,0,0,0,176.608-176.56L372.334,0l48.85,146.806" transform="translate(186.698 0)" fill="none" stroke="#e4e4e4" stroke-width="1"/>
      <path id="Path_5361" data-name="Path 5361" d="M421.185,146.806a279.016,279.016,0,0,0,176.523,176.56L744.67,372.335,597.708,421.2A279.474,279.474,0,0,0,421.185,597.915L372.335,744.67,323.35,597.915A279.537,279.537,0,0,0,146.742,421.2L0,372.335l146.742-48.968A279.079,279.079,0,0,0,323.35,146.806L372.335,0l48.85,146.806" transform="translate(170.842 0)" fill="none" stroke="#e4e4e4" stroke-width="1"/>
      <path id="Path_5362" data-name="Path 5362" d="M421.185,146.806a279.015,279.015,0,0,0,176.524,176.56l146.962,48.968L597.708,421.2A279.473,279.473,0,0,0,421.185,597.915l-48.85,146.756L323.35,597.915A279.537,279.537,0,0,0,146.742,421.2L0,372.335l146.742-48.968A279.079,279.079,0,0,0,323.35,146.806L372.335,0l48.85,146.806" transform="translate(153.758 0.669)" fill="none" stroke="#e4e4e4" stroke-width="1"/>
      <path id="Path_5363" data-name="Path 5363" d="M421.185,146.806a279.015,279.015,0,0,0,176.523,176.56l146.962,48.968L597.708,421.2A279.473,279.473,0,0,0,421.185,597.915L372.335,744.67,323.35,597.915A279.537,279.537,0,0,0,146.742,421.2L0,372.335l146.742-48.968A279.079,279.079,0,0,0,323.35,146.806L372.335,0l48.85,146.806" transform="translate(137.571 0)" fill="none" stroke="#e4e4e4" stroke-width="1"/>
      <path id="Path_5364" data-name="Path 5364" d="M421.185,146.806a279.015,279.015,0,0,0,176.523,176.56L744.67,372.335,597.708,421.2A279.473,279.473,0,0,0,421.185,597.915L372.335,744.67,323.35,597.915A279.537,279.537,0,0,0,146.742,421.2L0,372.335l146.742-48.968A279.079,279.079,0,0,0,323.35,146.806L372.335,0l48.85,146.806" transform="translate(123.363 0)" fill="none" stroke="#e4e4e4" stroke-width="1"/>
      <path id="Path_5365" data-name="Path 5365" d="M421.185,146.806a279.015,279.015,0,0,0,176.523,176.56L744.67,372.335,597.708,421.2A279.473,279.473,0,0,0,421.185,597.915L372.335,744.67,323.35,597.915A279.537,279.537,0,0,0,146.742,421.2L0,372.335l146.742-48.968A279.079,279.079,0,0,0,323.35,146.806L372.335,0l48.85,146.806" transform="translate(108.857 0)" fill="none" stroke="#e4e4e4" stroke-width="1"/>
      <path id="Path_5366" data-name="Path 5366" d="M421.184,146.806a279.015,279.015,0,0,0,176.523,176.56L744.67,372.335,597.708,421.2A279.473,279.473,0,0,0,421.184,597.915L372.334,744.67,323.349,597.915A279.537,279.537,0,0,0,146.741,421.2L0,372.335l146.741-48.968a279.079,279.079,0,0,0,176.608-176.56L372.334,0l48.85,146.806" transform="translate(93.003 0)" fill="none" stroke="#e4e4e4" stroke-width="1"/>
      <path id="Path_5367" data-name="Path 5367" d="M421.185,146.806a279.014,279.014,0,0,0,176.523,176.56l146.962,48.968L597.708,421.2A279.473,279.473,0,0,0,421.185,597.915l-48.85,146.756L323.35,597.915A279.537,279.537,0,0,0,146.742,421.2L0,372.335l146.742-48.968A279.078,279.078,0,0,0,323.35,146.806L372.335,0l48.85,146.806" transform="translate(75.919 0.669)" fill="none" stroke="#e4e4e4" stroke-width="1"/>
      <path id="Path_5368" data-name="Path 5368" d="M421.185,146.806a279.015,279.015,0,0,0,176.523,176.56l146.962,48.968L597.708,421.2A279.473,279.473,0,0,0,421.185,597.915L372.335,744.67,323.35,597.915A279.537,279.537,0,0,0,146.742,421.2L0,372.335l146.742-48.968A279.079,279.079,0,0,0,323.35,146.806L372.335,0l48.85,146.806" transform="translate(61.653 0)" fill="none" stroke="#e4e4e4" stroke-width="1"/>
      <path id="Path_5369" data-name="Path 5369" d="M421.185,146.806a279.015,279.015,0,0,0,176.523,176.56L744.67,372.335,597.708,421.2A279.473,279.473,0,0,0,421.185,597.915L372.335,744.67,323.35,597.915A279.537,279.537,0,0,0,146.742,421.2L0,372.335l146.742-48.968A279.078,279.078,0,0,0,323.35,146.806L372.335,0l48.85,146.806" transform="translate(47.444 0)" fill="none" stroke="#e4e4e4" stroke-width="1"/>
      <path id="Path_5370" data-name="Path 5370" d="M421.184,146.806a279.015,279.015,0,0,0,176.523,176.56L744.67,372.335,597.708,421.2A279.473,279.473,0,0,0,421.184,597.915L372.334,744.67,323.349,597.915A279.537,279.537,0,0,0,146.741,421.2L0,372.335l146.741-48.968a279.079,279.079,0,0,0,176.608-176.56L372.334,0l48.85,146.806" transform="translate(32.939 0)" fill="none" stroke="#e4e4e4" stroke-width="1"/>
      <path id="Path_5371" data-name="Path 5371" d="M421.185,146.806a279.015,279.015,0,0,0,176.523,176.56L744.67,372.335,597.708,421.2A279.473,279.473,0,0,0,421.185,597.915L372.335,744.67,323.35,597.915A279.537,279.537,0,0,0,146.742,421.2L0,372.335l146.742-48.968A279.079,279.079,0,0,0,323.35,146.806L372.335,0l48.85,146.806" transform="translate(17.084 0)" fill="none" stroke="#e4e4e4" stroke-width="1"/>
      <path id="Path_5372" data-name="Path 5372" d="M421.185,146.806a279.015,279.015,0,0,0,176.523,176.56L744.67,372.335,597.708,421.2A279.473,279.473,0,0,0,421.185,597.915l-48.85,146.756L323.35,597.915A279.537,279.537,0,0,0,146.742,421.2L0,372.335l146.742-48.968A279.078,279.078,0,0,0,323.35,146.806L372.335,0l48.85,146.806" transform="translate(0 0.669)" fill="none" stroke="#e4e4e4" stroke-width="1"/>
    </g>
  </g>
</svg>
