<svg id="Group_3097" data-name="Group 3097" xmlns="http://www.w3.org/2000/svg" xmlns:xlink="http://www.w3.org/1999/xlink" width="67.836" height="71.544" viewBox="0 0 67.836 71.544">
  <defs>
    <clipPath id="clip-path">
      <rect id="Rectangle_1630" data-name="Rectangle 1630" width="67.836" height="71.544" fill="#fff" stroke="#fff" stroke-width="0.5"/>
    </clipPath>
    <clipPath id="clip-path-2">
      <rect id="Rectangle_1631" data-name="Rectangle 1631" width="64.022" height="67.731" fill="#6a2fc2" stroke="#6a2fc2" stroke-width="0.5"/>
    </clipPath>
  </defs>
  <g id="Group_2748" data-name="Group 2748">
    <g id="Group_2747" data-name="Group 2747" clip-path="url(#clip-path)">
      <path id="Path_5598" data-name="Path 5598" d="M57.47,225.065a4.738,4.738,0,0,0-2.758.88l-7.236,5.066a.931.931,0,0,0-.218,1.3.933.933,0,0,0,.76.392.923.923,0,0,0,.537-.172l7.237-5.066a2.89,2.89,0,0,1,1.682-.536,2.915,2.915,0,0,1,1.692,5.292l-19.408,13.71a2.881,2.881,0,0,1-1.682.537c-.1,0-.2,0-.288-.014l-.036,0-.017,0-18.042-4.593a1.007,1.007,0,0,0-.112-.025,4.831,4.831,0,0,0-.73-.056,4.74,4.74,0,0,0-2.758.883l-1.318.936L7.194,232.911l8.387-5.989a5.815,5.815,0,0,1,3.383-1.084,5.941,5.941,0,0,1,.9.069l.048.011L40.5,231.891l.022.007a2.91,2.91,0,0,1,2.016,3.519,2.814,2.814,0,0,1-1.345,1.729,2.934,2.934,0,0,1-1.443.381,3,3,0,0,1-.768-.1h0l-.021,0-.017,0-10.622-2.58a.93.93,0,0,0-.421,1.813l10.618,2.579.021,0a4.861,4.861,0,0,0,1.22.156,4.789,4.789,0,0,0,2.355-.623,4.662,4.662,0,0,0,2.225-2.866,4.781,4.781,0,0,0-3.307-5.792l-20.585-5.974-.01,0a.944.944,0,0,0-.162-.044,7.855,7.855,0,0,0-1.308-.111,7.664,7.664,0,0,0-4.459,1.431l-8.386,5.987-.96-1.352a.933.933,0,0,0-.76-.392.924.924,0,0,0-.537.172L.416,232.258l-.016.011-.023.017a.936.936,0,0,0,.56,1.687.924.924,0,0,0,.581-.2l.015-.011,2.645-1.881,10.6,14.921-2.447,1.743a.937.937,0,0,0,.459,1.753.929.929,0,0,0,.548-.177l3.276-2.339a.932.932,0,0,0,.221-1.3l-.978-1.376,1.318-.937a2.887,2.887,0,0,1,1.68-.537,2.959,2.959,0,0,1,.392.026l.043.008,18.081,4.6.015,0,.031.006.027.005.022,0,.029,0a4.763,4.763,0,0,0,3.345-.846l19.408-13.71a4.782,4.782,0,0,0,1.128-6.659,4.79,4.79,0,0,0-3.9-2.009" transform="translate(1.907 -180.657)" fill="#fff" stroke="#fff" stroke-width="0.5"/>
      <path id="Path_5599" data-name="Path 5599" d="M84.234,37.274a.942.942,0,0,0,1.594,0L94.7,23.213a.942.942,0,0,0-.8-1.445H89.444a13.229,13.229,0,1,1,3.837,10.285.942.942,0,0,0-1.333,1.333,15.11,15.11,0,1,0-4.393-11.618H85.031a.942.942,0,0,0,0,1.885h7.161L85.031,35,77.87,23.652h2.986a.942.942,0,0,0,.942-.942,20.825,20.825,0,1,1,41.651,0,.942.942,0,0,0,1.885,0,22.71,22.71,0,0,0-45.4-.942H76.161a.942.942,0,0,0-.8,1.445Z" transform="translate(-59.405 1.907)" fill="#fff" stroke="#fff" stroke-width="0.5"/>
      <path id="Path_5600" data-name="Path 5600" d="M337.018,138.392a.942.942,0,0,0-.942.942V140a.942.942,0,0,0,1.885,0v-.661a.942.942,0,0,0-.942-.942" transform="translate(-272.032 -110.898)" fill="#fff" stroke="#fff" stroke-width="0.5"/>
      <path id="Path_5601" data-name="Path 5601" d="M337.018,165.468a.942.942,0,0,0-.942.942v.661a.942.942,0,0,0,1.885,0v-.661a.942.942,0,0,0-.942-.942" transform="translate(-272.032 -132.968)" fill="#fff" stroke="#fff" stroke-width="0.5"/>
    </g>
  </g>
  <g id="Group_2750" data-name="Group 2750" transform="translate(1.907 1.907)">
    <g id="Group_2749" data-name="Group 2749" clip-path="url(#clip-path-2)">
      <path id="Path_5602" data-name="Path 5602" d="M194.242,84.849v.892c0,.053.03.079.09.079h1.937a5.329,5.329,0,0,1,2.218.565,2.612,2.612,0,0,1,1.149,1.467h-5.3a.082.082,0,0,0-.09.079v.892c0,.053.03.079.09.079h5.348v.119a2.933,2.933,0,0,1-.045.446q-.732,2.309-4.38,2.309h-.687v.04q6.6,7.571,6.632,7.571h2.173v-.079l-5.72-6.521c.06,0,.09-.013.09-.04a7.108,7.108,0,0,0,2.623-.931Q202.45,90.4,202.45,88.9h2.533c.06,0,.09-.026.09-.079v-.892c0-.046-.03-.072-.09-.079h-2.635l-.045-.287a2.811,2.811,0,0,0-1.329-1.665V85.82h4.008c.06,0,.09-.026.09-.079v-.892c0-.046-.03-.073-.09-.079H194.332A.082.082,0,0,0,194.242,84.849Z" transform="translate(-158.329 -69.097)" fill="#fff" stroke="#fff" stroke-width="1"/>
    </g>
  </g>
</svg>
