<svg xmlns="http://www.w3.org/2000/svg" xmlns:xlink="http://www.w3.org/1999/xlink" width="644.851" height="732.883" viewBox="0 0 644.851 732.883">
  <defs>
    <clipPath id="clip-path">
      <rect id="Rectangle_70" data-name="Rectangle 70" width="732.883" height="644.851" transform="translate(466.972 888.851)" fill="none" stroke="#6a2fc2" stroke-width="1"/>
    </clipPath>
    <clipPath id="clip-path-2">
      <rect id="Rectangle_114" data-name="Rectangle 114" width="1116" height="915" transform="translate(-26.073 888.85)" fill="#fff" stroke="#707070" stroke-width="1"/>
    </clipPath>
    <clipPath id="clip-path-3">
      <rect id="Rectangle_69" data-name="Rectangle 69" width="2461.858" height="1777.706" fill="none" stroke="#6a2fc2" stroke-width="1"/>
    </clipPath>
  </defs>
  <g id="Group_143" data-name="Group 143" transform="translate(1691.938 -686.106) rotate(90)" opacity="0.7">
    <g id="Group_108" data-name="Group 108" transform="translate(219.134 158.236)" opacity="0.83" clip-path="url(#clip-path)">
      <g id="Mask_Group_14" data-name="Mask Group 14" transform="translate(423)" clip-path="url(#clip-path-2)">
        <g id="Group_107" data-name="Group 107" transform="translate(0 -0.005)" opacity="0.3">
          <g id="Group_106" data-name="Group 106">
            <g id="Group_105" data-name="Group 105" clip-path="url(#clip-path-3)">
              <path id="Path_5036" data-name="Path 5036" d="M1415.6,1423.643a663.208,663.208,0,0,1,419.59-419.678l349.324-116.4L1835.188,771.417A664.3,664.3,0,0,1,1415.6,351.374L1299.483,2.542,1183.047,351.374A664.449,664.449,0,0,1,763.256,771.417l-348.8,116.152,348.8,116.4a663.36,663.36,0,0,1,419.791,419.678L1299.483,1772.6,1415.6,1423.643" transform="translate(274.711 1.685)" fill="none" stroke="#6a2fc2" stroke-width="1"/>
              <path id="Path_5037" data-name="Path 5037" d="M1395.287,1423.643a663.209,663.209,0,0,1,419.59-419.678l349.324-116.4L1814.877,771.417a664.3,664.3,0,0,1-419.59-420.044L1279.172,2.542,1162.736,351.374A664.448,664.448,0,0,1,742.945,771.417l-348.8,116.152,348.8,116.4a663.359,663.359,0,0,1,419.791,419.678L1279.172,1772.6l116.115-348.953" transform="translate(261.248 1.685)" fill="none" stroke="#6a2fc2" stroke-width="1"/>
              <path id="Path_5038" data-name="Path 5038" d="M1374.553,1423.643a663.208,663.208,0,0,1,419.59-419.678l349.324-116.4L1794.143,771.417a664.3,664.3,0,0,1-419.59-420.044L1258.438,2.542,1142,351.374A664.451,664.451,0,0,1,722.211,771.417l-348.8,116.152,348.8,116.4A663.362,663.362,0,0,1,1142,1423.643L1258.438,1772.6l116.115-348.953" transform="translate(247.505 1.685)" fill="none" stroke="#6a2fc2" stroke-width="1"/>
              <path id="Path_5039" data-name="Path 5039" d="M1351.888,1423.643a663.208,663.208,0,0,1,419.59-419.678l349.324-116.4L1771.478,771.417a664.3,664.3,0,0,1-419.59-420.044L1235.773,2.542,1119.337,351.374A664.448,664.448,0,0,1,699.546,771.417l-348.8,116.152,348.8,116.4a663.359,663.359,0,0,1,419.791,419.678L1235.773,1772.6l116.115-348.953" transform="translate(232.482 1.685)" fill="none" stroke="#6a2fc2" stroke-width="1"/>
              <path id="Path_5040" data-name="Path 5040" d="M1327.467,1422.686a663.209,663.209,0,0,1,419.59-419.678l349.323-116.4L1747.057,770.461a664.3,664.3,0,0,1-419.59-420.044L1211.352,1.585,1094.917,350.417A664.451,664.451,0,0,1,675.125,770.461l-348.8,116.151,348.8,116.4a663.361,663.361,0,0,1,419.791,419.678l116.436,348.953,116.115-348.953" transform="translate(216.295 1.051)" fill="none" stroke="#6a2fc2" stroke-width="1"/>
              <path id="Path_5041" data-name="Path 5041" d="M1310.648,1424.121a663.207,663.207,0,0,1,419.59-419.678l349.324-116.4L1730.238,771.9a664.3,664.3,0,0,1-419.59-420.044L1194.533,3.02,1078.1,351.852A664.449,664.449,0,0,1,658.306,771.9l-348.8,116.151,348.8,116.4A663.359,663.359,0,0,1,1078.1,1424.121l116.436,348.953,116.115-348.953" transform="translate(205.147 2.002)" fill="none" stroke="#6a2fc2" stroke-width="1"/>
              <path id="Path_5042" data-name="Path 5042" d="M1290.337,1424.121a663.207,663.207,0,0,1,419.59-419.678l349.324-116.4L1709.927,771.9a664.3,664.3,0,0,1-419.59-420.044L1174.222,3.02,1057.786,351.852A664.449,664.449,0,0,1,638,771.9L289.2,888.047l348.8,116.4a663.36,663.36,0,0,1,419.791,419.678l116.436,348.953,116.115-348.953" transform="translate(191.685 2.002)" fill="none" stroke="#6a2fc2" stroke-width="1"/>
              <path id="Path_5043" data-name="Path 5043" d="M1269.6,1424.121a663.207,663.207,0,0,1,419.59-419.678l349.324-116.4L1689.191,771.9A664.3,664.3,0,0,1,1269.6,351.852L1153.487,3.02,1037.051,351.852A664.449,664.449,0,0,1,617.259,771.9l-348.8,116.151,348.8,116.4a663.36,663.36,0,0,1,419.791,419.678l116.436,348.953L1269.6,1424.121" transform="translate(177.942 2.002)" fill="none" stroke="#6a2fc2" stroke-width="1"/>
              <path id="Path_5044" data-name="Path 5044" d="M1246.938,1424.121a663.21,663.21,0,0,1,419.59-419.678l349.324-116.4L1666.528,771.9a664.3,664.3,0,0,1-419.59-420.044L1130.823,3.02,1014.388,351.852A664.45,664.45,0,0,1,594.6,771.9L245.8,888.047l348.8,116.4a663.36,663.36,0,0,1,419.791,419.678l116.435,348.953,116.115-348.953" transform="translate(162.919 2.002)" fill="none" stroke="#6a2fc2" stroke-width="1"/>
              <path id="Path_5045" data-name="Path 5045" d="M1222.517,1423.165a663.209,663.209,0,0,1,419.59-419.678l349.324-116.4L1642.107,770.939A664.3,664.3,0,0,1,1222.517,350.9L1106.4,2.062,989.966,350.9A664.449,664.449,0,0,1,570.175,770.939l-348.8,116.151,348.8,116.4a663.36,663.36,0,0,1,419.791,419.678L1106.4,1772.118l116.115-348.953" transform="translate(146.732 1.367)" fill="none" stroke="#6a2fc2" stroke-width="1"/>
              <path id="Path_5046" data-name="Path 5046" d="M1199.378,1424.121a663.209,663.209,0,0,1,419.59-419.678l349.324-116.4L1618.968,771.9a664.3,664.3,0,0,1-419.59-420.044L1083.263,3.02,966.827,351.852A664.449,664.449,0,0,1,547.036,771.9l-348.8,116.151,348.8,116.4a663.36,663.36,0,0,1,419.791,419.678l116.436,348.953,116.115-348.953" transform="translate(131.395 2.002)" fill="none" stroke="#6a2fc2" stroke-width="1"/>
              <path id="Path_5047" data-name="Path 5047" d="M1179.067,1424.121a663.209,663.209,0,0,1,419.59-419.678l349.324-116.4L1598.657,771.9a664.3,664.3,0,0,1-419.59-420.044L1062.952,3.02,946.516,351.852A664.45,664.45,0,0,1,526.725,771.9l-348.8,116.151,348.8,116.4a663.36,663.36,0,0,1,419.791,419.678l116.436,348.953,116.115-348.953" transform="translate(117.933 2.002)" fill="none" stroke="#6a2fc2" stroke-width="1"/>
              <path id="Path_5048" data-name="Path 5048" d="M1158.332,1424.121a663.209,663.209,0,0,1,419.59-419.678l349.324-116.4L1577.922,771.9a664.3,664.3,0,0,1-419.59-420.044L1042.217,3.02,925.781,351.852A664.449,664.449,0,0,1,505.99,771.9L157.19,888.047l348.8,116.4a663.359,663.359,0,0,1,419.791,419.678l116.436,348.953,116.115-348.953" transform="translate(104.189 2.002)" fill="none" stroke="#6a2fc2" stroke-width="1"/>
              <path id="Path_5049" data-name="Path 5049" d="M1135.667,1424.121a663.208,663.208,0,0,1,419.589-419.678l349.324-116.4L1555.256,771.9a664.3,664.3,0,0,1-419.589-420.044L1019.551,3.02,903.116,351.852A664.449,664.449,0,0,1,483.325,771.9l-348.8,116.151,348.8,116.4a663.36,663.36,0,0,1,419.791,419.678l116.436,348.953,116.115-348.953" transform="translate(89.167 2.002)" fill="none" stroke="#6a2fc2" stroke-width="1"/>
              <path id="Path_5050" data-name="Path 5050" d="M1111.247,1423.165a663.208,663.208,0,0,1,419.59-419.678l349.324-116.4L1530.837,770.939A664.3,664.3,0,0,1,1111.247,350.9L995.132,2.062,878.7,350.9A664.449,664.449,0,0,1,458.905,770.939l-348.8,116.151,348.8,116.4A663.36,663.36,0,0,1,878.7,1423.165l116.436,348.953,116.115-348.953" transform="translate(72.98 1.367)" fill="none" stroke="#6a2fc2" stroke-width="1"/>
              <path id="Path_5051" data-name="Path 5051" d="M1090.854,1424.121a663.208,663.208,0,0,1,419.59-419.678l349.324-116.4L1510.444,771.9a664.3,664.3,0,0,1-419.59-420.044L974.739,3.02,858.3,351.852A664.449,664.449,0,0,1,438.512,771.9L89.712,888.047l348.8,116.4A663.36,663.36,0,0,1,858.3,1424.121l116.436,348.953,116.115-348.953" transform="translate(59.463 2.002)" fill="none" stroke="#6a2fc2" stroke-width="1"/>
              <path id="Path_5052" data-name="Path 5052" d="M1070.543,1424.121a663.209,663.209,0,0,1,419.59-419.678l349.324-116.4L1490.133,771.9a664.3,664.3,0,0,1-419.59-420.044L954.428,3.02,837.992,351.852A664.448,664.448,0,0,1,418.2,771.9L69.4,888.047l348.8,116.4a663.359,663.359,0,0,1,419.791,419.678l116.436,348.953,116.115-348.953" transform="translate(46.001 2.002)" fill="none" stroke="#6a2fc2" stroke-width="1"/>
              <path id="Path_5053" data-name="Path 5053" d="M1049.807,1424.121a663.208,663.208,0,0,1,419.59-419.678l349.324-116.4L1469.4,771.9a664.3,664.3,0,0,1-419.59-420.044L933.692,3.02,817.257,351.852A664.45,664.45,0,0,1,397.466,771.9L48.667,888.047l348.8,116.4a663.36,663.36,0,0,1,419.791,419.678l116.436,348.953,116.115-348.953" transform="translate(32.258 2.002)" fill="none" stroke="#6a2fc2" stroke-width="1"/>
              <path id="Path_5054" data-name="Path 5054" d="M1027.144,1424.121a663.208,663.208,0,0,1,419.59-419.678l349.324-116.4L1446.734,771.9a664.3,664.3,0,0,1-419.59-420.044L911.029,3.02,794.593,351.852A664.45,664.45,0,0,1,374.8,771.9L26,888.047l348.8,116.4a663.36,663.36,0,0,1,419.791,419.678l116.436,348.953,116.115-348.953" transform="translate(17.235 2.002)" fill="none" stroke="#6a2fc2" stroke-width="1"/>
              <path id="Path_5055" data-name="Path 5055" d="M1002.723,1423.165a663.208,663.208,0,0,1,419.59-419.678l349.324-116.4L1422.313,770.939A664.3,664.3,0,0,1,1002.723,350.9L886.608,2.062,770.172,350.9A664.449,664.449,0,0,1,350.381,770.939L1.581,887.091l348.8,116.4a663.36,663.36,0,0,1,419.791,419.678l116.436,348.953,116.115-348.953" transform="translate(1.048 1.367)" fill="none" stroke="#6a2fc2" stroke-width="1"/>
            </g>
          </g>
        </g>
      </g>
    </g>
  </g>
</svg>
