<svg xmlns="http://www.w3.org/2000/svg" xmlns:xlink="http://www.w3.org/1999/xlink" width="161.042" height="57.484" viewBox="0 0 161.042 57.484">
  <defs>
    <clipPath id="clip-path">
      <rect id="Rectangle_179" data-name="Rectangle 179" width="161.042" height="57.484" fill="none"/>
    </clipPath>
  </defs>
  <g id="Logo_New" data-name="Logo New" transform="translate(0 0)">
    <g id="Group_496" data-name="Group 496" transform="translate(0 0)" clip-path="url(#clip-path)">
      <path id="Path_5335" data-name="Path 5335" d="M1.212,62.316a8.8,8.8,0,0,1,3.3-3.358,9.116,9.116,0,0,1,4.647-1.21A9.435,9.435,0,0,1,14.4,59.2,8.305,8.305,0,0,1,17.669,63.3H14.8a5.76,5.76,0,0,0-2.2-2.555,6.364,6.364,0,0,0-3.436-.9,6.7,6.7,0,0,0-3.45.9,6.266,6.266,0,0,0-2.4,2.541,8.946,8.946,0,0,0,0,7.689,6.255,6.255,0,0,0,2.4,2.54,6.683,6.683,0,0,0,3.45.9,6.431,6.431,0,0,0,3.436-.882,5.68,5.68,0,0,0,2.2-2.54h2.87A8.241,8.241,0,0,1,14.4,75.06,9.494,9.494,0,0,1,9.164,76.5a9.187,9.187,0,0,1-4.647-1.2,8.728,8.728,0,0,1-3.3-3.331,10.213,10.213,0,0,1,0-9.65" transform="translate(0 -19.09)" fill="#fff"/>
      <path id="Path_5336" data-name="Path 5336" d="M35.117,64.253a5.573,5.573,0,0,1,2.857-.685v2.476h-.632q-4.029,0-4.029,4.371v7.847h-2.4V63.832h2.4v2.343a4.6,4.6,0,0,1,1.8-1.922" transform="translate(-10.221 -21.014)" fill="#fff"/>
      <path id="Path_5337" data-name="Path 5337" d="M57.446,71.955H45.914A4.535,4.535,0,0,0,50.6,76.484a4.433,4.433,0,0,0,2.594-.724,3.838,3.838,0,0,0,1.461-1.935h2.58a6.2,6.2,0,0,1-2.317,3.383,6.989,6.989,0,0,1-4.318,1.3,7.293,7.293,0,0,1-3.673-.921,6.526,6.526,0,0,1-2.541-2.62,8.125,8.125,0,0,1-.921-3.936,8.241,8.241,0,0,1,.9-3.924,6.3,6.3,0,0,1,2.514-2.594,7.491,7.491,0,0,1,3.726-.908,7.248,7.248,0,0,1,3.634.9,6.2,6.2,0,0,1,2.435,2.462,7.268,7.268,0,0,1,.856,3.542,14.048,14.048,0,0,1-.079,1.448m-3-4.305a3.944,3.944,0,0,0-1.645-1.5,5.13,5.13,0,0,0-2.3-.514A4.445,4.445,0,0,0,47.4,66.794a4.72,4.72,0,0,0-1.461,3.213h9.111a4.417,4.417,0,0,0-.606-2.356" transform="translate(-14.369 -21.027)" fill="#fff"/>
      <path id="Path_5338" data-name="Path 5338" d="M67.961,64.744a6.5,6.5,0,0,1,2.461-2.594,6.809,6.809,0,0,1,3.515-.921A6.539,6.539,0,0,1,77.071,62a5.619,5.619,0,0,1,2.212,2.04V56.41h2.423V75.895H79.283V73.184A5.6,5.6,0,0,1,77.177,75.3a6.271,6.271,0,0,1-3.265.829,6.563,6.563,0,0,1-5.951-3.607,8.276,8.276,0,0,1-.9-3.9,8.105,8.105,0,0,1,.9-3.884m10.664,1.067a4.649,4.649,0,0,0-1.778-1.856,5.04,5.04,0,0,0-4.911-.013,4.582,4.582,0,0,0-1.764,1.843,5.862,5.862,0,0,0-.658,2.844,6,6,0,0,0,.658,2.884,4.664,4.664,0,0,0,1.764,1.87,4.774,4.774,0,0,0,2.449.644,4.844,4.844,0,0,0,2.461-.644,4.642,4.642,0,0,0,1.778-1.87,5.951,5.951,0,0,0,.657-2.857,5.868,5.868,0,0,0-.657-2.844" transform="translate(-22.17 -18.648)" fill="#fff"/>
      <rect id="Rectangle_177" data-name="Rectangle 177" width="2.397" height="14.429" transform="translate(63.063 42.817)" fill="#fff"/>
      <path id="Path_5339" data-name="Path 5339" d="M105.355,64.142v8.5a2.024,2.024,0,0,0,.447,1.488,2.21,2.21,0,0,0,1.554.434h1.765V76.6h-2.16a4.3,4.3,0,0,1-3-.921,3.954,3.954,0,0,1-1-3.028v-8.5h-1.87V62.168h1.87V58.534h2.4v3.634h3.765v1.974Z" transform="translate(-33.418 -19.35)" fill="#fff"/>
      <path id="Path_5340" data-name="Path 5340" d="M119.023,60.036v6.136h6.688v1.974h-6.688v6.32H126.5v1.975h-9.875V58.062H126.5v1.974Z" transform="translate(-38.555 -19.194)" fill="#fff"/>
      <path id="Path_5341" data-name="Path 5341" d="M147.315,65.162a6.132,6.132,0,0,1,1.632,4.594v8.5h-2.37V70.1a4.641,4.641,0,0,0-1.079-3.3,3.858,3.858,0,0,0-2.949-1.145,3.951,3.951,0,0,0-3.015,1.185,4.844,4.844,0,0,0-1.119,3.45v7.978h-2.4V63.832h2.4v2.053a4.761,4.761,0,0,1,1.935-1.712,6.012,6.012,0,0,1,2.7-.606,5.847,5.847,0,0,1,4.266,1.594" transform="translate(-44.965 -21.014)" fill="#fff"/>
      <path id="Path_5342" data-name="Path 5342" d="M159.964,67.123a6.5,6.5,0,0,1,2.462-2.594,6.756,6.756,0,0,1,3.489-.921,6.407,6.407,0,0,1,3.291.817,5.446,5.446,0,0,1,2.081,2.053V63.846h2.423V78.274h-2.423V75.589a5.652,5.652,0,0,1-2.119,2.093,6.343,6.343,0,0,1-3.279.829,6.537,6.537,0,0,1-3.475-.948,6.637,6.637,0,0,1-2.449-2.66,8.284,8.284,0,0,1-.9-3.9,8.113,8.113,0,0,1,.9-3.884m10.665,1.067a4.647,4.647,0,0,0-1.777-1.856,5.04,5.04,0,0,0-4.911-.013,4.573,4.573,0,0,0-1.764,1.843,5.862,5.862,0,0,0-.659,2.844,6,6,0,0,0,.659,2.884,4.655,4.655,0,0,0,1.764,1.87,4.773,4.773,0,0,0,2.449.644,4.846,4.846,0,0,0,2.462-.644,4.641,4.641,0,0,0,1.777-1.87,5.951,5.951,0,0,0,.658-2.857,5.867,5.867,0,0,0-.658-2.844" transform="translate(-52.585 -21.027)" fill="#fff"/>
      <path id="Path_5343" data-name="Path 5343" d="M190.764,62.045A6.4,6.4,0,0,1,194,61.228a6.739,6.739,0,0,1,3.5.921,6.534,6.534,0,0,1,2.449,2.594,8.113,8.113,0,0,1,.9,3.884,8.284,8.284,0,0,1-.9,3.9A6.565,6.565,0,0,1,194,76.132a6.421,6.421,0,0,1-3.279-.816,5.545,5.545,0,0,1-2.119-2.08v2.659h-2.4V56.41h2.4v7.742a5.654,5.654,0,0,1,2.159-2.107m6.978,3.739a4.56,4.56,0,0,0-1.777-1.843,4.918,4.918,0,0,0-2.462-.632,4.786,4.786,0,0,0-2.435.645,4.707,4.707,0,0,0-1.791,1.87,5.786,5.786,0,0,0-.671,2.83,5.849,5.849,0,0,0,.671,2.857,4.72,4.72,0,0,0,1.791,1.87,4.792,4.792,0,0,0,2.435.645,4.847,4.847,0,0,0,2.462-.645,4.641,4.641,0,0,0,1.777-1.87,6.01,6.01,0,0,0,.658-2.884,5.87,5.87,0,0,0-.658-2.844" transform="translate(-61.557 -18.648)" fill="#fff"/>
      <rect id="Rectangle_178" data-name="Rectangle 178" width="2.397" height="19.485" transform="translate(141.925 37.762)" fill="#fff"/>
      <path id="Path_5344" data-name="Path 5344" d="M233.547,71.955H222.015a4.535,4.535,0,0,0,4.687,4.529,4.433,4.433,0,0,0,2.594-.724,3.838,3.838,0,0,0,1.461-1.935h2.58a6.2,6.2,0,0,1-2.317,3.383,6.989,6.989,0,0,1-4.318,1.3,7.293,7.293,0,0,1-3.673-.921,6.526,6.526,0,0,1-2.541-2.62,8.125,8.125,0,0,1-.921-3.936,8.241,8.241,0,0,1,.9-3.924,6.3,6.3,0,0,1,2.514-2.594,7.491,7.491,0,0,1,3.726-.908,7.248,7.248,0,0,1,3.634.9,6.2,6.2,0,0,1,2.435,2.462,7.268,7.268,0,0,1,.856,3.542,14.047,14.047,0,0,1-.079,1.448m-3-4.305a3.944,3.944,0,0,0-1.645-1.5,5.13,5.13,0,0,0-2.3-.514,4.445,4.445,0,0,0-3.094,1.159,4.72,4.72,0,0,0-1.461,3.213h9.111a4.417,4.417,0,0,0-.606-2.356" transform="translate(-72.584 -21.027)" fill="#fff"/>
      <path id="Path_5345" data-name="Path 5345" d="M94.156,48.334a3,3,0,0,1,1.9-1.9l1.578-.525-1.578-.525a3,3,0,0,1-1.9-1.9l-.525-1.576L93.1,43.489a3,3,0,0,1-1.9,1.9l-1.576.525,1.576.525a3,3,0,0,1,1.9,1.9l.526,1.576Z" transform="translate(-29.631 -13.855)" fill="#fff" fill-rule="evenodd"/>
      <path id="Path_5346" data-name="Path 5346" d="M212.643,38.791a3,3,0,0,1,1.9-1.9l1.578-.525-1.578-.525a3,3,0,0,1-1.9-1.9l-.525-1.576-.526,1.576a3,3,0,0,1-1.9,1.9l-1.576.525,1.576.525a3,3,0,0,1,1.9,1.9l.526,1.576Z" transform="translate(-68.801 -10.701)" fill="#fff" fill-rule="evenodd"/>
      <path id="Path_5347" data-name="Path 5347" d="M226.382,22.607a3,3,0,0,1,1.9-1.9l1.577-.526-1.577-.525a3,3,0,0,1-1.9-1.9l-.525-1.577-.526,1.577a3,3,0,0,1-1.9,1.9l-1.576.525,1.576.526a3,3,0,0,1,1.9,1.9l.526,1.576Z" transform="translate(-73.342 -5.35)" fill="#fff" fill-rule="evenodd"/>
      <path id="Path_5348" data-name="Path 5348" d="M212.643,6.421a3,3,0,0,1,1.9-1.9L216.118,4l-1.578-.525a3,3,0,0,1-1.9-1.9L212.118,0l-.526,1.576a3,3,0,0,1-1.9,1.9L208.12,4l1.576.525a3,3,0,0,1,1.9,1.9L212.118,8Z" transform="translate(-68.801 0)" fill="#fff" fill-rule="evenodd"/>
      <path id="Path_5349" data-name="Path 5349" d="M102.614,32.318a167.371,167.371,0,0,1,16.93-11.2,88.068,88.068,0,0,1,18.649-8.286A53.692,53.692,0,0,1,148.3,10.888a40.811,40.811,0,0,1,10.3.38,46.4,46.4,0,0,1,18.753,7.766A55.492,55.492,0,0,0,158.381,12.8a49.047,49.047,0,0,0-4.952-.311c-.827.015-1.653.021-2.478.062-.824.073-1.651.089-2.471.207a53.849,53.849,0,0,0-9.729,1.975,78.755,78.755,0,0,0-9.391,3.419c-3.081,1.3-6.086,2.793-9.079,4.318-5.973,3.081-11.8,6.489-17.667,9.845" transform="translate(-33.922 -3.546)" fill="#fff"/>
    </g>
  </g>
</svg>
