<svg xmlns="http://www.w3.org/2000/svg" xmlns:xlink="http://www.w3.org/1999/xlink" width="136.828" height="116" viewBox="0 0 136.828 116">
  <defs>
    <clipPath id="clip-path">
      <rect id="Rectangle_2227" data-name="Rectangle 2227" width="136.828" height="116" fill="none"/>
    </clipPath>
  </defs>
  <g id="Group_2923" data-name="Group 2923" transform="translate(0 0)">
    <g id="Group_2922" data-name="Group 2922" transform="translate(0 0)" clip-path="url(#clip-path)">
      <path id="Path_5680" data-name="Path 5680" d="M99.393,53.882A45.718,45.718,0,1,1,53.677,8.166,45.718,45.718,0,0,1,99.393,53.882" transform="translate(15.078 15.472)" fill="#12ba9b"/>
      <path id="Path_5681" data-name="Path 5681" d="M91.077,50.593A40.691,40.691,0,1,1,50.386,9.9,40.689,40.689,0,0,1,91.077,50.593" transform="translate(18.369 18.761)" fill="#fff"/>
      <path id="Path_5682" data-name="Path 5682" d="M14.447,48.793c0-16.37,8.574-30.612,21.215-37.941a40.7,40.7,0,0,0,0,75.885C23.021,79.408,14.447,65.163,14.447,48.793" transform="translate(18.367 20.561)" fill="#fff"/>
      <path id="Path_5683" data-name="Path 5683" d="M32.554,29.63a8.434,8.434,0,0,0,.052-.944,8.8,8.8,0,0,0-17.6,0,8.436,8.436,0,0,0,.052.944" transform="translate(28.438 37.684)" fill="none" stroke="#12ba9b" stroke-width="1.447"/>
      <path id="Path_5684" data-name="Path 5684" d="M44.061,29.63a9.185,9.185,0,0,0,.052-.944,8.8,8.8,0,0,0-17.6,0,9.191,9.191,0,0,0,.049.944" transform="translate(50.24 37.684)" fill="none" stroke="#12ba9b" stroke-width="1.447"/>
      <path id="Path_5685" data-name="Path 5685" d="M13.779,33.416A6.515,6.515,0,1,1,7.263,26.9,6.512,6.512,0,0,1,13.779,33.416Z" transform="translate(1.421 50.973)" fill="none" stroke="#12ba9b" stroke-width="1.5"/>
      <circle id="Ellipse_146" data-name="Ellipse 146" cx="4.082" cy="4.082" r="4.082" transform="translate(102.939 106.1)" fill="none" stroke="#00964b" stroke-width="1.2"/>
      <path id="Path_5686" data-name="Path 5686" d="M45.891,12.85a2.866,2.866,0,1,1-2.866-2.866,2.865,2.865,0,0,1,2.866,2.866" transform="translate(76.09 18.917)" fill="#12ba9b"/>
      <path id="Path_5687" data-name="Path 5687" d="M13.028,36.148a2.866,2.866,0,1,1-2.866-2.866,2.867,2.867,0,0,1,2.866,2.866" transform="translate(13.824 63.06)" fill="#12ba9b"/>
      <path id="Path_5688" data-name="Path 5688" d="M2.807,21.216l8.065,7.1L23.753,8.094" transform="translate(5.318 15.335)" fill="none" stroke="#12ba9b" stroke-linecap="round" stroke-linejoin="round" stroke-width="3.49"/>
      <path id="Path_5689" data-name="Path 5689" d="M41.894,39.056l4.988,4.391,7.966-12.505" transform="translate(79.377 58.625)" fill="none" stroke="#12ba9b" stroke-linecap="round" stroke-linejoin="round" stroke-width="2.8"/>
      <path id="Path_5690" data-name="Path 5690" d="M30.86,6.822l3.694,3.254L40.456.81" transform="translate(58.471 1.535)" fill="none" stroke="#12ba9b" stroke-linecap="round" stroke-linejoin="round" stroke-width="1.62"/>
      <path id="Path_5691" data-name="Path 5691" d="M18.983,27.128a13.519,13.519,0,0,0-.081,1.5,14,14,0,0,0,28,0,14.256,14.256,0,0,0-.081-1.5Z" transform="translate(35.814 51.4)" fill="none" stroke="#12ba9b" stroke-width="2"/>
    </g>
  </g>
</svg>
