<svg xmlns="http://www.w3.org/2000/svg" xmlns:xlink="http://www.w3.org/1999/xlink" width="76.759" height="78.141" viewBox="0 0 76.759 78.141">
  <defs>
    <clipPath id="clip-path">
      <rect id="Rectangle_2229" data-name="Rectangle 2229" width="76.759" height="78.141" fill="none"/>
    </clipPath>
  </defs>
  <g id="Group_2929" data-name="Group 2929" transform="translate(-840.535 -5206)">
    <g id="Group_2928" data-name="Group 2928" transform="translate(840.534 5206)">
      <g id="Group_2927" data-name="Group 2927" transform="translate(0 0)" clip-path="url(#clip-path)">
        <path id="Path_5692" data-name="Path 5692" d="M35.621,54.213A28.428,28.428,0,0,0,17.369,18.391,27.026,27.026,0,0,0,8.584,17" transform="translate(30.506 -6.369)" fill="none" stroke="#e2e2e2" stroke-width="2"/>
        <path id="Path_5693" data-name="Path 5693" d="M45.428,17a28.428,28.428,0,1,0,0,56.856A27.982,27.982,0,0,0,72.465,54.213" transform="translate(-6.338 -6.369)" fill="none" stroke="#12ba9b" stroke-linecap="round" stroke-width="8" opacity="0.8"/>
        <path id="Path_5694" data-name="Path 5694" d="M208.249,17.13a28.428,28.428,0,1,0,0,56.856" transform="translate(-169.189 -6.477)" fill="none" stroke="#6a2fc2" stroke-linecap="round" stroke-width="8"/>
      </g>
    </g>
    <text id="_45_" data-name="45%" transform="translate(879 5250)" fill="#3f3f3f" font-size="12" font-family="Poppins-SemiBold, Poppins" font-weight="600" letter-spacing="0.02em"><tspan x="-13" y="0">45%</tspan></text>
  </g>
</svg>
