<svg id="Component_70_92" data-name="Component 70 – 92" xmlns="http://www.w3.org/2000/svg" width="32" height="32" viewBox="0 0 32 32">
  <path id="Polygon_10" data-name="Polygon 10" d="M19.137.267a.5.5,0,0,1,.69.157l1.829,2.915a.5.5,0,0,0,.475.232l3.356-.35a.5.5,0,0,1,.548.437l.417,3.461a.5.5,0,0,0,.322.409l3.19,1.185a.5.5,0,0,1,.3.625l-1.092,3.317a.5.5,0,0,0,.113.5l2.385,2.5a.5.5,0,0,1,0,.69l-2.385,2.5a.5.5,0,0,0-.113.5l1.092,3.317a.5.5,0,0,1-.3.625l-3.19,1.185a.5.5,0,0,0-.322.409l-.417,3.461a.5.5,0,0,1-.548.437l-3.356-.35a.5.5,0,0,0-.475.232l-1.829,2.915a.5.5,0,0,1-.69.157l-2.87-1.806a.5.5,0,0,0-.533,0l-2.87,1.806a.5.5,0,0,1-.69-.157l-1.829-2.915a.5.5,0,0,0-.475-.232l-3.356.35a.5.5,0,0,1-.548-.437l-.417-3.461a.5.5,0,0,0-.322-.409l-3.19-1.185a.5.5,0,0,1-.3-.625l1.092-3.317a.5.5,0,0,0-.113-.5l-2.385-2.5a.5.5,0,0,1,0-.69l2.385-2.5a.5.5,0,0,0,.113-.5L1.735,9.337a.5.5,0,0,1,.3-.625l3.19-1.185a.5.5,0,0,0,.322-.409l.417-3.461a.5.5,0,0,1,.548-.437l3.356.35a.5.5,0,0,0,.475-.232L12.174.424a.5.5,0,0,1,.69-.157l2.87,1.806a.5.5,0,0,0,.533,0Z" fill="#3f3f3f"/>
  <path id="Path_5595" data-name="Path 5595" d="M-11661.332,366.895l3-2.585,3.969,4.449,11.12-9.258,2.35,2.705-14.13,11.844Z" transform="translate(11667.602 -350.727)" fill="#fff"/>
</svg>
