<svg xmlns="http://www.w3.org/2000/svg" xmlns:xlink="http://www.w3.org/1999/xlink" width="115.992" height="207.555" viewBox="0 0 115.992 207.555">
  <defs>
    <clipPath id="clip-path">
      <rect id="Rectangle_210" data-name="Rectangle 210" width="115.992" height="207.555" fill="none"/>
    </clipPath>
    <clipPath id="clip-path-2">
      <path id="Path_5550" data-name="Path 5550" d="M16.421,116.932c-.391,1.439.719,1.9.762,2.763s.128,5.121.128,5.121l.242.01.452-4.728a11.145,11.145,0,0,1,2.274,1.4c1.559,1.142,1.776,3.533,3.453,3.727s5.5.254,5.5.254a24.856,24.856,0,0,1-4.031-3.248,18.142,18.142,0,0,1-1.05-1.595,9.088,9.088,0,0,1-3.821-2.039,9.285,9.285,0,0,1-2.718-4.035,6.553,6.553,0,0,0-1.194,2.365" transform="translate(-16.337 -114.567)" fill="#222"/>
    </clipPath>
    <clipPath id="clip-path-4">
      <path id="Path_5552" data-name="Path 5552" d="M15.13,61.017c1.576,6-3.313,19.508-3.313,19.508H34.7S30.931,77.2,29.77,67.7c-.439-3.586,1.257-15.545.225-22.136-.388-2.479,3.75-.64,2.119-8.235-.9-4.2-7.419-13.377-7.419-13.377l-13.711-.33s-.009,21.579,4.146,37.391" transform="translate(-10.984 -23.626)" fill="#12ba9b"/>
    </clipPath>
    <clipPath id="clip-path-6">
      <path id="Path_5558" data-name="Path 5558" d="M54.3,8.831,42.081,45.2S23.833,37.895,19.4,36.752s-6,2.857-1.429,5.286,26.136,7.777,26.136,7.777L64.574,8.831Z" transform="translate(-17.082 -8.831)" fill="#e1cbc4" stroke="#707070" stroke-linecap="round" stroke-width="1"/>
    </clipPath>
    <clipPath id="clip-path-7">
      <path id="Path_5554" data-name="Path 5554" d="M11.478,65.435c.791,7.685,4.351,11.369,4.515,13.607s1.62,10.335,1.62,10.335l14.328.594s1.853-24.9,1.11-28.737-1.173-5.756-1.173-5.756l-17.671-.038s-3.063,6.728-2.729,9.994" transform="translate(-11.452 -55.441)" fill="#12ba9b"/>
    </clipPath>
    <clipPath id="clip-path-8">
      <path id="Path_5555" data-name="Path 5555" d="M19.548,117.528c-.391,1.439.719,1.9.76,2.763s.13,5.121.13,5.121l.242.01.452-4.728a11.145,11.145,0,0,1,2.274,1.4c1.559,1.142,1.774,3.533,3.451,3.727s5.5.254,5.5.254a24.856,24.856,0,0,1-4.031-3.248,18.689,18.689,0,0,1-1.05-1.595,9.1,9.1,0,0,1-3.823-2.039,9.322,9.322,0,0,1-2.718-4.037,6.584,6.584,0,0,0-1.192,2.367" transform="translate(-19.464 -115.161)" fill="#222"/>
    </clipPath>
    <clipPath id="clip-path-9">
      <path id="Path_5556" data-name="Path 5556" d="M16.932,6.948c-3.587,1.2-8.445,6.751-8.5,13.578S13.114,35.444,13.4,39.1C13.979,46.418,0,49.078,0,49.078s5.16,4.574,9.567,4.564,7.376-3.365,10.011-6.705c.536-.681.992-1.26,1.407-1.781l5.257-8.164s-2.223-7.378-2.307-12.115,4.154-5.4,7.728-5.732,3.4-4.632,3.4-4.632.441-1.141-.712-2.985-5.336-1.738-5.336-1.738a4.75,4.75,0,0,0-1.071-2.36,7.465,7.465,0,0,0-5.1-1.583,18.7,18.7,0,0,0-5.913,1.1" transform="translate(0 -5.848)" fill="#222"/>
    </clipPath>
    <clipPath id="clip-path-10">
      <path id="Path_5557" data-name="Path 5557" d="M100.525,0,21.862,19.865l.989,3.441L97.24,12.694Z" transform="translate(-21.862 0)" fill="#c3e128"/>
    </clipPath>
  </defs>
  <g id="Group_627" data-name="Group 627" transform="translate(-270.939 -370)">
    <g id="Group_623" data-name="Group 623" transform="translate(270.939 370)">
      <g id="Group_604" data-name="Group 604" transform="translate(0 0)">
        <g id="Group_603" data-name="Group 603" clip-path="url(#clip-path)">
          <path id="Path_5548" data-name="Path 5548" d="M35.065,14.515s1.808,3.632,3.253,4.655a15.7,15.7,0,0,0,3.914,1.721A6.474,6.474,0,0,0,40.6,24.755c.02,2.078.5,3.265-.183,4.081s-2.283,1.48-5.821.977-4.245-.552-4.245-.552a7.88,7.88,0,0,0-.89,2.315,30.654,30.654,0,0,0,.27,3.485s-.977-.046-2.735,2.015a32.76,32.76,0,0,0-2.94,4.059l-.755,1.115s-1.093,1.346-3.727,4.687-5.6,6.7-10.011,6.707S0,49.078,0,49.078s13.981-2.66,13.4-9.977c-.289-3.657-5.03-11.754-4.972-18.576s4.914-12.374,8.5-13.578c7.171-2.4,10.207-.215,11.013.485A4.74,4.74,0,0,1,29.017,9.79s4.183-.106,5.336,1.738.712,2.986.712,2.986" transform="translate(0 4.138)" fill="#e1cbc4"/>
          <path id="Path_5549" data-name="Path 5549" d="M15.811,71.554,17.986,145l1.924,5.041,4.591,1.217-2.821-4.508.244-74.575Z" transform="translate(11.186 50.624)" fill="#e1cbc4"/>
        </g>
      </g>
      <g id="Group_606" data-name="Group 606" transform="translate(27.896 195.623)">
        <g id="Group_605" data-name="Group 605" clip-path="url(#clip-path-2)">
          <rect id="Rectangle_211" data-name="Rectangle 211" width="13.206" height="10.916" transform="translate(-0.308 0)" fill="#222"/>
        </g>
      </g>
      <g id="Group_608" data-name="Group 608" transform="translate(0 0)">
        <g id="Group_607" data-name="Group 607" clip-path="url(#clip-path)">
          <path id="Path_5551" data-name="Path 5551" d="M18.938,72.149l2.175,73.445,1.924,5.041,4.591,1.217-2.821-4.508.242-74.575Z" transform="translate(13.399 51.045)" fill="#e1cbc4"/>
        </g>
      </g>
      <g id="Group_610" data-name="Group 610" transform="translate(18.755 40.341)">
        <g id="Group_609" data-name="Group 609" clip-path="url(#clip-path-4)">
          <rect id="Rectangle_213" data-name="Rectangle 213" width="23.721" height="56.899" transform="translate(-0.009 0)" fill="#12ba9b"/>
        </g>
      </g>
      <g id="Group_612" data-name="Group 612" transform="translate(0 0)">
        <g id="Group_611" data-name="Group 611" clip-path="url(#clip-path)">
          <path id="Path_5553" data-name="Path 5553" d="M10.983,24.779,12.235,22l12.806,1.82,5.271,10.151-7.2-7.913Z" transform="translate(7.771 15.563)" fill="#fff"/>
        </g>
      </g>
      <g id="Group_622" data-name="Group 622" transform="translate(29.167 15.079)">
        <g id="Group_621" data-name="Group 621" clip-path="url(#clip-path-6)">
          <rect id="Rectangle_219" data-name="Rectangle 219" width="62.562" height="62.562" transform="translate(-20.492 20.492) rotate(-45)" fill="#e1cbc4"/>
        </g>
      </g>
      <g id="Group_614" data-name="Group 614" transform="translate(19.554 94.665)">
        <g id="Group_613" data-name="Group 613" clip-path="url(#clip-path-7)">
          <rect id="Rectangle_215" data-name="Rectangle 215" width="22.65" height="34.531" transform="translate(-0.309 0)" fill="#12ba9b"/>
        </g>
      </g>
      <g id="Group_616" data-name="Group 616" transform="translate(33.235 196.637)">
        <g id="Group_615" data-name="Group 615" clip-path="url(#clip-path-8)">
          <rect id="Rectangle_216" data-name="Rectangle 216" width="13.206" height="10.918" transform="translate(-0.308 0)" fill="#222"/>
        </g>
      </g>
      <g id="Group_618" data-name="Group 618" transform="translate(0 9.985)">
        <g id="Group_617" data-name="Group 617" clip-path="url(#clip-path-9)">
          <rect id="Rectangle_217" data-name="Rectangle 217" width="58.909" height="58.909" transform="translate(-23.902 23.902) rotate(-45)" fill="#222"/>
        </g>
      </g>
      <g id="Group_620" data-name="Group 620" transform="translate(37.329 0)">
        <g id="Group_619" data-name="Group 619" clip-path="url(#clip-path-10)">
          <rect id="Rectangle_218" data-name="Rectangle 218" width="72.103" height="72.103" transform="translate(-11.653 11.653) rotate(-45)" fill="#c3e128"/>
        </g>
      </g>
    </g>
  </g>
</svg>
