<svg xmlns="http://www.w3.org/2000/svg" width="242.702" height="335.164" viewBox="0 0 242.702 335.164">
  <g id="Group_506" data-name="Group 506" transform="translate(-952.068 -2575.93)" opacity="0.13">
    <g id="Group_505" data-name="Group 505" transform="translate(1193.188 2577.511) rotate(90)">
      <path id="Path_5353" data-name="Path 5353" d="M135.3,192.057a89.63,89.63,0,0,1,56.706-56.718l47.21-15.73-47.21-15.7A89.777,89.777,0,0,1,135.3,47.143L119.608,0,103.872,47.143a89.8,89.8,0,0,1-56.733,56.767L0,119.608l47.139,15.73a89.651,89.651,0,0,1,56.733,56.718l15.736,47.16,15.693-47.16" transform="translate(92.783 0.215)" fill="none" stroke="#fff" stroke-width="1"/>
      <path id="Path_5354" data-name="Path 5354" d="M135.3,192.057a89.63,89.63,0,0,1,56.706-56.718l47.21-15.73-47.21-15.7A89.778,89.778,0,0,1,135.3,47.143L119.608,0,103.872,47.143a89.8,89.8,0,0,1-56.733,56.767L0,119.608l47.139,15.73a89.651,89.651,0,0,1,56.733,56.718l15.736,47.16,15.693-47.16" transform="translate(88.219 0.215)" fill="none" stroke="#fff" stroke-width="1"/>
      <path id="Path_5355" data-name="Path 5355" d="M135.3,192.057a89.63,89.63,0,0,1,56.706-56.718l47.21-15.73-47.21-15.7A89.778,89.778,0,0,1,135.3,47.143L119.608,0,103.872,47.143a89.8,89.8,0,0,1-56.733,56.767L0,119.608l47.139,15.73a89.651,89.651,0,0,1,56.733,56.718l15.736,47.16,15.693-47.16" transform="translate(83.559 0.215)" fill="none" stroke="#fff" stroke-width="1"/>
      <path id="Path_5356" data-name="Path 5356" d="M135.3,192.057a89.63,89.63,0,0,1,56.706-56.718l47.21-15.73-47.21-15.7A89.778,89.778,0,0,1,135.3,47.143L119.608,0,103.872,47.143a89.8,89.8,0,0,1-56.733,56.767L0,119.608l47.139,15.73a89.651,89.651,0,0,1,56.733,56.718l15.736,47.16,15.693-47.16" transform="translate(78.466 0.215)" fill="none" stroke="#fff" stroke-width="1"/>
      <path id="Path_5357" data-name="Path 5357" d="M135.3,192.057a89.63,89.63,0,0,1,56.706-56.718l47.21-15.731-47.21-15.7A89.777,89.777,0,0,1,135.3,47.143L119.608,0,103.872,47.143a89.8,89.8,0,0,1-56.733,56.767L0,119.608l47.139,15.731a89.651,89.651,0,0,1,56.733,56.718l15.736,47.16,15.693-47.16" transform="translate(72.978 0)" fill="none" stroke="#fff" stroke-width="1"/>
      <path id="Path_5358" data-name="Path 5358" d="M135.3,192.057a89.63,89.63,0,0,1,56.706-56.718l47.21-15.731-47.21-15.7A89.777,89.777,0,0,1,135.3,47.143L119.608,0,103.872,47.143a89.8,89.8,0,0,1-56.733,56.767L0,119.608l47.139,15.731a89.651,89.651,0,0,1,56.733,56.718l15.736,47.16,15.693-47.16" transform="translate(69.198 0.322)" fill="none" stroke="#fff" stroke-width="1"/>
      <path id="Path_5359" data-name="Path 5359" d="M135.3,192.057a89.63,89.63,0,0,1,56.706-56.718l47.21-15.731-47.21-15.7A89.777,89.777,0,0,1,135.3,47.143L119.608,0,103.872,47.143a89.8,89.8,0,0,1-56.733,56.767L0,119.608l47.139,15.731a89.651,89.651,0,0,1,56.733,56.718l15.736,47.16,15.693-47.16" transform="translate(64.634 0.322)" fill="none" stroke="#fff" stroke-width="1"/>
      <path id="Path_5360" data-name="Path 5360" d="M135.3,192.057a89.63,89.63,0,0,1,56.706-56.718l47.21-15.731-47.21-15.7A89.777,89.777,0,0,1,135.3,47.143L119.608,0,103.872,47.143a89.8,89.8,0,0,1-56.733,56.767L0,119.608l47.139,15.731a89.651,89.651,0,0,1,56.733,56.718l15.736,47.16,15.693-47.16" transform="translate(59.975 0.322)" fill="none" stroke="#fff" stroke-width="1"/>
      <path id="Path_5361" data-name="Path 5361" d="M135.3,192.057a89.63,89.63,0,0,1,56.706-56.718l47.21-15.731-47.21-15.7A89.778,89.778,0,0,1,135.3,47.143L119.608,0,103.872,47.143a89.8,89.8,0,0,1-56.733,56.767L0,119.608l47.139,15.731a89.651,89.651,0,0,1,56.733,56.718l15.736,47.16,15.693-47.16" transform="translate(54.881 0.322)" fill="none" stroke="#fff" stroke-width="1"/>
      <path id="Path_5362" data-name="Path 5362" d="M135.3,192.057a89.63,89.63,0,0,1,56.706-56.718l47.21-15.73-47.21-15.7A89.778,89.778,0,0,1,135.3,47.144L119.608,0,103.872,47.144a89.8,89.8,0,0,1-56.733,56.767L0,119.609l47.139,15.73a89.651,89.651,0,0,1,56.733,56.718l15.736,47.16,15.692-47.16" transform="translate(49.393 0.107)" fill="none" stroke="#fff" stroke-width="1"/>
      <path id="Path_5363" data-name="Path 5363" d="M135.3,192.057a89.63,89.63,0,0,1,56.706-56.718l47.21-15.731-47.21-15.7A89.777,89.777,0,0,1,135.3,47.143L119.608,0,103.872,47.143a89.8,89.8,0,0,1-56.733,56.767L0,119.608l47.139,15.731a89.651,89.651,0,0,1,56.733,56.718l15.736,47.16,15.693-47.16" transform="translate(44.193 0.322)" fill="none" stroke="#fff" stroke-width="1"/>
      <path id="Path_5364" data-name="Path 5364" d="M135.3,192.057a89.63,89.63,0,0,1,56.706-56.718l47.21-15.731-47.21-15.7A89.778,89.778,0,0,1,135.3,47.143L119.608,0,103.872,47.143a89.8,89.8,0,0,1-56.733,56.767L0,119.608l47.139,15.731a89.651,89.651,0,0,1,56.733,56.718l15.736,47.16,15.693-47.16" transform="translate(39.629 0.322)" fill="none" stroke="#fff" stroke-width="1"/>
      <path id="Path_5365" data-name="Path 5365" d="M135.3,192.057a89.63,89.63,0,0,1,56.706-56.718l47.21-15.731-47.21-15.7A89.777,89.777,0,0,1,135.3,47.143L119.608,0,103.872,47.143a89.8,89.8,0,0,1-56.733,56.767L0,119.608l47.139,15.731a89.651,89.651,0,0,1,56.733,56.718l15.736,47.16,15.693-47.16" transform="translate(34.969 0.322)" fill="none" stroke="#fff" stroke-width="1"/>
      <path id="Path_5366" data-name="Path 5366" d="M135.3,192.057a89.63,89.63,0,0,1,56.706-56.718l47.21-15.731-47.21-15.7A89.777,89.777,0,0,1,135.3,47.143L119.608,0,103.872,47.143a89.8,89.8,0,0,1-56.733,56.767L0,119.608l47.139,15.731a89.651,89.651,0,0,1,56.733,56.718l15.736,47.16,15.693-47.16" transform="translate(29.876 0.322)" fill="none" stroke="#fff" stroke-width="1"/>
      <path id="Path_5367" data-name="Path 5367" d="M135.3,192.057a89.63,89.63,0,0,1,56.706-56.718l47.21-15.73-47.21-15.7A89.777,89.777,0,0,1,135.3,47.144L119.608,0,103.872,47.144a89.8,89.8,0,0,1-56.733,56.767L0,119.609l47.139,15.73a89.651,89.651,0,0,1,56.733,56.718l15.736,47.16,15.693-47.16" transform="translate(24.388 0.107)" fill="none" stroke="#fff" stroke-width="1"/>
      <path id="Path_5368" data-name="Path 5368" d="M135.3,192.057a89.63,89.63,0,0,1,56.706-56.718l47.21-15.731-47.21-15.7A89.778,89.778,0,0,1,135.3,47.143L119.608,0,103.872,47.143a89.8,89.8,0,0,1-56.733,56.767L0,119.608l47.139,15.731a89.651,89.651,0,0,1,56.733,56.718l15.736,47.16,15.693-47.16" transform="translate(19.805 0.322)" fill="none" stroke="#fff" stroke-width="1"/>
      <path id="Path_5369" data-name="Path 5369" d="M135.3,192.057a89.63,89.63,0,0,1,56.706-56.718l47.21-15.731-47.21-15.7A89.778,89.778,0,0,1,135.3,47.143L119.608,0,103.872,47.143a89.8,89.8,0,0,1-56.733,56.767L0,119.608l47.139,15.731a89.651,89.651,0,0,1,56.733,56.718l15.736,47.16,15.693-47.16" transform="translate(15.241 0.322)" fill="none" stroke="#fff" stroke-width="1"/>
      <path id="Path_5370" data-name="Path 5370" d="M135.3,192.057a89.63,89.63,0,0,1,56.706-56.718l47.21-15.731-47.21-15.7A89.777,89.777,0,0,1,135.3,47.143L119.608,0,103.872,47.143a89.8,89.8,0,0,1-56.733,56.767L0,119.608l47.139,15.731a89.651,89.651,0,0,1,56.733,56.718l15.736,47.16,15.693-47.16" transform="translate(10.581 0.322)" fill="none" stroke="#fff" stroke-width="1"/>
      <path id="Path_5371" data-name="Path 5371" d="M135.3,192.057a89.63,89.63,0,0,1,56.706-56.718l47.21-15.731-47.21-15.7A89.777,89.777,0,0,1,135.3,47.143L119.608,0,103.872,47.143a89.8,89.8,0,0,1-56.733,56.767L0,119.608l47.139,15.731a89.651,89.651,0,0,1,56.733,56.718l15.736,47.16,15.693-47.16" transform="translate(5.488 0.322)" fill="none" stroke="#fff" stroke-width="1"/>
      <path id="Path_5372" data-name="Path 5372" d="M135.3,192.057a89.63,89.63,0,0,1,56.706-56.718l47.21-15.73-47.21-15.7A89.778,89.778,0,0,1,135.3,47.144L119.608,0,103.872,47.144a89.8,89.8,0,0,1-56.733,56.767L0,119.609l47.139,15.73a89.651,89.651,0,0,1,56.733,56.718l15.736,47.16,15.693-47.16" transform="translate(0 0.107)" fill="none" stroke="#fff" stroke-width="1"/>
    </g>
  </g>
</svg>
