<svg xmlns="http://www.w3.org/2000/svg" width="492.342" height="681.164" viewBox="0 0 492.342 681.164">
  <g id="HelpYouBackground" transform="translate(-952.068 -2575.93)">
    <g id="Group_505" data-name="Group 505" transform="translate(1442.828 2577.511) rotate(90)">
      <path id="Path_5353" data-name="Path 5353" d="M276.307,392.212a183.04,183.04,0,0,1,115.8-115.828l96.411-32.124L392.11,212.2a183.341,183.341,0,0,1-115.8-115.929L244.26,0,212.125,96.275A183.383,183.383,0,0,1,96.266,212.2L0,244.26l96.266,32.124A183.082,183.082,0,0,1,212.125,392.212L244.26,488.52l32.047-96.308" transform="translate(189.479 0.439)" fill="none" stroke="#e4e4e4" stroke-miterlimit="10" stroke-width="1"/>
      <path id="Path_5354" data-name="Path 5354" d="M276.307,392.212a183.04,183.04,0,0,1,115.8-115.828l96.411-32.124L392.11,212.2a183.341,183.341,0,0,1-115.8-115.929L244.26,0,212.125,96.275A183.383,183.383,0,0,1,96.266,212.2L0,244.26l96.266,32.124A183.082,183.082,0,0,1,212.125,392.212L244.26,488.52l32.047-96.308" transform="translate(180.158 0.439)" fill="none" stroke="#e4e4e4" stroke-miterlimit="10" stroke-width="1"/>
      <path id="Path_5355" data-name="Path 5355" d="M276.307,392.212a183.04,183.04,0,0,1,115.8-115.828l96.411-32.124L392.11,212.2a183.341,183.341,0,0,1-115.8-115.929L244.26,0,212.125,96.275A183.383,183.383,0,0,1,96.266,212.2L0,244.26l96.266,32.124A183.082,183.082,0,0,1,212.125,392.212L244.26,488.52l32.047-96.308" transform="translate(170.642 0.439)" fill="none" stroke="#e4e4e4" stroke-miterlimit="10" stroke-width="1"/>
      <path id="Path_5356" data-name="Path 5356" d="M276.307,392.212a183.04,183.04,0,0,1,115.8-115.828l96.411-32.124L392.11,212.2a183.341,183.341,0,0,1-115.8-115.929L244.26,0,212.125,96.275A183.383,183.383,0,0,1,96.266,212.2L0,244.26l96.266,32.124A183.082,183.082,0,0,1,212.125,392.212L244.26,488.52l32.047-96.308" transform="translate(160.241 0.439)" fill="none" stroke="#e4e4e4" stroke-miterlimit="10" stroke-width="1"/>
      <path id="Path_5357" data-name="Path 5357" d="M276.307,392.212a183.04,183.04,0,0,1,115.8-115.828l96.41-32.124L392.11,212.2a183.341,183.341,0,0,1-115.8-115.929L244.26,0,212.125,96.275A183.383,183.383,0,0,1,96.266,212.2L0,244.26l96.266,32.124A183.082,183.082,0,0,1,212.125,392.212L244.26,488.52l32.047-96.308" transform="translate(149.033 0)" fill="none" stroke="#e4e4e4" stroke-miterlimit="10" stroke-width="1"/>
      <path id="Path_5358" data-name="Path 5358" d="M276.307,392.212a183.04,183.04,0,0,1,115.8-115.828l96.411-32.124L392.11,212.2a183.34,183.34,0,0,1-115.8-115.929L244.26,0,212.125,96.275A183.383,183.383,0,0,1,96.266,212.2L0,244.26l96.266,32.124A183.082,183.082,0,0,1,212.125,392.212l32.135,96.308,32.047-96.308" transform="translate(141.315 0.659)" fill="none" stroke="#e4e4e4" stroke-miterlimit="10" stroke-width="1"/>
      <path id="Path_5359" data-name="Path 5359" d="M276.307,392.212a183.04,183.04,0,0,1,115.8-115.828l96.411-32.124L392.11,212.2a183.34,183.34,0,0,1-115.8-115.929L244.26,0,212.125,96.275A183.383,183.383,0,0,1,96.266,212.2L0,244.26l96.266,32.124A183.082,183.082,0,0,1,212.125,392.212l32.135,96.308,32.047-96.308" transform="translate(131.993 0.659)" fill="none" stroke="#e4e4e4" stroke-miterlimit="10" stroke-width="1"/>
      <path id="Path_5360" data-name="Path 5360" d="M276.307,392.212a183.04,183.04,0,0,1,115.8-115.828l96.41-32.124L392.11,212.2a183.341,183.341,0,0,1-115.8-115.929L244.26,0,212.125,96.275A183.383,183.383,0,0,1,96.266,212.2L0,244.26l96.266,32.124A183.082,183.082,0,0,1,212.125,392.212l32.135,96.308,32.047-96.308" transform="translate(122.478 0.659)" fill="none" stroke="#e4e4e4" stroke-miterlimit="10" stroke-width="1"/>
      <path id="Path_5361" data-name="Path 5361" d="M276.307,392.212a183.041,183.041,0,0,1,115.8-115.828l96.41-32.124L392.11,212.2a183.341,183.341,0,0,1-115.8-115.929L244.26,0,212.125,96.275A183.383,183.383,0,0,1,96.266,212.2L0,244.26l96.266,32.124A183.082,183.082,0,0,1,212.125,392.212l32.135,96.308,32.047-96.308" transform="translate(112.076 0.659)" fill="none" stroke="#e4e4e4" stroke-miterlimit="10" stroke-width="1"/>
      <path id="Path_5362" data-name="Path 5362" d="M276.307,392.213a183.04,183.04,0,0,1,115.8-115.828l96.411-32.124L392.11,212.2a183.341,183.341,0,0,1-115.8-115.929L244.26,0,212.125,96.275A183.383,183.383,0,0,1,96.266,212.2L0,244.261l96.266,32.124A183.082,183.082,0,0,1,212.125,392.213l32.135,96.308,32.047-96.308" transform="translate(100.869 0.219)" fill="none" stroke="#e4e4e4" stroke-miterlimit="10" stroke-width="1"/>
      <path id="Path_5363" data-name="Path 5363" d="M276.307,392.212a183.04,183.04,0,0,1,115.8-115.828l96.411-32.124L392.11,212.2a183.341,183.341,0,0,1-115.8-115.929L244.26,0,212.125,96.275A183.382,183.382,0,0,1,96.266,212.2L0,244.26l96.266,32.124A183.082,183.082,0,0,1,212.125,392.212l32.135,96.308,32.047-96.308" transform="translate(90.25 0.659)" fill="none" stroke="#e4e4e4" stroke-miterlimit="10" stroke-width="1"/>
      <path id="Path_5364" data-name="Path 5364" d="M276.307,392.212a183.04,183.04,0,0,1,115.8-115.828l96.411-32.124L392.11,212.2a183.341,183.341,0,0,1-115.8-115.929L244.26,0,212.125,96.275A183.383,183.383,0,0,1,96.266,212.2L0,244.26l96.266,32.124A183.082,183.082,0,0,1,212.125,392.212l32.135,96.308,32.047-96.308" transform="translate(80.929 0.659)" fill="none" stroke="#e4e4e4" stroke-miterlimit="10" stroke-width="1"/>
      <path id="Path_5365" data-name="Path 5365" d="M276.307,392.212a183.04,183.04,0,0,1,115.8-115.828l96.411-32.124L392.11,212.2a183.341,183.341,0,0,1-115.8-115.929L244.26,0,212.125,96.275A183.383,183.383,0,0,1,96.266,212.2L0,244.26l96.266,32.124A183.082,183.082,0,0,1,212.125,392.212l32.135,96.308,32.047-96.308" transform="translate(71.413 0.659)" fill="none" stroke="#e4e4e4" stroke-miterlimit="10" stroke-width="1"/>
      <path id="Path_5366" data-name="Path 5366" d="M276.307,392.212a183.04,183.04,0,0,1,115.8-115.828l96.411-32.124L392.11,212.2a183.341,183.341,0,0,1-115.8-115.929L244.26,0,212.124,96.275A183.383,183.383,0,0,1,96.266,212.2L0,244.26l96.266,32.124A183.082,183.082,0,0,1,212.124,392.212l32.135,96.308,32.047-96.308" transform="translate(61.012 0.659)" fill="none" stroke="#e4e4e4" stroke-miterlimit="10" stroke-width="1"/>
      <path id="Path_5367" data-name="Path 5367" d="M276.307,392.213a183.04,183.04,0,0,1,115.8-115.828l96.411-32.124L392.11,212.2a183.341,183.341,0,0,1-115.8-115.929L244.26,0,212.125,96.275A183.383,183.383,0,0,1,96.266,212.2L0,244.261l96.266,32.124A183.082,183.082,0,0,1,212.125,392.213l32.135,96.308,32.047-96.308" transform="translate(49.804 0.219)" fill="none" stroke="#e4e4e4" stroke-miterlimit="10" stroke-width="1"/>
      <path id="Path_5368" data-name="Path 5368" d="M276.307,392.212a183.04,183.04,0,0,1,115.8-115.828l96.411-32.124L392.11,212.2a183.341,183.341,0,0,1-115.8-115.929L244.26,0,212.125,96.275A183.383,183.383,0,0,1,96.266,212.2L0,244.26l96.266,32.124A183.082,183.082,0,0,1,212.125,392.212l32.135,96.308,32.047-96.308" transform="translate(40.446 0.659)" fill="none" stroke="#e4e4e4" stroke-miterlimit="10" stroke-width="1"/>
      <path id="Path_5369" data-name="Path 5369" d="M276.307,392.212a183.04,183.04,0,0,1,115.8-115.828l96.411-32.124L392.11,212.2a183.341,183.341,0,0,1-115.8-115.929L244.26,0,212.125,96.275A183.382,183.382,0,0,1,96.266,212.2L0,244.26l96.266,32.124A183.082,183.082,0,0,1,212.125,392.212l32.135,96.308,32.047-96.308" transform="translate(31.124 0.659)" fill="none" stroke="#e4e4e4" stroke-miterlimit="10" stroke-width="1"/>
      <path id="Path_5370" data-name="Path 5370" d="M276.307,392.212a183.04,183.04,0,0,1,115.8-115.828l96.411-32.124L392.11,212.2a183.341,183.341,0,0,1-115.8-115.929L244.26,0,212.124,96.275A183.383,183.383,0,0,1,96.266,212.2L0,244.26l96.266,32.124A183.082,183.082,0,0,1,212.124,392.212l32.135,96.308,32.047-96.308" transform="translate(21.609 0.659)" fill="none" stroke="#e4e4e4" stroke-miterlimit="10" stroke-width="1"/>
      <path id="Path_5371" data-name="Path 5371" d="M276.307,392.212a183.04,183.04,0,0,1,115.8-115.828l96.41-32.124L392.11,212.2a183.34,183.34,0,0,1-115.8-115.929L244.26,0,212.125,96.275A183.383,183.383,0,0,1,96.266,212.2L0,244.26l96.266,32.124A183.082,183.082,0,0,1,212.125,392.212l32.135,96.308,32.047-96.308" transform="translate(11.207 0.659)" fill="none" stroke="#e4e4e4" stroke-miterlimit="10" stroke-width="1"/>
      <path id="Path_5372" data-name="Path 5372" d="M276.307,392.213a183.04,183.04,0,0,1,115.8-115.828l96.411-32.124L392.11,212.2a183.341,183.341,0,0,1-115.8-115.929L244.26,0,212.125,96.275A183.383,183.383,0,0,1,96.266,212.2L0,244.261l96.266,32.124A183.082,183.082,0,0,1,212.125,392.213l32.135,96.308,32.047-96.308" transform="translate(0 0.219)" fill="none" stroke="#e4e4e4" stroke-miterlimit="10" stroke-width="1"/>
    </g>
  </g>
</svg>
