<svg id="LinkdinIcon" xmlns="http://www.w3.org/2000/svg" width="18.189" height="18.197" viewBox="0 0 18.189 18.197">
  <rect id="Rectangle_67" data-name="Rectangle 67" width="3.754" height="12.131" transform="translate(0.361 6.066)" fill="#fff"/>
  <g id="Group_98" data-name="Group 98" transform="translate(0 0)">
    <g id="Group_100" data-name="Group 100">
      <path id="Path_5026" data-name="Path 5026" d="M2.221,41.39A2.238,2.238,0,1,0,0,39.151,2.23,2.23,0,0,0,2.221,41.39" transform="translate(0 -36.913)" fill="#fff"/>
      <path id="Path_5027" data-name="Path 5027" d="M7.5,46.452c0-1.706.784-2.721,2.288-2.721,1.381,0,2.045.975,2.045,2.721V52.82H15.57V45.139c0-3.249-1.843-4.821-4.415-4.821A4.228,4.228,0,0,0,7.5,42.323V40.689H3.9V52.82H7.5Z" transform="translate(2.62 -34.624)" fill="#fff"/>
    </g>
  </g>
</svg>
