<svg xmlns="http://www.w3.org/2000/svg" xmlns:xlink="http://www.w3.org/1999/xlink" width="70.529" height="55.773" viewBox="0 0 70.529 55.773">
  <defs>
    <clipPath id="clip-path">
      <rect id="Rectangle_148" data-name="Rectangle 148" width="70.529" height="55.773" fill="#6a2fc2"/>
    </clipPath>
  </defs>
  <g id="Group_362" data-name="Group 362" clip-path="url(#clip-path)">
    <path id="Path_5206" data-name="Path 5206" d="M169.365,126.379a.842.842,0,1,0,0-1.685h-9.174a.842.842,0,1,0,0,1.685h4.167a2.5,2.5,0,0,1,2.346,1.64h-6.512a.842.842,0,1,0,0,1.685h6.527a2.5,2.5,0,0,1-2.36,1.679h-4.167a.842.842,0,0,0-.553,1.478l6.708,5.841a.842.842,0,1,0,1.106-1.271l-5.011-4.363h1.917a4.193,4.193,0,0,0,4.1-3.364h.9a.842.842,0,1,0,0-1.685h-.913a4.171,4.171,0,0,0-.739-1.64Z" transform="translate(-115.599 -90.459)" fill="#6a2fc2"/>
    <path id="Path_5207" data-name="Path 5207" d="M21.034,40.778H6.039V6.042H67.028V19.474a.842.842,0,1,0,1.685,0V5.2a.843.843,0,0,0-.843-.842H63.512V.842A.843.843,0,0,0,62.669,0H.842A.842.842,0,0,0,0,.842V36.421a.842.842,0,0,0,.842.842H4.354V41.62a.842.842,0,0,0,.842.842H21.034a.842.842,0,1,0,0-1.685m-19.349-5.2V1.685H61.827V4.357H5.2a.842.842,0,0,0-.842.842V35.579Z" fill="#6a2fc2"/>
    <path id="Path_5208" data-name="Path 5208" d="M44.214,59.533H38.223a5.5,5.5,0,0,0-4.585-4.585V38.2a5.5,5.5,0,0,0,4.585-4.585H81.2A5.506,5.506,0,0,0,85.786,38.2v3.076a.842.842,0,1,0,1.685,0V37.424a.842.842,0,0,0-.842-.842,3.812,3.812,0,0,1-3.808-3.808.843.843,0,0,0-.843-.843H37.445a.843.843,0,0,0-.842.843A3.812,3.812,0,0,1,32.8,36.582a.842.842,0,0,0-.842.842v18.3a.842.842,0,0,0,.842.842A3.812,3.812,0,0,1,36.6,60.375a.842.842,0,0,0,.842.842h6.769a.842.842,0,1,0,0-1.685" transform="translate(-23.18 -23.165)" fill="#6a2fc2"/>
    <path id="Path_5209" data-name="Path 5209" d="M97.418,83.6c-6.054-.442-9.672-2.582-9.673-4.395h0V76.957a14.963,14.963,0,0,0,6.887,2.691.853.853,0,0,0,.144.012.842.842,0,0,0,.141-1.673c-4.221-.723-7.169-2.406-7.172-4.092v0h0V71.63a14.443,14.443,0,0,0,6.36,2.605.842.842,0,1,0,.32-1.654c-3.932-.762-6.678-2.408-6.68-4V66.3a15.584,15.584,0,0,0,7.509,2.811.83.83,0,0,0,.124.009.842.842,0,0,0,.122-1.676c-4.492-.663-7.753-2.421-7.755-4.181V60.989c2.076,1.721,5.914,2.9,10.6,3.081h.033a.842.842,0,0,0,.032-1.684c-6.376-.246-10.659-2.5-10.659-4.449,0-.014,0-.027,0-.041V55.69c2.262,1.875,6.6,3.091,11.818,3.091s9.553-1.215,11.815-3.089v1.434a.842.842,0,0,0,1.685,0V52.66c0-.013,0-.026,0-.04,0-3.512-5.8-6.16-13.5-6.16s-13.5,2.648-13.5,6.16v5.317h0V73.891h0v5.317c0,3.094,4.62,5.592,11.235,6.076l.062,0a.842.842,0,0,0,.061-1.682m2.145-35.458c6.95,0,11.8,2.349,11.817,4.462,0,0,0,.007,0,.011v.031c-.044,2.109-4.883,4.446-11.815,4.446-6.964,0-11.818-2.358-11.818-4.475s4.853-4.475,11.818-4.475" transform="translate(-62.432 -33.705)" fill="#6a2fc2"/>
    <path id="Path_5210" data-name="Path 5210" d="M208.229,80.527c-.01-2.857-4.645-5.011-10.786-5.011a20.1,20.1,0,0,0-7.091,1.176.842.842,0,1,0,.613,1.569,18.385,18.385,0,0,1,6.478-1.06c5.206,0,9.1,1.76,9.1,3.336,0,1.162-2.371,2.663-6.339,3.165a.843.843,0,0,0,.1,1.678.877.877,0,0,0,.107-.007,13.5,13.5,0,0,0,6.128-2.067v1.368c0,.015,0,.03,0,.045,0,1-1.647,2.1-4.1,2.739a.842.842,0,1,0,.423,1.631,11.038,11.038,0,0,0,3.681-1.6v1.4c0,.821-1.122,1.734-2.929,2.383a.842.842,0,1,0,.569,1.586,9.544,9.544,0,0,0,2.361-1.194v1.4c0,.762-1,1.628-2.6,2.261a.842.842,0,1,0,.618,1.567,9,9,0,0,0,1.987-1.057v1.408c0,.873-1.288,1.854-3.276,2.5a.842.842,0,1,0,.521,1.6,9.843,9.843,0,0,0,2.756-1.339v1.418c0,1.031-1.854,2.4-5.4,3.02a.842.842,0,0,0,.144,1.672.886.886,0,0,0,.146-.013c4.183-.732,6.783-2.521,6.791-4.67,0,0,0-.007,0-.012v-20.9" transform="translate(-137.701 -54.783)" fill="#6a2fc2"/>
    <path id="Path_5211" data-name="Path 5211" d="M154.516,108.971a15.3,15.3,0,0,0-.127-1.959,14.942,14.942,0,0,0-5.169-9.468,15,15,0,0,0-9.118-3.549c-.115,0-.229-.006-.344-.006-.182-.009-.386-.007-.526,0a14.881,14.881,0,0,0-10.185,4.278,14.892,14.892,0,0,0-4.5,10.7,14.258,14.258,0,0,0,.1,1.718,14.982,14.982,0,0,0,29.866-1.718m-1.929,2.538a13.295,13.295,0,0,1-26.264-1.016,12.677,12.677,0,0,1-.091-1.522,13.206,13.206,0,0,1,3.994-9.5,13.223,13.223,0,0,1,9.062-3.8c.067,0,.137,0,.205,0h.036c.05,0,.1,0,.149,0l.055,0c.1,0,.2,0,.3,0a13.319,13.319,0,0,1,8.1,3.151,13.253,13.253,0,0,1,4.588,8.4,13.6,13.6,0,0,1,.113,1.742,13.247,13.247,0,0,1-.244,2.538" transform="translate(-90.353 -68.179)" fill="#6a2fc2"/>
    <path id="Path_5212" data-name="Path 5212" d="M158.4,111.935a11.725,11.725,0,0,0-2.978-3.81,11.89,11.89,0,0,0-7.226-2.813c-.09,0-.18,0-.27,0a4.086,4.086,0,0,0-.42,0,11.8,11.8,0,0,0-8.072,3.39,11.805,11.805,0,0,0-3.566,8.484,11.411,11.411,0,0,0,.081,1.361,11.875,11.875,0,0,0,23.671-1.361,12.165,12.165,0,0,0-.1-1.553,11.753,11.753,0,0,0-1.119-3.695m-.652,7.192a10.188,10.188,0,0,1-20.126-.78,9.717,9.717,0,0,1-.069-1.165,10.194,10.194,0,0,1,10.012-10.191c.046,0,.094,0,.141,0h.036c.034,0,.067,0,.1,0l.058,0c.075,0,.149,0,.227,0a10.207,10.207,0,0,1,6.205,2.415,10.155,10.155,0,0,1,3.515,6.437,10.355,10.355,0,0,1,.087,1.335,10.163,10.163,0,0,1-.187,1.945" transform="translate(-98.565 -76.392)" fill="#6a2fc2"/>
  </g>
</svg>
