<svg xmlns="http://www.w3.org/2000/svg" xmlns:xlink="http://www.w3.org/1999/xlink" width="718" height="839" viewBox="0 0 718 839">
  <defs>
    <clipPath id="clip-path">
      <rect id="Rectangle_212" data-name="Rectangle 212" width="718" height="839" transform="translate(970.052 4462.015)" fill="#fff" stroke="#707070" stroke-width="1"/>
    </clipPath>
  </defs>
  <g id="Mask_Group_29" data-name="Mask Group 29" transform="translate(-970.052 -4462.015)" opacity="0.14" clip-path="url(#clip-path)">
    <g id="Group_587" data-name="Group 587" transform="translate(950.238 6507.229) rotate(-90)">
      <path id="Path_5464" data-name="Path 5464" d="M833.492,1183.125a552.147,552.147,0,0,1,349.326-349.4l290.826-96.9-290.826-96.7a553.055,553.055,0,0,1-349.326-349.7L736.821,0,639.884,290.417A553.182,553.182,0,0,1,290.39,640.12L0,736.821l290.39,96.9a552.274,552.274,0,0,1,349.493,349.4l96.937,290.518,96.671-290.518" transform="translate(571.571 1.325)" fill="none" stroke="#3f3f3f" stroke-width="1"/>
      <path id="Path_5465" data-name="Path 5465" d="M833.492,1183.125a552.148,552.148,0,0,1,349.326-349.4l290.827-96.9-290.827-96.7a553.056,553.056,0,0,1-349.326-349.7L736.821,0,639.883,290.417A553.181,553.181,0,0,1,290.39,640.12L0,736.821l290.39,96.9a552.273,552.273,0,0,1,349.493,349.4l96.937,290.518,96.671-290.518" transform="translate(543.453 1.325)" fill="none" stroke="#3f3f3f" stroke-width="1"/>
      <path id="Path_5466" data-name="Path 5466" d="M833.492,1183.125a552.147,552.147,0,0,1,349.326-349.4l290.826-96.9-290.826-96.7a553.055,553.055,0,0,1-349.326-349.7L736.821,0,639.884,290.417A553.183,553.183,0,0,1,290.39,640.12L0,736.821l290.39,96.9a552.275,552.275,0,0,1,349.493,349.4l96.937,290.518,96.67-290.518" transform="translate(514.749 1.325)" fill="none" stroke="#3f3f3f" stroke-width="1"/>
      <path id="Path_5467" data-name="Path 5467" d="M833.492,1183.125a552.148,552.148,0,0,1,349.326-349.4l290.827-96.9-290.827-96.7a553.056,553.056,0,0,1-349.326-349.7L736.821,0,639.884,290.417A553.182,553.182,0,0,1,290.39,640.12L0,736.821l290.39,96.9a552.274,552.274,0,0,1,349.493,349.4l96.938,290.518,96.67-290.518" transform="translate(483.373 1.325)" fill="none" stroke="#3f3f3f" stroke-width="1"/>
      <path id="Path_5468" data-name="Path 5468" d="M833.492,1183.125a552.146,552.146,0,0,1,349.326-349.4l290.826-96.9-290.826-96.7a553.055,553.055,0,0,1-349.326-349.7L736.821,0,639.884,290.417A553.183,553.183,0,0,1,290.39,640.12L0,736.821l290.39,96.9a552.275,552.275,0,0,1,349.493,349.4l96.937,290.517,96.67-290.517" transform="translate(449.565 0)" fill="none" stroke="#3f3f3f" stroke-width="1"/>
      <path id="Path_5469" data-name="Path 5469" d="M833.492,1183.125a552.147,552.147,0,0,1,349.325-349.4l290.827-96.9-290.827-96.7a553.054,553.054,0,0,1-349.325-349.7L736.821,0,639.884,290.417A553.181,553.181,0,0,1,290.39,640.12L0,736.821l290.39,96.9a552.274,552.274,0,0,1,349.494,349.4l96.937,290.518,96.671-290.518" transform="translate(426.281 1.986)" fill="none" stroke="#3f3f3f" stroke-width="1"/>
      <path id="Path_5470" data-name="Path 5470" d="M833.492,1183.125a552.146,552.146,0,0,1,349.326-349.4l290.826-96.9-290.826-96.7a553.053,553.053,0,0,1-349.326-349.7L736.821,0,639.884,290.417A553.181,553.181,0,0,1,290.39,640.12L0,736.821l290.39,96.9a552.274,552.274,0,0,1,349.493,349.4l96.938,290.518,96.67-290.518" transform="translate(398.164 1.986)" fill="none" stroke="#3f3f3f" stroke-width="1"/>
      <path id="Path_5471" data-name="Path 5471" d="M833.49,1183.125a552.147,552.147,0,0,1,349.326-349.4l290.826-96.9-290.826-96.7a553.055,553.055,0,0,1-349.326-349.7L736.82,0,639.882,290.417a553.181,553.181,0,0,1-349.493,349.7L0,736.821l290.389,96.9a552.274,552.274,0,0,1,349.493,349.4l96.938,290.518,96.671-290.518" transform="translate(369.46 1.986)" fill="none" stroke="#3f3f3f" stroke-width="1"/>
      <path id="Path_5472" data-name="Path 5472" d="M833.492,1183.125a552.148,552.148,0,0,1,349.326-349.4l290.826-96.9-290.826-96.7a553.056,553.056,0,0,1-349.326-349.7L736.821,0,639.884,290.417a553.182,553.182,0,0,1-349.493,349.7L0,736.821l290.391,96.9a552.275,552.275,0,0,1,349.493,349.4l96.937,290.518,96.67-290.518" transform="translate(338.083 1.986)" fill="none" stroke="#3f3f3f" stroke-width="1"/>
      <path id="Path_5473" data-name="Path 5473" d="M833.491,1183.126a552.147,552.147,0,0,1,349.326-349.4l290.826-96.9-290.826-96.7a553.056,553.056,0,0,1-349.326-349.7L736.821,0,639.884,290.418a553.183,553.183,0,0,1-349.493,349.7L0,736.823l290.39,96.9a552.274,552.274,0,0,1,349.493,349.4l96.938,290.518,96.67-290.518" transform="translate(304.275 0.66)" fill="none" stroke="#3f3f3f" stroke-width="1"/>
      <path id="Path_5474" data-name="Path 5474" d="M833.492,1183.125a552.147,552.147,0,0,1,349.326-349.4l290.827-96.9-290.827-96.7a553.054,553.054,0,0,1-349.326-349.7L736.821,0,639.884,290.417A553.181,553.181,0,0,1,290.39,640.12L0,736.821l290.39,96.9a552.274,552.274,0,0,1,349.493,349.4l96.938,290.518,96.671-290.518" transform="translate(272.243 1.986)" fill="none" stroke="#3f3f3f" stroke-width="1"/>
      <path id="Path_5475" data-name="Path 5475" d="M833.492,1183.125a552.147,552.147,0,0,1,349.326-349.4l290.826-96.9-290.826-96.7a553.055,553.055,0,0,1-349.326-349.7L736.821,0,639.884,290.417A553.181,553.181,0,0,1,290.39,640.12L0,736.821l290.39,96.9a552.274,552.274,0,0,1,349.493,349.4l96.938,290.518,96.67-290.518" transform="translate(244.125 1.986)" fill="none" stroke="#3f3f3f" stroke-width="1"/>
      <path id="Path_5476" data-name="Path 5476" d="M833.492,1183.125a552.147,552.147,0,0,1,349.326-349.4l290.826-96.9-290.826-96.7a553.054,553.054,0,0,1-349.326-349.7L736.821,0,639.884,290.417A553.182,553.182,0,0,1,290.39,640.12L0,736.821l290.39,96.9a552.274,552.274,0,0,1,349.493,349.4l96.937,290.518,96.67-290.518" transform="translate(215.42 1.986)" fill="none" stroke="#3f3f3f" stroke-width="1"/>
      <path id="Path_5477" data-name="Path 5477" d="M833.49,1183.125a552.147,552.147,0,0,1,349.326-349.4l290.826-96.9-290.826-96.7a553.054,553.054,0,0,1-349.326-349.7L736.82,0,639.882,290.417a553.181,553.181,0,0,1-349.493,349.7L0,736.821l290.389,96.9a552.274,552.274,0,0,1,349.493,349.4l96.937,290.518,96.671-290.518" transform="translate(184.045 1.986)" fill="none" stroke="#3f3f3f" stroke-width="1"/>
      <path id="Path_5478" data-name="Path 5478" d="M833.492,1183.126a552.146,552.146,0,0,1,349.326-349.4l290.827-96.9-290.827-96.7a553.055,553.055,0,0,1-349.326-349.7L736.821,0,639.884,290.418a553.182,553.182,0,0,1-349.493,349.7L0,736.823l290.39,96.9a552.273,552.273,0,0,1,349.493,349.4l96.938,290.518,96.671-290.518" transform="translate(150.237 0.66)" fill="none" stroke="#3f3f3f" stroke-width="1"/>
      <path id="Path_5479" data-name="Path 5479" d="M833.492,1183.125a552.147,552.147,0,0,1,349.326-349.4l290.827-96.9-290.827-96.7a553.055,553.055,0,0,1-349.326-349.7L736.821,0,639.884,290.417A553.181,553.181,0,0,1,290.39,640.12L0,736.821l290.39,96.9a552.274,552.274,0,0,1,349.493,349.4l96.937,290.518,96.67-290.518" transform="translate(122.006 1.986)" fill="none" stroke="#3f3f3f" stroke-width="1"/>
      <path id="Path_5480" data-name="Path 5480" d="M833.492,1183.125a552.147,552.147,0,0,1,349.326-349.4l290.826-96.9-290.826-96.7a553.055,553.055,0,0,1-349.326-349.7L736.821,0,639.884,290.417A553.181,553.181,0,0,1,290.39,640.12L0,736.821l290.39,96.9a552.273,552.273,0,0,1,349.493,349.4l96.938,290.518,96.67-290.518" transform="translate(93.888 1.986)" fill="none" stroke="#3f3f3f" stroke-width="1"/>
      <path id="Path_5481" data-name="Path 5481" d="M833.49,1183.125a552.148,552.148,0,0,1,349.326-349.4l290.826-96.9-290.826-96.7a553.055,553.055,0,0,1-349.326-349.7L736.82,0,639.882,290.417a553.182,553.182,0,0,1-349.493,349.7L0,736.821l290.389,96.9a552.275,552.275,0,0,1,349.493,349.4l96.937,290.518,96.671-290.518" transform="translate(65.185 1.986)" fill="none" stroke="#3f3f3f" stroke-width="1"/>
      <path id="Path_5482" data-name="Path 5482" d="M833.492,1183.125a552.146,552.146,0,0,1,349.326-349.4l290.826-96.9-290.826-96.7a553.054,553.054,0,0,1-349.326-349.7L736.821,0,639.884,290.417A553.181,553.181,0,0,1,290.39,640.12L0,736.821l290.39,96.9a552.274,552.274,0,0,1,349.493,349.4l96.937,290.518,96.671-290.518" transform="translate(33.808 1.986)" fill="none" stroke="#3f3f3f" stroke-width="1"/>
      <path id="Path_5483" data-name="Path 5483" d="M833.492,1183.126a552.146,552.146,0,0,1,349.326-349.4l290.826-96.9-290.826-96.7a553.055,553.055,0,0,1-349.326-349.7L736.821,0,639.884,290.418a553.182,553.182,0,0,1-349.493,349.7L0,736.823l290.39,96.9a552.273,552.273,0,0,1,349.493,349.4l96.938,290.518,96.67-290.518" transform="translate(0 0.66)" fill="none" stroke="#3f3f3f" stroke-width="1"/>
    </g>
  </g>
</svg>
