<svg xmlns="http://www.w3.org/2000/svg" xmlns:xlink="http://www.w3.org/1999/xlink" width="815.971" height="1130" viewBox="0 0 815.971 1130">
  <defs>
    <clipPath id="clip-path">
      <rect id="Rectangle_70" data-name="Rectangle 70" width="1130" height="815.971" transform="translate(0 0)" fill="none" stroke="#000" stroke-width="1"/>
    </clipPath>
    <clipPath id="clip-path-2">
      <rect id="Rectangle_69" data-name="Rectangle 69" width="1130.002" height="815.974" transform="translate(0 0)" fill="none" stroke="#000" stroke-width="1"/>
    </clipPath>
  </defs>
  <g id="Group_271" data-name="Group 271" transform="translate(815.971) rotate(90)" opacity="0.12">
    <g id="Group_108" data-name="Group 108" transform="translate(0)" opacity="0.83" clip-path="url(#clip-path)">
      <g id="Group_107" data-name="Group 107" transform="translate(13.142 407.985)">
        <g id="Group_106" data-name="Group 106" transform="translate(0 0)">
          <g id="Group_105" data-name="Group 105" clip-path="url(#clip-path-2)">
            <path id="Path_5036" data-name="Path 5036" d="M459.528,160.171A304.415,304.415,0,0,0,652.121,352.8l160.341,53.426L652.121,459.545a304.915,304.915,0,0,0-192.593,192.8l-53.3,160.115L352.786,652.346A304.984,304.984,0,0,0,160.1,459.545L0,406.231,160.1,352.8A304.484,304.484,0,0,0,352.786,160.171L406.231,0l53.3,160.171" transform="translate(316.33 1.572)" fill="none" stroke="#000" stroke-width="1"/>
            <path id="Path_5037" data-name="Path 5037" d="M459.528,160.171A304.415,304.415,0,0,0,652.121,352.8l160.341,53.426L652.121,459.545a304.915,304.915,0,0,0-192.593,192.8l-53.3,160.115L352.786,652.346A304.984,304.984,0,0,0,160.1,459.545L0,406.231,160.1,352.8A304.484,304.484,0,0,0,352.786,160.171L406.23,0l53.3,160.171" transform="translate(300.828 1.572)" fill="none" stroke="#000" stroke-width="1"/>
            <path id="Path_5038" data-name="Path 5038" d="M459.528,160.171A304.415,304.415,0,0,0,652.121,352.8l160.341,53.426L652.121,459.545a304.915,304.915,0,0,0-192.593,192.8l-53.3,160.115L352.786,652.346A304.985,304.985,0,0,0,160.1,459.545L0,406.231,160.1,352.8A304.485,304.485,0,0,0,352.786,160.171L406.23,0l53.3,160.171" transform="translate(285.003 1.572)" fill="none" stroke="#000" stroke-width="1"/>
            <path id="Path_5039" data-name="Path 5039" d="M459.528,160.171A304.415,304.415,0,0,0,652.121,352.8l160.341,53.426L652.121,459.545a304.915,304.915,0,0,0-192.593,192.8l-53.3,160.115L352.786,652.346A304.984,304.984,0,0,0,160.1,459.545L0,406.231,160.1,352.8A304.484,304.484,0,0,0,352.786,160.171L406.231,0l53.3,160.171" transform="translate(267.704 1.572)" fill="none" stroke="#000" stroke-width="1"/>
            <path id="Path_5040" data-name="Path 5040" d="M459.528,160.171A304.415,304.415,0,0,0,652.121,352.8l160.341,53.426L652.121,459.544a304.915,304.915,0,0,0-192.593,192.8l-53.3,160.115L352.786,652.346A304.985,304.985,0,0,0,160.1,459.544L0,406.231,160.1,352.8A304.485,304.485,0,0,0,352.786,160.171L406.231,0l53.3,160.171" transform="translate(249.065 2.303)" fill="none" stroke="#000" stroke-width="1"/>
            <path id="Path_5041" data-name="Path 5041" d="M459.528,160.171A304.414,304.414,0,0,0,652.121,352.8l160.341,53.426L652.121,459.545a304.915,304.915,0,0,0-192.593,192.8l-53.3,160.115L352.786,652.346A304.985,304.985,0,0,0,160.1,459.545L0,406.231,160.1,352.8A304.484,304.484,0,0,0,352.786,160.171L406.231,0l53.3,160.171" transform="translate(236.228 1.207)" fill="none" stroke="#000" stroke-width="1"/>
            <path id="Path_5042" data-name="Path 5042" d="M459.528,160.171A304.414,304.414,0,0,0,652.121,352.8l160.341,53.426L652.121,459.545a304.915,304.915,0,0,0-192.593,192.8l-53.3,160.115L352.786,652.346A304.985,304.985,0,0,0,160.1,459.545L0,406.231,160.1,352.8A304.484,304.484,0,0,0,352.786,160.171L406.231,0l53.3,160.171" transform="translate(220.726 1.207)" fill="none" stroke="#000" stroke-width="1"/>
            <path id="Path_5043" data-name="Path 5043" d="M459.527,160.171A304.415,304.415,0,0,0,652.12,352.8l160.341,53.426L652.12,459.545a304.915,304.915,0,0,0-192.593,192.8l-53.3,160.115L352.785,652.346A304.985,304.985,0,0,0,160.1,459.545L0,406.231,160.1,352.8A304.484,304.484,0,0,0,352.785,160.171L406.23,0l53.3,160.171" transform="translate(204.9 1.207)" fill="none" stroke="#000" stroke-width="1"/>
            <path id="Path_5044" data-name="Path 5044" d="M459.528,160.171A304.415,304.415,0,0,0,652.121,352.8l160.341,53.426L652.121,459.545a304.916,304.916,0,0,0-192.593,192.8l-53.3,160.115L352.786,652.346A304.985,304.985,0,0,0,160.1,459.545L0,406.231,160.1,352.8A304.485,304.485,0,0,0,352.786,160.171L406.231,0l53.3,160.171" transform="translate(187.602 1.207)" fill="none" stroke="#000" stroke-width="1"/>
            <path id="Path_5045" data-name="Path 5045" d="M459.528,160.171A304.415,304.415,0,0,0,652.121,352.8l160.341,53.426L652.121,459.545a304.915,304.915,0,0,0-192.593,192.8l-53.3,160.116L352.786,652.346A304.984,304.984,0,0,0,160.1,459.545L0,406.231,160.1,352.8A304.484,304.484,0,0,0,352.786,160.171L406.231,0l53.3,160.171" transform="translate(168.963 1.938)" fill="none" stroke="#000" stroke-width="1"/>
            <path id="Path_5046" data-name="Path 5046" d="M459.528,160.171A304.415,304.415,0,0,0,652.121,352.8l160.341,53.426L652.121,459.545a304.916,304.916,0,0,0-192.593,192.8l-53.3,160.115L352.786,652.346A304.985,304.985,0,0,0,160.1,459.545L0,406.231,160.1,352.8A304.484,304.484,0,0,0,352.786,160.171L406.231,0l53.3,160.171" transform="translate(151.302 1.207)" fill="none" stroke="#000" stroke-width="1"/>
            <path id="Path_5047" data-name="Path 5047" d="M459.528,160.171A304.415,304.415,0,0,0,652.121,352.8l160.341,53.426L652.121,459.545a304.916,304.916,0,0,0-192.593,192.8l-53.3,160.115L352.786,652.346A304.985,304.985,0,0,0,160.1,459.545L0,406.231,160.1,352.8A304.484,304.484,0,0,0,352.786,160.171L406.231,0l53.3,160.171" transform="translate(135.8 1.207)" fill="none" stroke="#000" stroke-width="1"/>
            <path id="Path_5048" data-name="Path 5048" d="M459.528,160.171A304.415,304.415,0,0,0,652.121,352.8l160.341,53.426L652.121,459.545a304.916,304.916,0,0,0-192.593,192.8l-53.3,160.115L352.786,652.346A304.985,304.985,0,0,0,160.1,459.545L0,406.231,160.1,352.8A304.484,304.484,0,0,0,352.786,160.171L406.231,0l53.3,160.171" transform="translate(119.974 1.207)" fill="none" stroke="#000" stroke-width="1"/>
            <path id="Path_5049" data-name="Path 5049" d="M459.527,160.171A304.415,304.415,0,0,0,652.12,352.8l160.341,53.426L652.12,459.545a304.915,304.915,0,0,0-192.593,192.8l-53.3,160.115L352.785,652.346A304.985,304.985,0,0,0,160.1,459.545L0,406.231,160.1,352.8A304.484,304.484,0,0,0,352.785,160.171L406.23,0l53.3,160.171" transform="translate(102.676 1.207)" fill="none" stroke="#000" stroke-width="1"/>
            <path id="Path_5050" data-name="Path 5050" d="M459.528,160.171A304.415,304.415,0,0,0,652.121,352.8l160.341,53.426L652.121,459.545a304.915,304.915,0,0,0-192.593,192.8l-53.3,160.116L352.786,652.346A304.985,304.985,0,0,0,160.1,459.545L0,406.231,160.1,352.8A304.485,304.485,0,0,0,352.786,160.171L406.231,0l53.3,160.171" transform="translate(84.037 1.938)" fill="none" stroke="#000" stroke-width="1"/>
            <path id="Path_5051" data-name="Path 5051" d="M459.528,160.171A304.415,304.415,0,0,0,652.121,352.8l160.341,53.426L652.121,459.545a304.915,304.915,0,0,0-192.593,192.8l-53.3,160.115L352.786,652.346A304.985,304.985,0,0,0,160.1,459.545L0,406.231,160.1,352.8A304.485,304.485,0,0,0,352.786,160.171L406.231,0l53.3,160.171" transform="translate(68.472 1.207)" fill="none" stroke="#000" stroke-width="1"/>
            <path id="Path_5052" data-name="Path 5052" d="M459.528,160.171A304.415,304.415,0,0,0,652.121,352.8l160.341,53.426L652.121,459.545a304.916,304.916,0,0,0-192.593,192.8l-53.3,160.115L352.786,652.346A304.984,304.984,0,0,0,160.1,459.545L0,406.231,160.1,352.8A304.484,304.484,0,0,0,352.786,160.171L406.231,0l53.3,160.171" transform="translate(52.97 1.207)" fill="none" stroke="#000" stroke-width="1"/>
            <path id="Path_5053" data-name="Path 5053" d="M459.527,160.171A304.415,304.415,0,0,0,652.12,352.8l160.341,53.426L652.12,459.545a304.916,304.916,0,0,0-192.593,192.8l-53.3,160.115L352.785,652.346A304.985,304.985,0,0,0,160.1,459.545L0,406.231,160.1,352.8A304.484,304.484,0,0,0,352.785,160.171L406.23,0l53.3,160.171" transform="translate(37.145 1.207)" fill="none" stroke="#000" stroke-width="1"/>
            <path id="Path_5054" data-name="Path 5054" d="M459.528,160.171A304.414,304.414,0,0,0,652.121,352.8l160.341,53.426L652.121,459.545a304.915,304.915,0,0,0-192.593,192.8l-53.3,160.115L352.786,652.346A304.985,304.985,0,0,0,160.1,459.545L0,406.231,160.1,352.8A304.484,304.484,0,0,0,352.786,160.171L406.231,0l53.3,160.171" transform="translate(19.846 1.207)" fill="none" stroke="#000" stroke-width="1"/>
            <path id="Path_5055" data-name="Path 5055" d="M459.528,160.171A304.415,304.415,0,0,0,652.121,352.8l160.341,53.426L652.121,459.545a304.915,304.915,0,0,0-192.593,192.8l-53.3,160.116L352.786,652.346A304.984,304.984,0,0,0,160.1,459.545L0,406.231,160.1,352.8A304.484,304.484,0,0,0,352.786,160.171L406.231,0l53.3,160.171" transform="translate(1.207 1.938)" fill="none" stroke="#000" stroke-width="1"/>
          </g>
        </g>
      </g>
    </g>
  </g>
</svg>
