<svg id="Group_13" data-name="Group 13" xmlns="http://www.w3.org/2000/svg" xmlns:xlink="http://www.w3.org/1999/xlink" width="16.774" height="16.001" viewBox="0 0 16.774 16.001">
  <defs>
    <clipPath id="clip-path">
      <path id="Path_40" data-name="Path 40" d="M8.384,0a.666.666,0,0,0-.542.4L5.976,3.748A2.759,2.759,0,0,1,4.332,4.942L.574,5.684c-.6.119-.756.586-.337,1.037l2.6,2.808a2.758,2.758,0,0,1,.628,1.932l-.456,3.8c-.073.611.324.9.883.641L7.371,14.3a2.758,2.758,0,0,1,2.032,0l3.475,1.609c.559.259.956-.03.883-.641l-.456-3.8a2.758,2.758,0,0,1,.628-1.932l2.6-2.808c.419-.451.267-.918-.337-1.037l-3.758-.742A2.758,2.758,0,0,1,10.8,3.748L8.933.4A.665.665,0,0,0,8.391,0Z" transform="translate(0)" fill="#12ba9b"/>
    </clipPath>
  </defs>
  <g id="Group_12" data-name="Group 12" transform="translate(0)" clip-path="url(#clip-path)">
    <rect id="Rectangle_21" data-name="Rectangle 21" width="17.139" height="16.165" transform="translate(-0.182 0)" fill="#12ba9b"/>
  </g>
</svg>
