<svg id="twitterIcon" xmlns="http://www.w3.org/2000/svg" xmlns:xlink="http://www.w3.org/1999/xlink" width="20.085" height="16.323" viewBox="0 0 20.085 16.323">
  <defs>
    <clipPath id="clip-path">
      <rect id="Rectangle_68" data-name="Rectangle 68" width="20.085" height="16.323" fill="none"/>
    </clipPath>
  </defs>
  <g id="Group_101" data-name="Group 101" transform="translate(0 0)" clip-path="url(#clip-path)">
    <path id="Path_5029" data-name="Path 5029" d="M0,14.47a11.658,11.658,0,0,0,6.316,1.851A11.654,11.654,0,0,0,18.028,4.065,8.332,8.332,0,0,0,20.085,1.93a8.211,8.211,0,0,1-2.367.649A4.127,4.127,0,0,0,19.53.3a8.247,8.247,0,0,1-2.616,1A4.124,4.124,0,0,0,9.891,5.059,11.7,11.7,0,0,1,1.4.753a4.126,4.126,0,0,0,1.276,5.5A4.094,4.094,0,0,1,.807,5.739a4.126,4.126,0,0,0,3.3,4.093,4.136,4.136,0,0,1-1.86.071A4.126,4.126,0,0,0,6.1,12.765,8.286,8.286,0,0,1,0,14.47" transform="translate(0 0.001)" fill="#fff"/>
  </g>
</svg>
